<svg xmlns="http://www.w3.org/2000/svg" xmlns:svg="http://www.w3.org/2000/svg" version="1.1" id="svg2" viewBox="170.5 450.71 472.66 161.06">
  <defs id="defs6"/>
  <g id="g8" transform="matrix(1.3333333,0,0,-1.3333333,0,1056)">
    <text xml:space="preserve" transform="matrix(1,0,0,-1,134.004,444.214)" style="font-variant:normal;font-weight:bold;font-size:10.9091px;font-family:LMRoman10;-inkscape-font-specification:LMRoman10-Bold;writing-mode:lr-tb;fill:#000000;fill-opacity:1;fill-rule:nonzero;stroke:none" id="text12"><tspan x="0 9.0610981 15.159286 20.037834 25.788021 32.060753 38.333485 43.500038 111.80191 121.28629 126.45284 132.55103 139.52084 143.0052 160.53723 169.59833 176.56815 180.05252 187.02234 192.77252 197.72089 215.42746 225.29146 231.04164 236.20819 246.66238 252.76057 271.73041 278.21478 283.96497 293.02606 296.51044 301.4588 320.42862 329.91299 333.39737" y="0" id="tspan10">CategoryArabicChineseGermanJewishAll</tspan></text>
    <g id="g14" transform="translate(128.027,439.95)">
      <path d="M 0,0 H 354.198" style="fill:none;stroke:#000000;stroke-width:0.398;stroke-linecap:butt;stroke-linejoin:miter;stroke-miterlimit:10;stroke-dasharray:none;stroke-opacity:1" id="path16"/>
    </g>
    <text xml:space="preserve" transform="matrix(1,0,0,-1,134.004,430.266)" style="font-variant:normal;font-weight:normal;font-size:10.9091px;font-family:LMRoman10;-inkscape-font-specification:LMRoman10-Regular;writing-mode:lr-tb;fill:#000000;fill-opacity:1;fill-rule:nonzero;stroke:none" id="text20"><tspan x="0" y="0" id="tspan18">#</tspan></text>
    <text xml:space="preserve" transform="matrix(1,0,0,-1,146.731,430.266)" style="font-variant:normal;font-weight:normal;font-size:10.9091px;font-family:LMRoman10;-inkscape-font-specification:LMRoman10-Regular;writing-mode:lr-tb;fill:#000000;fill-opacity:1;fill-rule:nonzero;stroke:none" id="text24"><tspan x="0 6.3654599 11.82001 16.122559 20.365108 99.078629 104.53318 109.98772 147.80957 153.26413 158.71867 202.70416 208.15872 213.61327 259.00604 264.46057 307.69336 313.14789 318.60245" y="0" id="tspan22">posts11014111992462</tspan></text>
    <text xml:space="preserve" transform="matrix(1,0,0,-1,134.004,416.717)" style="font-variant:normal;font-weight:normal;font-size:10.9091px;font-family:LMRoman10;-inkscape-font-specification:LMRoman10-Regular;writing-mode:lr-tb;fill:#000000;fill-opacity:1;fill-rule:nonzero;stroke:none" id="text28"><tspan x="0" y="0" id="tspan26">#</tspan></text>
    <text xml:space="preserve" transform="matrix(1,0,0,-1,146.731,416.717)" style="font-variant:normal;font-weight:normal;font-size:10.9091px;font-family:LMRoman10;-inkscape-font-specification:LMRoman10-Regular;writing-mode:lr-tb;fill:#000000;fill-opacity:1;fill-rule:nonzero;stroke:none" id="text32"><tspan x="0 4.2730947 9.1221895 13.424739 19.790197 25.244749 31.304754 35.607304 40.456398 99.075356 104.52991 109.98446 147.8063 153.26085 158.71541 202.7009 208.15544 213.61 259.00275 264.45731 307.70099 313.15555 318.61008" y="0" id="tspan30">responses10412610088418</tspan></text>
    <text xml:space="preserve" transform="matrix(1,0,0,-1,134.004,403.168)" style="font-variant:normal;font-weight:normal;font-size:10.9091px;font-family:LMRoman10;-inkscape-font-specification:LMRoman10-Regular;writing-mode:lr-tb;fill:#000000;fill-opacity:1;fill-rule:nonzero;stroke:none" id="text36"><tspan x="0" y="0" id="tspan34">#</tspan></text>
    <text xml:space="preserve" transform="matrix(1,0,0,-1,146.731,403.168)" style="font-variant:normal;font-weight:normal;font-size:10.9091px;font-family:LMRoman10;-inkscape-font-specification:LMRoman10-Regular;writing-mode:lr-tb;fill:#000000;fill-opacity:1;fill-rule:nonzero;stroke:none" id="text40"><tspan x="0 6.0600052 9.0905533 13.393102 17.635651 21.908745 26.757841 31.06039 38.99567 48.086224 52.935318 57.237865 61.540417 66.994965 72.449516 77.298607 99.077538 104.53209 109.98663 147.80849 153.26303 158.71759 202.70308 208.15762 213.61218 259.00494 264.4595 269.91403 307.70316 313.15771 318.61227 324.0668" y="0" id="tspan38">distressmessages3973994025311729</tspan></text>
    <text xml:space="preserve" transform="matrix(1,0,0,-1,134.004,389.619)" style="font-variant:normal;font-weight:normal;font-size:10.9091px;font-family:LMRoman10;-inkscape-font-specification:LMRoman10-Regular;writing-mode:lr-tb;fill:#000000;fill-opacity:1;fill-rule:nonzero;stroke:none" id="text44"><tspan x="0" y="0" id="tspan42">#</tspan></text>
    <text xml:space="preserve" transform="matrix(1,0,0,-1,146.731,389.619)" style="font-variant:normal;font-weight:normal;font-size:10.9091px;font-family:LMRoman10;-inkscape-font-specification:LMRoman10-Regular;writing-mode:lr-tb;fill:#000000;fill-opacity:1;fill-rule:nonzero;stroke:none" id="text48"><tspan x="0 4.8490949 10.9091 13.939648 18.182198 24.242203 28.515297 33.969845 40.633125 44.935673 47.966221 53.420773 59.480778 64.935326 67.965874 99.072083 104.52663 109.98119 147.81393 153.26849 158.72304 202.69762 208.15218 213.60672 258.99948 264.45404 269.9086 307.69772 313.15225 318.60681 324.06137" y="0" id="tspan46">culturalsignals3463153385241523</tspan></text>
    <text xml:space="preserve" transform="matrix(1,0,0,-1,134.004,376.07)" style="font-variant:normal;font-weight:normal;font-size:10.9091px;font-family:LMRoman10;-inkscape-font-specification:LMRoman10-Regular;writing-mode:lr-tb;fill:#000000;fill-opacity:1;fill-rule:nonzero;stroke:none" id="text52"><tspan x="0" y="0" id="tspan50">#</tspan></text>
    <text xml:space="preserve" transform="matrix(1,0,0,-1,146.731,376.07)" style="font-variant:normal;font-weight:normal;font-size:10.9091px;font-family:LMRoman10;-inkscape-font-specification:LMRoman10-Regular;writing-mode:lr-tb;fill:#000000;fill-opacity:1;fill-rule:nonzero;stroke:none" id="text56"><tspan x="0 4.3025489 10.362555 16.42256 22.788019 28.242569 32.515663 40.390942 44.693493 48.936039 53.209137 58.663685 62.906235 67.755333 73.209877 76.240425 81.089523 99.072083 104.52663 109.98119 147.81393 153.26849 158.72304 202.69762 208.15218 213.60672 258.99948 264.45404 269.9086 307.69772 313.15225 318.60681 324.06137" y="0" id="tspan54">supportstrategies2592421943461041</tspan></text>
    <text xml:space="preserve" transform="matrix(1,0,0,-1,134.004,362.52)" style="font-variant:normal;font-weight:normal;font-size:10.9091px;font-family:LMRoman10;-inkscape-font-specification:LMRoman10-Regular;writing-mode:lr-tb;fill:#000000;fill-opacity:1;fill-rule:nonzero;stroke:none" id="text60"><tspan x="0" y="0" id="tspan58">#</tspan></text>
    <text xml:space="preserve" transform="matrix(1,0,0,-1,146.731,362.52)" style="font-variant:normal;font-weight:normal;font-size:10.9091px;font-family:LMRoman10;-inkscape-font-specification:LMRoman10-Regular;writing-mode:lr-tb;fill:#000000;fill-opacity:1;fill-rule:nonzero;stroke:none" id="text68"><tspan x="0 6.0600052 10.9091 19.999653 25.454203 30.908752 35.181847 40.636398 46.696404 52.756409 55.786957 64.268784 67.299332 73.359337 76.692062 99.077538 104.53209 109.98663 147.80849 153.26303 158.71759 202.70308 208.15762 213.61218 259.00494 264.4595 269.91403 307.70316 313.15771 318.61227" y="0" id="tspan62">demographicinfo226301268131926</tspan><tspan x="-12.727 -5.7560849 0.0017378801 5.4562879 13.330476 19.695936 25.150486 29.453035 37.339222 40.36977 45.207958 51.267963 56.722511 60.965061 99.076004 104.53056 109.9851 147.80695 153.26151 158.71605 202.70154 208.1561 213.61064 259.00342 264.45795 269.91251 307.70163 313.15619 318.61072" y="13.549" id="tspan64">Avg.postlength316492690389480</tspan><tspan x="-12.727 -5.7560849 0.0017378801 5.4562879 13.330476 17.603571 22.452665 26.755215 33.120674 38.575226 44.635231 48.937778 57.419605 60.450153 65.299248 71.359253 76.813805 81.056351 99.072731 104.52728 109.98183 147.81459 153.26913 202.69827 208.15282 213.60738 259.00012 264.45468 307.69836 313.15289" y="27.098" id="tspan66">Avg.responselength101801258898</tspan></text>
  </g>
</svg>