<svg xmlns="http://www.w3.org/2000/svg" xmlns:svg="http://www.w3.org/2000/svg" version="1.1" id="svg2" viewBox="171.12 172.81 466.64 229.75">
  <defs id="defs6"/>
  <g id="g8" transform="matrix(1.3333333,0,0,-1.3333333,0,1056)">
    <g id="g10" transform="translate(125.798,574.129)">
      <g id="g12" transform="scale(0.7409)">
        <g id="g14" transform="translate(3.637,118.693)">
          <path d="M 0,0 H 471.973" style="fill:none;stroke:#000000;stroke-width:0.398;stroke-linecap:butt;stroke-linejoin:miter;stroke-miterlimit:10;stroke-dasharray:none;stroke-opacity:1" id="path16"/>
        </g>
        <g id="g18" transform="translate(-125.798,-574.129)">
          <text xml:space="preserve" transform="matrix(1,0,0,-1,135.412,683.138)" style="font-variant:normal;font-weight:bold;font-size:10.9091px;font-family:LMRoman10;-inkscape-font-specification:LMRoman10-Bold;writing-mode:lr-tb;fill:#000000;fill-opacity:1;fill-rule:nonzero;stroke:none" id="text22"><tspan x="0 11.909465 18.531288 25.501112 31.251299 84.164795 93.64917 98.81572 104.9139 111.88373 115.3681 154.23831 163.29941 170.26923 173.7536 180.72342 186.47362 191.42198 226.68127 236.54529 242.29547 247.46202 257.91623 264.0144 303.63516 310.11954 315.86972 324.93082 328.41519 333.36356 390.59158 398.6796 404.95233 410.70251 415.86908 421.96725 428.23999" y="0" id="tspan20">ModelArabicChineseGermanJewishAverage</tspan></text>
          <text xml:space="preserve" transform="matrix(1,0,0,-1,207.367,669.589)" style="font-variant:normal;font-weight:normal;font-size:10.9091px;font-family:LMRoman10;-inkscape-font-specification:LMRoman10-Regular;writing-mode:lr-tb;fill:#000000;fill-opacity:1;fill-rule:nonzero;stroke:none" id="text26"><tspan x="0 7.4236426 16.514196 21.968746 36.955666 44.834221 50.894226 53.92477 58.16732 73.154243 80.577888 89.668442 95.122986 110.10991 117.98846 124.04847 127.07902 131.32156 146.30849 153.73213 162.82268 168.27724 183.26416 191.1427 197.20271 200.23326 204.4758 219.45181 226.87546 235.96602 241.42056 256.4075 264.28604 270.34604 273.37659 277.61914 292.60605 300.02969 309.12027 314.5748 329.56174 337.44028 343.50027 346.53082 350.77338 369.79666 377.97849 380.99814" y="0" id="tspan24">Emo.Cult.Emo.Cult.Emo.Cult.Emo.Cult.Emo.Cult.All</tspan></text>
          <g id="g28" transform="translate(129.435,665.325)">
            <path d="M 0,0 H 471.973" style="fill:none;stroke:#000000;stroke-width:0.398;stroke-linecap:butt;stroke-linejoin:miter;stroke-miterlimit:10;stroke-dasharray:none;stroke-opacity:1" id="path30"/>
          </g>
          <text xml:space="preserve" transform="matrix(1,0,0,-1,135.412,655.641)" style="font-variant:normal;font-weight:normal;font-size:10.9091px;font-family:LMRoman10;-inkscape-font-specification:LMRoman10-Regular;writing-mode:lr-tb;fill:#000000;fill-opacity:1;fill-rule:nonzero;stroke:none" id="text34"><tspan x="0 7.2763696 12.728738 74.757881 80.212433 83.242981 88.697525 111.33391 116.78846 119.81901 125.27356 147.90994 153.36449 156.39503 161.84959 184.48598 189.94052 192.97107 198.42561 221.062 226.51656 229.5471 235.00165 257.63803 263.09259 266.12314 271.57767 294.21405 299.66861 302.69916 308.15372 330.7901 336.24463 339.27518 344.72974 367.36612 372.82068 375.85123 381.30579 403.94217 409.3967 412.42725 417.88181 439.16547 444.62 447.65054 453.1051" y="0" id="tspan32">Aya4.673.514.433.464.622.544.613.994.583.373.98</tspan></text>
          <text xml:space="preserve" transform="matrix(1,0,0,-1,135.412,642.092)" style="font-variant:normal;font-weight:normal;font-size:10.9091px;font-family:Inconsolatazi4;-inkscape-font-specification:Inconsolatazi4-Regular;writing-mode:lr-tb;fill:#000000;fill-opacity:1;fill-rule:nonzero;stroke:none" id="text38"><tspan x="0 5.4545498 10.9091 16.363649 21.818199 27.272751 32.727299 38.18185" y="0" id="tspan36">+culture</tspan></text>
          <text xml:space="preserve" transform="matrix(1,0,0,-1,210.17,642.092)" style="font-variant:normal;font-weight:normal;font-size:10.9091px;font-family:LMRoman10;-inkscape-font-specification:LMRoman10-Regular;writing-mode:lr-tb;fill:#000000;fill-opacity:1;fill-rule:nonzero;stroke:none" id="text42"><tspan x="0 5.4545498 8.4850979 13.939648 36.576031 42.030579 45.061127 50.515678 73.152061 78.606613 81.637161 87.091705 109.72809 115.18264 118.21319 123.66774 146.30412 151.75867 154.78922 160.24377 182.88016 188.3347 191.36525 196.81979 219.45618 224.91074 227.94128 233.39583 256.03223 261.48676 264.5173 269.97186 292.60825 298.06281 301.09335 306.54788 329.18427 334.63882 337.66937 343.12393 364.40756 369.86212 372.89267 378.34723" y="0" id="tspan40">4.553.564.483.634.612.754.674.124.583.514.05</tspan></text>
          <text xml:space="preserve" transform="matrix(1,0,0,-1,135.412,628.543)" style="font-variant:normal;font-weight:normal;font-size:10.9091px;font-family:Inconsolatazi4;-inkscape-font-specification:Inconsolatazi4-Regular;writing-mode:lr-tb;fill:#000000;fill-opacity:1;fill-rule:nonzero;stroke:none" id="text46"><tspan x="0 5.4545498 10.9091 16.363649 21.818199 27.272751 32.727299" y="0" id="tspan44">+guided</tspan></text>
          <text xml:space="preserve" transform="matrix(1,0,0,-1,210.17,628.543)" style="font-variant:normal;font-weight:normal;font-size:10.9091px;font-family:LMRoman10;-inkscape-font-specification:LMRoman10-Regular;writing-mode:lr-tb;fill:#000000;fill-opacity:1;fill-rule:nonzero;stroke:none" id="text50"><tspan x="0 5.4545498 8.4850979 13.939648 36.576031 42.030579 45.061127 50.515678 73.152061 78.606613 81.637161 87.091705 109.72809 115.18264 118.21319 123.66774 146.30412 151.75867 154.78922 160.24377 182.88016 188.3347 191.36525 196.81979 219.45618 224.91074 227.94128 233.39583 256.03223 261.48676 264.5173 269.97186 292.60825 298.06281 301.09335 306.54788 329.18427 334.63882 337.66937 343.12393 364.40756 369.86212 372.89267 378.34723" y="0" id="tspan48">4.753.804.734.084.772.724.794.164.763.694.23</tspan></text>
          <text xml:space="preserve" transform="matrix(1,0,0,-1,135.412,614.994)" style="font-variant:normal;font-weight:normal;font-size:10.9091px;font-family:Inconsolatazi4;-inkscape-font-specification:Inconsolatazi4-Regular;writing-mode:lr-tb;fill:#000000;fill-opacity:1;fill-rule:nonzero;stroke:none" id="text54"><tspan x="0 5.4545498 10.9091 16.363649 21.818199 27.272751 32.727299 38.18185 43.636398 49.09095 54.545502" y="0" id="tspan52">+annotation</tspan></text>
          <text xml:space="preserve" transform="matrix(1,0,0,-1,210.17,614.994)" style="font-variant:normal;font-weight:normal;font-size:10.9091px;font-family:LMRoman10;-inkscape-font-specification:LMRoman10-Regular;writing-mode:lr-tb;fill:#000000;fill-opacity:1;fill-rule:nonzero;stroke:none" id="text58"><tspan x="0 5.4545498 8.4850979 13.939648 36.576031 42.030579 45.061127 50.515678 73.152061 78.606613 81.637161 87.091705 109.72809 115.18264 118.21319 123.66774 146.30412 151.75867 154.78922 160.24377 182.88016 188.3347 191.36525 196.81979 219.45618 224.91074 227.94128 233.39583 256.03223 261.48676 264.5173 269.97186 292.60825 298.06281 301.09335 306.54788 329.18427 334.63882 337.66937 343.12393 364.40756 369.86212 372.89267 378.34723" y="0" id="tspan56">4.773.734.773.784.802.754.814.104.793.594.19</tspan></text>
          <text xml:space="preserve" transform="matrix(1,0,0,-1,135.412,601.444)" style="font-variant:normal;font-weight:normal;font-size:10.9091px;font-family:Inconsolatazi4;-inkscape-font-specification:Inconsolatazi4-Regular;writing-mode:lr-tb;fill:#000000;fill-opacity:1;fill-rule:nonzero;stroke:none" id="text62"><tspan x="0 5.4545498 10.9091 16.363649" y="0" id="tspan60">+cga</tspan></text>
          <g id="g64" transform="translate(201.39,597.38)">
            <path d="M 0,0 H 36.955 V 13.549 H 0 Z" style="fill:#ffc9c9;fill-opacity:1;fill-rule:nonzero;stroke:none" id="path66"/>
          </g>
          <text xml:space="preserve" transform="matrix(1,0,0,-1,210.17,601.444)" style="font-variant:normal;font-weight:normal;font-size:10.9091px;font-family:LMRoman10;-inkscape-font-specification:LMRoman10-Regular;writing-mode:lr-tb;fill:#000000;fill-opacity:1;fill-rule:nonzero;stroke:none" id="text70"><tspan x="0 5.4545498 8.4850979 13.939648" y="0" id="tspan68">4.84</tspan></text>
          <g id="g72" transform="translate(238.344,597.38)">
            <path d="M 0,0 H 36.197 V 13.549 H 0 Z" style="fill:#a5d8ff;fill-opacity:1;fill-rule:nonzero;stroke:none" id="path74"/>
          </g>
          <text xml:space="preserve" transform="matrix(1,0,0,-1,246.746,601.444)" style="font-variant:normal;font-weight:normal;font-size:10.9091px;font-family:LMRoman10;-inkscape-font-specification:LMRoman10-Regular;writing-mode:lr-tb;fill:#000000;fill-opacity:1;fill-rule:nonzero;stroke:none" id="text78"><tspan x="0 5.4545498 8.4850979 13.939648" y="0" id="tspan76">4.39</tspan></text>
          <g id="g80" transform="translate(274.542,597.38)">
            <path d="M 0,0 H 36.955 V 13.549 H 0 Z" style="fill:#ffc9c9;fill-opacity:1;fill-rule:nonzero;stroke:none" id="path82"/>
          </g>
          <text xml:space="preserve" transform="matrix(1,0,0,-1,283.322,601.444)" style="font-variant:normal;font-weight:normal;font-size:10.9091px;font-family:LMRoman10;-inkscape-font-specification:LMRoman10-Regular;writing-mode:lr-tb;fill:#000000;fill-opacity:1;fill-rule:nonzero;stroke:none" id="text86"><tspan x="0 5.4545498 8.4850979 13.939648" y="0" id="tspan84">4.82</tspan></text>
          <g id="g88" transform="translate(311.496,597.38)">
            <path d="M 0,0 H 36.197 V 13.549 H 0 Z" style="fill:#a5d8ff;fill-opacity:1;fill-rule:nonzero;stroke:none" id="path90"/>
          </g>
          <text xml:space="preserve" transform="matrix(1,0,0,-1,319.898,601.444)" style="font-variant:normal;font-weight:normal;font-size:10.9091px;font-family:LMRoman10;-inkscape-font-specification:LMRoman10-Regular;writing-mode:lr-tb;fill:#000000;fill-opacity:1;fill-rule:nonzero;stroke:none" id="text94"><tspan x="0 5.4545498 8.4850979 13.939648" y="0" id="tspan92">4.25</tspan></text>
          <g id="g96" transform="translate(347.694,597.38)">
            <path d="M 0,0 H 36.955 V 13.549 H 0 Z" style="fill:#ffc9c9;fill-opacity:1;fill-rule:nonzero;stroke:none" id="path98"/>
          </g>
          <text xml:space="preserve" transform="matrix(1,0,0,-1,356.474,601.444)" style="font-variant:normal;font-weight:normal;font-size:10.9091px;font-family:LMRoman10;-inkscape-font-specification:LMRoman10-Regular;writing-mode:lr-tb;fill:#000000;fill-opacity:1;fill-rule:nonzero;stroke:none" id="text102"><tspan x="0 5.4545498 8.4850979 13.939648" y="0" id="tspan100">4.84</tspan></text>
          <g id="g104" transform="translate(384.648,597.38)">
            <path d="M 0,0 H 36.197 V 13.549 H 0 Z" style="fill:#a5d8ff;fill-opacity:1;fill-rule:nonzero;stroke:none" id="path106"/>
          </g>
          <text xml:space="preserve" transform="matrix(1,0,0,-1,393.05,601.444)" style="font-variant:normal;font-weight:normal;font-size:10.9091px;font-family:LMRoman10;-inkscape-font-specification:LMRoman10-Regular;writing-mode:lr-tb;fill:#000000;fill-opacity:1;fill-rule:nonzero;stroke:none" id="text110"><tspan x="0 5.4545498 8.4850979 13.939648" y="0" id="tspan108">3.44</tspan></text>
          <g id="g112" transform="translate(420.846,597.38)">
            <path d="M 0,0 H 36.955 V 13.549 H 0 Z" style="fill:#ffc9c9;fill-opacity:1;fill-rule:nonzero;stroke:none" id="path114"/>
          </g>
          <text xml:space="preserve" transform="matrix(1,0,0,-1,429.626,601.444)" style="font-variant:normal;font-weight:normal;font-size:10.9091px;font-family:LMRoman10;-inkscape-font-specification:LMRoman10-Regular;writing-mode:lr-tb;fill:#000000;fill-opacity:1;fill-rule:nonzero;stroke:none" id="text118"><tspan x="0 5.4545498 8.4850979 13.939648" y="0" id="tspan116">4.91</tspan></text>
          <g id="g120" transform="translate(457.8,597.38)">
            <path d="M 0,0 H 36.197 V 13.549 H 0 Z" style="fill:#a5d8ff;fill-opacity:1;fill-rule:nonzero;stroke:none" id="path122"/>
          </g>
          <text xml:space="preserve" transform="matrix(1,0,0,-1,466.202,601.444)" style="font-variant:normal;font-weight:normal;font-size:10.9091px;font-family:LMRoman10;-inkscape-font-specification:LMRoman10-Regular;writing-mode:lr-tb;fill:#000000;fill-opacity:1;fill-rule:nonzero;stroke:none" id="text126"><tspan x="0 5.4545498 8.4850979 13.939648" y="0" id="tspan124">4.55</tspan></text>
          <g id="g128" transform="translate(493.998,597.38)">
            <path d="M 0,0 H 36.955 V 13.549 H 0 Z" style="fill:#ffc9c9;fill-opacity:1;fill-rule:nonzero;stroke:none" id="path130"/>
          </g>
          <text xml:space="preserve" transform="matrix(1,0,0,-1,502.778,601.444)" style="font-variant:normal;font-weight:normal;font-size:10.9091px;font-family:LMRoman10;-inkscape-font-specification:LMRoman10-Regular;writing-mode:lr-tb;fill:#000000;fill-opacity:1;fill-rule:nonzero;stroke:none" id="text134"><tspan x="0 5.4545498 8.4850979 13.939648" y="0" id="tspan132">4.85</tspan></text>
          <g id="g136" transform="translate(530.952,597.38)">
            <path d="M 0,0 H 36.197 V 13.549 H 0 Z" style="fill:#a5d8ff;fill-opacity:1;fill-rule:nonzero;stroke:none" id="path138"/>
          </g>
          <text xml:space="preserve" transform="matrix(1,0,0,-1,539.354,601.444)" style="font-variant:normal;font-weight:normal;font-size:10.9091px;font-family:LMRoman10;-inkscape-font-specification:LMRoman10-Regular;writing-mode:lr-tb;fill:#000000;fill-opacity:1;fill-rule:nonzero;stroke:none" id="text142"><tspan x="0 5.4545498 8.4850979 13.939648" y="0" id="tspan140">4.16</tspan></text>
          <text xml:space="preserve" transform="matrix(1,0,0,-1,573.127,601.444)" style="font-variant:normal;font-weight:bold;font-size:10.9091px;font-family:LMRoman10;-inkscape-font-specification:LMRoman10-Bold;writing-mode:lr-tb;fill:#000000;fill-opacity:1;fill-rule:nonzero;stroke:none" id="text146"><tspan x="0 6.2727327 9.7570992 16.029831" y="0" id="tspan144">4.51</tspan></text>
          <g id="g148" transform="translate(129.435,597.18)">
            <path d="M 0,0 H 471.973" style="fill:none;stroke:#000000;stroke-width:0.398;stroke-linecap:butt;stroke-linejoin:miter;stroke-miterlimit:10;stroke-dasharray:none;stroke-opacity:1" id="path150"/>
          </g>
          <text xml:space="preserve" transform="matrix(1,0,0,-1,135.412,587.497)" style="font-variant:normal;font-weight:normal;font-size:10.9091px;font-family:LMRoman10;-inkscape-font-specification:LMRoman10-Regular;writing-mode:lr-tb;fill:#000000;fill-opacity:1;fill-rule:nonzero;stroke:none" id="text154"><tspan x="0 8.4850979 16.058195 20.90729 74.760063 80.214615 83.245163 88.699707 111.33609 116.79064 119.82119 125.27574 147.91212 153.36667 156.39722 161.85178 184.48816 189.9427 192.97325 198.4278 221.06418 226.51874 229.54929 235.00383 257.64023 263.09476 266.12531 271.57986 294.21625 299.67081 302.70135 308.15588 330.79227 336.24683 339.27737 344.73193 367.36832 372.82285 375.85339 381.30795 403.94434 409.3989 412.42944 417.88397 439.16763 444.62219 447.65274 453.1073" y="0" id="tspan152">Qwen4.163.024.263.203.892.664.273.604.153.123.63</tspan></text>
          <text xml:space="preserve" transform="matrix(1,0,0,-1,135.412,573.947)" style="font-variant:normal;font-weight:normal;font-size:10.9091px;font-family:Inconsolatazi4;-inkscape-font-specification:Inconsolatazi4-Regular;writing-mode:lr-tb;fill:#000000;fill-opacity:1;fill-rule:nonzero;stroke:none" id="text158"><tspan x="0 5.4545498 10.9091 16.363649 21.818199 27.272751 32.727299 38.18185" y="0" id="tspan156">+culture</tspan></text>
          <text xml:space="preserve" transform="matrix(1,0,0,-1,210.17,573.947)" style="font-variant:normal;font-weight:normal;font-size:10.9091px;font-family:LMRoman10;-inkscape-font-specification:LMRoman10-Regular;writing-mode:lr-tb;fill:#000000;fill-opacity:1;fill-rule:nonzero;stroke:none" id="text162"><tspan x="0 5.4545498 8.4850979 13.939648 36.576031 42.030579 45.061127 50.515678 73.152061 78.606613 81.637161 87.091705 109.72809 115.18264 118.21319 123.66774 146.30412 151.75867 154.78922 160.24377 182.88016 188.3347 191.36525 196.81979 219.45618 224.91074 227.94128 233.39583 256.03223 261.48676 264.5173 269.97186 292.60825 298.06281 301.09335 306.54788 329.18427 334.63882 337.66937 343.12393 364.40756 369.86212 372.89267 378.34723" y="0" id="tspan160">4.053.234.053.383.912.734.283.714.073.263.67</tspan></text>
          <text xml:space="preserve" transform="matrix(1,0,0,-1,135.412,560.398)" style="font-variant:normal;font-weight:normal;font-size:10.9091px;font-family:Inconsolatazi4;-inkscape-font-specification:Inconsolatazi4-Regular;writing-mode:lr-tb;fill:#000000;fill-opacity:1;fill-rule:nonzero;stroke:none" id="text166"><tspan x="0 5.4545498 10.9091 16.363649 21.818199 27.272751 32.727299" y="0" id="tspan164">+guided</tspan></text>
          <g id="g168" transform="translate(201.39,556.334)">
            <path d="M 0,0 H 36.955 V 13.549 H 0 Z" style="fill:#ffc9c9;fill-opacity:1;fill-rule:nonzero;stroke:none" id="path170"/>
          </g>
          <text xml:space="preserve" transform="matrix(1,0,0,-1,210.17,560.398)" style="font-variant:normal;font-weight:normal;font-size:10.9091px;font-family:LMRoman10;-inkscape-font-specification:LMRoman10-Regular;writing-mode:lr-tb;fill:#000000;fill-opacity:1;fill-rule:nonzero;stroke:none" id="text174"><tspan x="0 5.4545498 8.4850979 13.939648 36.576031 42.030579 45.061127 50.515678" y="0" id="tspan172">4.413.29</tspan></text>
          <g id="g176" transform="translate(274.542,556.334)">
            <path d="M 0,0 H 36.955 V 13.549 H 0 Z" style="fill:#ffc9c9;fill-opacity:1;fill-rule:nonzero;stroke:none" id="path178"/>
          </g>
          <text xml:space="preserve" transform="matrix(1,0,0,-1,283.322,560.398)" style="font-variant:normal;font-weight:normal;font-size:10.9091px;font-family:LMRoman10;-inkscape-font-specification:LMRoman10-Regular;writing-mode:lr-tb;fill:#000000;fill-opacity:1;fill-rule:nonzero;stroke:none" id="text182"><tspan x="0 5.4545498 8.4850979 13.939648 36.576031 42.030579 45.061127 50.515678" y="0" id="tspan180">4.493.42</tspan></text>
          <g id="g184" transform="translate(347.694,556.334)">
            <path d="M 0,0 H 36.955 V 13.549 H 0 Z" style="fill:#ffc9c9;fill-opacity:1;fill-rule:nonzero;stroke:none" id="path186"/>
          </g>
          <text xml:space="preserve" transform="matrix(1,0,0,-1,356.474,560.398)" style="font-variant:normal;font-weight:normal;font-size:10.9091px;font-family:LMRoman10;-inkscape-font-specification:LMRoman10-Regular;writing-mode:lr-tb;fill:#000000;fill-opacity:1;fill-rule:nonzero;stroke:none" id="text190"><tspan x="0 5.4545498 8.4850979 13.939648 36.576031 42.030579 45.061127 50.515678" y="0" id="tspan188">4.322.78</tspan></text>
          <g id="g192" transform="translate(420.846,556.334)">
            <path d="M 0,0 H 36.955 V 13.549 H 0 Z" style="fill:#ffc9c9;fill-opacity:1;fill-rule:nonzero;stroke:none" id="path194"/>
          </g>
          <text xml:space="preserve" transform="matrix(1,0,0,-1,429.626,560.398)" style="font-variant:normal;font-weight:normal;font-size:10.9091px;font-family:LMRoman10;-inkscape-font-specification:LMRoman10-Regular;writing-mode:lr-tb;fill:#000000;fill-opacity:1;fill-rule:nonzero;stroke:none" id="text198"><tspan x="0 5.4545498 8.4850979 13.939648 36.576031 42.030579 45.061127 50.515678" y="0" id="tspan196">4.543.73</tspan></text>
          <g id="g200" transform="translate(493.998,556.334)">
            <path d="M 0,0 H 36.955 V 13.549 H 0 Z" style="fill:#ffc9c9;fill-opacity:1;fill-rule:nonzero;stroke:none" id="path202"/>
          </g>
          <text xml:space="preserve" transform="matrix(1,0,0,-1,502.778,560.398)" style="font-variant:normal;font-weight:normal;font-size:10.9091px;font-family:LMRoman10;-inkscape-font-specification:LMRoman10-Regular;writing-mode:lr-tb;fill:#000000;fill-opacity:1;fill-rule:nonzero;stroke:none" id="text206"><tspan x="0 5.4545498 8.4850979 13.939648 36.576031 42.030579 45.061127 50.515678" y="0" id="tspan204">4.443.30</tspan></text>
          <text xml:space="preserve" transform="matrix(1,0,0,-1,573.127,560.398)" style="font-variant:normal;font-weight:bold;font-size:10.9091px;font-family:LMRoman10;-inkscape-font-specification:LMRoman10-Bold;writing-mode:lr-tb;fill:#000000;fill-opacity:1;fill-rule:nonzero;stroke:none" id="text210"><tspan x="0 6.2727327 9.7570992 16.029831" y="0" id="tspan208">3.87</tspan></text>
          <text xml:space="preserve" transform="matrix(1,0,0,-1,135.412,546.849)" style="font-variant:normal;font-weight:normal;font-size:10.9091px;font-family:Inconsolatazi4;-inkscape-font-specification:Inconsolatazi4-Regular;writing-mode:lr-tb;fill:#000000;fill-opacity:1;fill-rule:nonzero;stroke:none" id="text214"><tspan x="0 5.4545498 10.9091 16.363649 21.818199 27.272751 32.727299 38.18185 43.636398 49.09095 54.545502" y="0" id="tspan212">+annotation</tspan></text>
          <text xml:space="preserve" transform="matrix(1,0,0,-1,210.17,546.849)" style="font-variant:normal;font-weight:normal;font-size:10.9091px;font-family:LMRoman10;-inkscape-font-specification:LMRoman10-Regular;writing-mode:lr-tb;fill:#000000;fill-opacity:1;fill-rule:nonzero;stroke:none" id="text218"><tspan x="0 5.4545498 8.4850979 13.939648 36.576031 42.030579 45.061127 50.515678 73.152061 78.606613 81.637161 87.091705 109.72809 115.18264 118.21319 123.66774 146.30412 151.75867 154.78922 160.24377" y="0" id="tspan216">4.403.404.283.464.29</tspan></text>
          <g id="g220" transform="translate(384.648,542.784)">
            <path d="M 0,0 H 36.197 V 13.549 H 0 Z" style="fill:#a5d8ff;fill-opacity:1;fill-rule:nonzero;stroke:none" id="path222"/>
          </g>
          <text xml:space="preserve" transform="matrix(1,0,0,-1,393.05,546.849)" style="font-variant:normal;font-weight:normal;font-size:10.9091px;font-family:LMRoman10;-inkscape-font-specification:LMRoman10-Regular;writing-mode:lr-tb;fill:#000000;fill-opacity:1;fill-rule:nonzero;stroke:none" id="text226"><tspan x="0 5.4545498 8.4850979 13.939648 36.576031 42.030579 45.061127 50.515678 73.152061 78.606613 81.637161 87.091705 109.72809 115.18264 118.21319 123.66774 146.30412 151.75867 154.78922 160.24377 181.52742 186.98198 190.01253 195.46707" y="0" id="tspan224">2.824.463.694.363.343.85</tspan></text>
          <text xml:space="preserve" transform="matrix(1,0,0,-1,135.412,533.3)" style="font-variant:normal;font-weight:normal;font-size:10.9091px;font-family:Inconsolatazi4;-inkscape-font-specification:Inconsolatazi4-Regular;writing-mode:lr-tb;fill:#000000;fill-opacity:1;fill-rule:nonzero;stroke:none" id="text230"><tspan x="0 5.4545498 10.9091 16.363649" y="0" id="tspan228">+cga</tspan></text>
          <text xml:space="preserve" transform="matrix(1,0,0,-1,210.17,533.3)" style="font-variant:normal;font-weight:normal;font-size:10.9091px;font-family:LMRoman10;-inkscape-font-specification:LMRoman10-Regular;writing-mode:lr-tb;fill:#000000;fill-opacity:1;fill-rule:nonzero;stroke:none" id="text234"><tspan x="0 5.4545498 8.4850979 13.939648" y="0" id="tspan232">4.11</tspan></text>
          <g id="g236" transform="translate(238.344,529.235)">
            <path d="M 0,0 H 36.197 V 13.549 H 0 Z" style="fill:#a5d8ff;fill-opacity:1;fill-rule:nonzero;stroke:none" id="path238"/>
          </g>
          <text xml:space="preserve" transform="matrix(1,0,0,-1,246.746,533.3)" style="font-variant:normal;font-weight:normal;font-size:10.9091px;font-family:LMRoman10;-inkscape-font-specification:LMRoman10-Regular;writing-mode:lr-tb;fill:#000000;fill-opacity:1;fill-rule:nonzero;stroke:none" id="text242"><tspan x="0 5.4545498 8.4850979 13.939648 36.576031 42.030579 45.061127 50.515678" y="0" id="tspan240">3.704.24</tspan></text>
          <g id="g244" transform="translate(311.496,529.235)">
            <path d="M 0,0 H 36.197 V 13.549 H 0 Z" style="fill:#a5d8ff;fill-opacity:1;fill-rule:nonzero;stroke:none" id="path246"/>
          </g>
          <text xml:space="preserve" transform="matrix(1,0,0,-1,319.898,533.3)" style="font-variant:normal;font-weight:normal;font-size:10.9091px;font-family:LMRoman10;-inkscape-font-specification:LMRoman10-Regular;writing-mode:lr-tb;fill:#000000;fill-opacity:1;fill-rule:nonzero;stroke:none" id="text250"><tspan x="0 5.4545498 8.4850979 13.939648 36.576031 42.030579 45.061127 50.515678 73.152061 78.606613 81.637161 87.091705 109.72809 115.18264 118.21319 123.66774" y="0" id="tspan248">3.813.862.674.50</tspan></text>
          <g id="g252" transform="translate(457.8,529.235)">
            <path d="M 0,0 H 36.197 V 13.549 H 0 Z" style="fill:#a5d8ff;fill-opacity:1;fill-rule:nonzero;stroke:none" id="path254"/>
          </g>
          <text xml:space="preserve" transform="matrix(1,0,0,-1,466.202,533.3)" style="font-variant:normal;font-weight:normal;font-size:10.9091px;font-family:LMRoman10;-inkscape-font-specification:LMRoman10-Regular;writing-mode:lr-tb;fill:#000000;fill-opacity:1;fill-rule:nonzero;stroke:none" id="text258"><tspan x="0 5.4545498 8.4850979 13.939648 36.576031 42.030579 45.061127 50.515678" y="0" id="tspan256">3.954.18</tspan></text>
          <g id="g260" transform="translate(530.952,529.235)">
            <path d="M 0,0 H 36.197 V 13.549 H 0 Z" style="fill:#a5d8ff;fill-opacity:1;fill-rule:nonzero;stroke:none" id="path262"/>
          </g>
          <text xml:space="preserve" transform="matrix(1,0,0,-1,539.354,533.3)" style="font-variant:normal;font-weight:normal;font-size:10.9091px;font-family:LMRoman10;-inkscape-font-specification:LMRoman10-Regular;writing-mode:lr-tb;fill:#000000;fill-opacity:1;fill-rule:nonzero;stroke:none" id="text266"><tspan x="0 5.4545498 8.4850979 13.939648 35.223301 40.677853 43.708401 49.162949" y="0" id="tspan264">3.533.85</tspan></text>
          <g id="g268" transform="translate(129.435,529.036)">
            <path d="M 0,0 H 471.973" style="fill:none;stroke:#000000;stroke-width:0.398;stroke-linecap:butt;stroke-linejoin:miter;stroke-miterlimit:10;stroke-dasharray:none;stroke-opacity:1" id="path270"/>
          </g>
          <text xml:space="preserve" transform="matrix(1,0,0,-1,135.412,519.352)" style="font-variant:normal;font-weight:normal;font-size:10.9091px;font-family:LMRoman10;-inkscape-font-specification:LMRoman10-Regular;writing-mode:lr-tb;fill:#000000;fill-opacity:1;fill-rule:nonzero;stroke:none" id="text274"><tspan x="0 6.8181877 9.8487358 15.303286 24.393839 74.761154 80.215706 83.246254 88.700798 111.33718 116.79173 119.82228 125.27683 147.91321 153.36777 156.39832 161.85286 184.48924 189.9438 192.97435 198.42889 221.06528 226.51982 229.55037 235.00493" y="0" id="tspan272">Llama3.792.984.203.413.81</tspan></text>
          <g id="g276" transform="translate(384.648,515.287)">
            <path d="M 0,0 H 36.197 V 13.549 H 0 Z" style="fill:#a5d8ff;fill-opacity:1;fill-rule:nonzero;stroke:none" id="path278"/>
          </g>
          <text xml:space="preserve" transform="matrix(1,0,0,-1,393.05,519.352)" style="font-variant:normal;font-weight:normal;font-size:10.9091px;font-family:LMRoman10;-inkscape-font-specification:LMRoman10-Regular;writing-mode:lr-tb;fill:#000000;fill-opacity:1;fill-rule:nonzero;stroke:none" id="text282"><tspan x="0 5.4545498 8.4850979 13.939648 36.576031 42.030579 45.061127 50.515678 73.152061 78.606613 81.637161 87.091705 109.72809 115.18264 118.21319 123.66774 146.30412 151.75867 154.78922 160.24377 181.52742 186.98198 190.01253 195.46707" y="0" id="tspan280">2.674.223.894.003.243.62</tspan></text>
          <text xml:space="preserve" transform="matrix(1,0,0,-1,135.412,505.803)" style="font-variant:normal;font-weight:normal;font-size:10.9091px;font-family:Inconsolatazi4;-inkscape-font-specification:Inconsolatazi4-Regular;writing-mode:lr-tb;fill:#000000;fill-opacity:1;fill-rule:nonzero;stroke:none" id="text286"><tspan x="0 5.4545498 10.9091 16.363649 21.818199 27.272751 32.727299 38.18185" y="0" id="tspan284">+culture</tspan></text>
          <text xml:space="preserve" transform="matrix(1,0,0,-1,210.17,505.803)" style="font-variant:normal;font-weight:normal;font-size:10.9091px;font-family:LMRoman10;-inkscape-font-specification:LMRoman10-Regular;writing-mode:lr-tb;fill:#000000;fill-opacity:1;fill-rule:nonzero;stroke:none" id="text290"><tspan x="0 5.4545498 8.4850979 13.939648 36.576031 42.030579 45.061127 50.515678 73.152061 78.606613 81.637161 87.091705 109.72809 115.18264 118.21319 123.66774 146.30412 151.75867 154.78922 160.24377 182.88016 188.3347 191.36525 196.81979 219.45618 224.91074 227.94128 233.39583 256.03223 261.48676 264.5173 269.97186 292.60825 298.06281 301.09335 306.54788 329.18427 334.63882 337.66937 343.12393 364.40756 369.86212 372.89267 378.34723" y="0" id="tspan288">3.753.654.113.993.742.624.344.153.993.613.80</tspan></text>
          <text xml:space="preserve" transform="matrix(1,0,0,-1,135.412,492.254)" style="font-variant:normal;font-weight:normal;font-size:10.9091px;font-family:Inconsolatazi4;-inkscape-font-specification:Inconsolatazi4-Regular;writing-mode:lr-tb;fill:#000000;fill-opacity:1;fill-rule:nonzero;stroke:none" id="text294"><tspan x="0 5.4545498 10.9091 16.363649 21.818199 27.272751 32.727299" y="0" id="tspan292">+guided</tspan></text>
          <g id="g296" transform="translate(201.39,488.189)">
            <path d="M 0,0 H 36.955 V 13.549 H 0 Z" style="fill:#ffc9c9;fill-opacity:1;fill-rule:nonzero;stroke:none" id="path298"/>
          </g>
          <text xml:space="preserve" transform="matrix(1,0,0,-1,210.17,492.254)" style="font-variant:normal;font-weight:normal;font-size:10.9091px;font-family:LMRoman10;-inkscape-font-specification:LMRoman10-Regular;writing-mode:lr-tb;fill:#000000;fill-opacity:1;fill-rule:nonzero;stroke:none" id="text302"><tspan x="0 5.4545498 8.4850979 13.939648 36.576031 42.030579 45.061127 50.515678" y="0" id="tspan300">4.223.40</tspan></text>
          <g id="g304" transform="translate(274.542,488.189)">
            <path d="M 0,0 H 36.955 V 13.549 H 0 Z" style="fill:#ffc9c9;fill-opacity:1;fill-rule:nonzero;stroke:none" id="path306"/>
          </g>
          <text xml:space="preserve" transform="matrix(1,0,0,-1,283.322,492.254)" style="font-variant:normal;font-weight:normal;font-size:10.9091px;font-family:LMRoman10;-inkscape-font-specification:LMRoman10-Regular;writing-mode:lr-tb;fill:#000000;fill-opacity:1;fill-rule:nonzero;stroke:none" id="text310"><tspan x="0 5.4545498 8.4850979 13.939648 36.576031 42.030579 45.061127 50.515678" y="0" id="tspan308">4.573.89</tspan></text>
          <g id="g312" transform="translate(347.694,488.189)">
            <path d="M 0,0 H 36.955 V 13.549 H 0 Z" style="fill:#ffc9c9;fill-opacity:1;fill-rule:nonzero;stroke:none" id="path314"/>
          </g>
          <text xml:space="preserve" transform="matrix(1,0,0,-1,356.474,492.254)" style="font-variant:normal;font-weight:normal;font-size:10.9091px;font-family:LMRoman10;-inkscape-font-specification:LMRoman10-Regular;writing-mode:lr-tb;fill:#000000;fill-opacity:1;fill-rule:nonzero;stroke:none" id="text318"><tspan x="0 5.4545498 8.4850979 13.939648 36.576031 42.030579 45.061127 50.515678 73.152061 78.606613 81.637161 87.091705 109.72809 115.18264 118.21319 123.66774" y="0" id="tspan316">4.262.544.594.11</tspan></text>
          <g id="g320" transform="translate(493.998,488.189)">
            <path d="M 0,0 H 36.955 V 13.549 H 0 Z" style="fill:#ffc9c9;fill-opacity:1;fill-rule:nonzero;stroke:none" id="path322"/>
          </g>
          <text xml:space="preserve" transform="matrix(1,0,0,-1,502.778,492.254)" style="font-variant:normal;font-weight:normal;font-size:10.9091px;font-family:LMRoman10;-inkscape-font-specification:LMRoman10-Regular;writing-mode:lr-tb;fill:#000000;fill-opacity:1;fill-rule:nonzero;stroke:none" id="text326"><tspan x="0 5.4545498 8.4850979 13.939648 36.576031 42.030579 45.061127 50.515678 71.799332 77.253883 80.284431 85.738983" y="0" id="tspan324">4.413.493.95</tspan></text>
          <text xml:space="preserve" transform="matrix(1,0,0,-1,135.412,478.705)" style="font-variant:normal;font-weight:normal;font-size:10.9091px;font-family:Inconsolatazi4;-inkscape-font-specification:Inconsolatazi4-Regular;writing-mode:lr-tb;fill:#000000;fill-opacity:1;fill-rule:nonzero;stroke:none" id="text330"><tspan x="0 5.4545498 10.9091 16.363649 21.818199 27.272751 32.727299 38.18185 43.636398 49.09095 54.545502" y="0" id="tspan328">+annotation</tspan></text>
          <text xml:space="preserve" transform="matrix(1,0,0,-1,210.17,478.705)" style="font-variant:normal;font-weight:normal;font-size:10.9091px;font-family:LMRoman10;-inkscape-font-specification:LMRoman10-Regular;writing-mode:lr-tb;fill:#000000;fill-opacity:1;fill-rule:nonzero;stroke:none" id="text334"><tspan x="0 5.4545498 8.4850979 13.939648 36.576031 42.030579 45.061127 50.515678 73.152061 78.606613 81.637161 87.091705 109.72809 115.18264 118.21319 123.66774 146.30412 151.75867 154.78922 160.24377 182.88016 188.3347 191.36525 196.81979 219.45618 224.91074 227.94128 233.39583 256.03223 261.48676 264.5173 269.97186 292.60825 298.06281 301.09335 306.54788 329.18427 334.63882 337.66937 343.12393 364.40756 369.86212 372.89267 378.34723" y="0" id="tspan332">4.143.524.543.604.232.664.483.994.353.443.89</tspan></text>
          <text xml:space="preserve" transform="matrix(1,0,0,-1,135.412,465.156)" style="font-variant:normal;font-weight:normal;font-size:10.9091px;font-family:Inconsolatazi4;-inkscape-font-specification:Inconsolatazi4-Regular;writing-mode:lr-tb;fill:#000000;fill-opacity:1;fill-rule:nonzero;stroke:none" id="text338"><tspan x="0 5.4545498 10.9091 16.363649" y="0" id="tspan336">+cga</tspan></text>
          <text xml:space="preserve" transform="matrix(1,0,0,-1,210.17,465.156)" style="font-variant:normal;font-weight:normal;font-size:10.9091px;font-family:LMRoman10;-inkscape-font-specification:LMRoman10-Regular;writing-mode:lr-tb;fill:#000000;fill-opacity:1;fill-rule:nonzero;stroke:none" id="text342"><tspan x="0 5.4545498 8.4850979 13.939648" y="0" id="tspan340">4.13</tspan></text>
          <g id="g344" transform="translate(238.344,461.091)">
            <path d="M 0,0 H 36.197 V 13.549 H 0 Z" style="fill:#a5d8ff;fill-opacity:1;fill-rule:nonzero;stroke:none" id="path346"/>
          </g>
          <text xml:space="preserve" transform="matrix(1,0,0,-1,246.746,465.156)" style="font-variant:normal;font-weight:normal;font-size:10.9091px;font-family:LMRoman10;-inkscape-font-specification:LMRoman10-Regular;writing-mode:lr-tb;fill:#000000;fill-opacity:1;fill-rule:nonzero;stroke:none" id="text350"><tspan x="0 5.4545498 8.4850979 13.939648 36.576031 42.030579 45.061127 50.515678" y="0" id="tspan348">3.934.48</tspan></text>
          <g id="g352" transform="translate(311.496,461.091)">
            <path d="M 0,0 H 36.197 V 13.549 H 0 Z" style="fill:#a5d8ff;fill-opacity:1;fill-rule:nonzero;stroke:none" id="path354"/>
          </g>
          <text xml:space="preserve" transform="matrix(1,0,0,-1,319.898,465.156)" style="font-variant:normal;font-weight:normal;font-size:10.9091px;font-family:LMRoman10;-inkscape-font-specification:LMRoman10-Regular;writing-mode:lr-tb;fill:#000000;fill-opacity:1;fill-rule:nonzero;stroke:none" id="text358"><tspan x="0 5.4545498 8.4850979 13.939648 36.576031 42.030579 45.061127 50.515678 73.152061 78.606613 81.637161 87.091705" y="0" id="tspan356">4.183.982.58</tspan></text>
          <g id="g360" transform="translate(420.846,461.091)">
            <path d="M 0,0 H 36.955 V 13.549 H 0 Z" style="fill:#ffc9c9;fill-opacity:1;fill-rule:nonzero;stroke:none" id="path362"/>
          </g>
          <text xml:space="preserve" transform="matrix(1,0,0,-1,429.626,465.156)" style="font-variant:normal;font-weight:normal;font-size:10.9091px;font-family:LMRoman10;-inkscape-font-specification:LMRoman10-Regular;writing-mode:lr-tb;fill:#000000;fill-opacity:1;fill-rule:nonzero;stroke:none" id="text366"><tspan x="0 5.4545498 8.4850979 13.939648" y="0" id="tspan364">4.64</tspan></text>
          <g id="g368" transform="translate(457.8,461.091)">
            <path d="M 0,0 H 36.197 V 13.549 H 0 Z" style="fill:#a5d8ff;fill-opacity:1;fill-rule:nonzero;stroke:none" id="path370"/>
          </g>
          <text xml:space="preserve" transform="matrix(1,0,0,-1,466.202,465.156)" style="font-variant:normal;font-weight:normal;font-size:10.9091px;font-family:LMRoman10;-inkscape-font-specification:LMRoman10-Regular;writing-mode:lr-tb;fill:#000000;fill-opacity:1;fill-rule:nonzero;stroke:none" id="text374"><tspan x="0 5.4545498 8.4850979 13.939648 36.576031 42.030579 45.061127 50.515678" y="0" id="tspan372">4.384.31</tspan></text>
          <g id="g376" transform="translate(530.952,461.091)">
            <path d="M 0,0 H 36.197 V 13.549 H 0 Z" style="fill:#a5d8ff;fill-opacity:1;fill-rule:nonzero;stroke:none" id="path378"/>
          </g>
          <text xml:space="preserve" transform="matrix(1,0,0,-1,539.354,465.156)" style="font-variant:normal;font-weight:normal;font-size:10.9091px;font-family:LMRoman10;-inkscape-font-specification:LMRoman10-Regular;writing-mode:lr-tb;fill:#000000;fill-opacity:1;fill-rule:nonzero;stroke:none" id="text382"><tspan x="0 5.4545498 8.4850979 13.939648" y="0" id="tspan380">3.77</tspan></text>
          <text xml:space="preserve" transform="matrix(1,0,0,-1,573.127,465.156)" style="font-variant:normal;font-weight:bold;font-size:10.9091px;font-family:LMRoman10;-inkscape-font-specification:LMRoman10-Bold;writing-mode:lr-tb;fill:#000000;fill-opacity:1;fill-rule:nonzero;stroke:none" id="text386"><tspan x="0 6.2727327 9.7570992 16.029831" y="0" id="tspan384">4.04</tspan></text>
          <g id="g388" transform="translate(129.435,460.891)">
            <path d="M 0,0 H 471.973" style="fill:none;stroke:#000000;stroke-width:0.398;stroke-linecap:butt;stroke-linejoin:miter;stroke-miterlimit:10;stroke-dasharray:none;stroke-opacity:1" id="path390"/>
          </g>
          <g id="g392" transform="translate(125.798,574.129)"/>
        </g>
      </g>
    </g>
  </g>
</svg>