<svg xmlns="http://www.w3.org/2000/svg" xmlns:svg="http://www.w3.org/2000/svg" version="1.1" id="svg2" viewBox="167.29 405.2 479.08 254.86">
  <defs id="defs6"/>
  <g id="g8" transform="matrix(1.3333333,0,0,-1.3333333,0,1056)">
    <g id="g10" transform="translate(125.798,390.864)">
      <g id="g12" transform="scale(0.61006)">
        <g id="g14" transform="translate(0,158.85)">
          <path d="M 0,0 H 587.898" style="fill:none;stroke:#000000;stroke-width:0.873;stroke-linecap:butt;stroke-linejoin:miter;stroke-miterlimit:10;stroke-dasharray:none;stroke-opacity:1" id="path16"/>
        </g>
        <g id="g18" transform="translate(-125.798,-390.864)">
          <text xml:space="preserve" transform="matrix(1,0,0,-1,131.776,536.741)" style="font-variant:normal;font-weight:bold;font-size:10.9091px;font-family:LMRoman10;-inkscape-font-specification:LMRoman10-Bold;writing-mode:lr-tb;fill:#000000;fill-opacity:1;fill-rule:nonzero;stroke:none" id="text22"><tspan x="0 9.0610981 16.030922 19.515289 24.393839 31.363663 36.530212 56.298592 65.025871 71.995697 77.74588 88.200073 93.950256" y="0" id="tspan20">CultureThemes</tspan></text>
          <g id="g24" transform="translate(125.798,530.524)">
            <path d="M 0,0 H 587.898" style="fill:none;stroke:#000000;stroke-width:0.545;stroke-linecap:butt;stroke-linejoin:miter;stroke-miterlimit:10;stroke-dasharray:none;stroke-opacity:1" id="path26"/>
          </g>
          <text xml:space="preserve" transform="matrix(1,0,0,-1,131.776,517.714)" style="font-variant:normal;font-weight:bold;font-size:10.9091px;font-family:LMRoman10;-inkscape-font-specification:LMRoman10-Bold;writing-mode:lr-tb;fill:#000000;fill-opacity:1;fill-rule:nonzero;stroke:none" id="text30"><tspan x="0 9.4843712 14.650921 20.749107 27.718933 31.203299 56.295319 68.204781 73.954971 80.586609 85.465164 91.563347 99.225899 109.04409 114.79428 120.89246 124.37683 129.25539 140.4034 145.16084 151.78159 157.70522 163.80341 167.28778 170.77214 177.74197 183.84015 188.7187 192.21397 198.48671 205.45653" y="0" id="tspan28">ArabicMentalHealthInvalidation:</tspan></text>
          <text xml:space="preserve" transform="matrix(1,0,0,-1,345.561,517.714)" style="font-style:italic;font-variant:normal;font-size:10.9091px;font-family:LMRoman10;-inkscape-font-specification:LMRoman10-Italic;writing-mode:lr-tb;fill:#000000;fill-opacity:1;fill-rule:nonzero;stroke:none" id="text34"><tspan x="0 8.9214621 13.939648 20.072744 23.696747 29.272388 35.965122 41.54076 46.002583 51.578224 54.365501 57.989502 67.470604 70.816422 79.1717 82.517525 88.372437 92.833168 100.36263 104.82336 109.28518 114.30337 124.34192 129.91756 138.27284 147.75394 153.32959 158.90523 164.48087 168.94159" y="0" id="tspan32">mentalhealthisjustseenasaphase</tspan></text>
          <text xml:space="preserve" transform="matrix(1,0,0,-1,188.076,504.165)" style="font-variant:normal;font-weight:bold;font-size:10.9091px;font-family:LMRoman10;-inkscape-font-specification:LMRoman10-Bold;writing-mode:lr-tb;fill:#000000;fill-opacity:1;fill-rule:nonzero;stroke:none" id="text38"><tspan x="0 9.4090986 15.159286 18.643652 22.128019 28.400751 31.885117 38.157848 49.316769 58.741138 65.01387 70.764061 80.108795 92.018257 97.768448 104.38918 109.26773 115.36591 123.02847 132.84665 138.59685 144.69502 148.1794 153.05795 160.02777" y="0" id="tspan36">ReligionOverMentalHealth:</tspan></text>
          <text xml:space="preserve" transform="matrix(1,0,0,-1,356.44,504.165)" style="font-style:italic;font-variant:normal;font-size:10.9091px;font-family:LMRoman10;-inkscape-font-specification:LMRoman10-Italic;writing-mode:lr-tb;fill:#000000;fill-opacity:1;fill-rule:nonzero;stroke:none" id="text42"><tspan x="0 3.3458209 6.6916418 10.037463 15.613104 19.240379 25.922203 29.557116 35.132755 40.150944 49.341858 53.802589 59.378231 68.580055 71.92588 80.292068 88.402985 91.748802 96.210625 101.22881 107.91064 111.53464 117.11028 120.4561 128.8223 136.0703 141.64594 150.84776 155.30959 159.77141 164.23323 169.80887 175.66379 180.12451 189.03725 197.14816 202.7238 208.29945 213.31981 216.66563 224.1951 229.77074 233.81474 239.39038" y="0" id="tspan40">...alltheysayisIfeelthiswaybecauseIdon’tpray</tspan></text>
          <text xml:space="preserve" transform="matrix(1,0,0,-1,188.076,490.616)" style="font-variant:normal;font-weight:bold;font-size:10.9091px;font-family:LMRoman10;-inkscape-font-specification:LMRoman10-Bold;writing-mode:lr-tb;fill:#000000;fill-opacity:1;fill-rule:nonzero;stroke:none" id="text46"><tspan x="0 7.5458245 17.409832 26.333477 35.060757 44.485126 58.420414 67.829514 73.579697 77.413155 83.163345 88.738983 93.617531 97.101898 103.37463 110.34445" y="0" id="tspan44">LGBTQ+Rejection:</tspan></text>
          <text xml:space="preserve" transform="matrix(1,0,0,-1,306.759,490.616)" style="font-style:italic;font-variant:normal;font-size:10.9091px;font-family:LMRoman10;-inkscape-font-specification:LMRoman10-Italic;writing-mode:lr-tb;fill:#000000;fill-opacity:1;fill-rule:nonzero;stroke:none" id="text50"><tspan x="0 4.461822 10.037463 18.958925 27.882568 33.45821 39.313122 46.831676 50.177498 53.523315 61.887325 67.462967 75.829155 80.847343 86.422981 95.624809 98.970627 102.31645 110.68046 118.79137 126.03938 131.61502 139.97029 146.10339 151.67903 159.2085 168.12996 173.14815 180.67761 187.92561 191.27144 194.89543 204.37654 209.95218 214.414 218.87582 223.894 229.46965 233.09364 238.6693 244.80238 249.26421" y="0" id="tspan48">cameout...asgay...Iwasnotmetwithacceptance</tspan></text>
          <text xml:space="preserve" transform="matrix(1,0,0,-1,188.076,477.067)" style="font-variant:normal;font-weight:bold;font-size:10.9091px;font-family:LMRoman10;-inkscape-font-specification:LMRoman10-Bold;writing-mode:lr-tb;fill:#000000;fill-opacity:1;fill-rule:nonzero;stroke:none" id="text54"><tspan x="0 9.8640079 15.614195 22.584019 29.553843 35.304028 44.648766 54.057861 60.330597 63.81496 69.565147 74.513519" y="0" id="tspan52">GenderRoles:</tspan></text>
          <text xml:space="preserve" transform="matrix(1,0,0,-1,270.927,477.067)" style="font-style:italic;font-variant:normal;font-size:10.9091px;font-family:LMRoman10;-inkscape-font-specification:LMRoman10-Italic;writing-mode:lr-tb;fill:#000000;fill-opacity:1;fill-rule:nonzero;stroke:none" id="text58"><tspan x="0 3.3458209 6.6916418 10.037463 15.055649 20.116381 25.135656 29.597479 34.615665 38.23967 46.594948 56.076046 63.324051 68.899696 77.821159 83.396797 93.435349 97.059357 106.54045 112.1161 117.13428 122.15356 127.17175 133.30484 142.78593 146.13176 151.97577 155.60304 158.39032 167.59213 173.16779 183.20633 192.68744 201.6089 207.18454 217.21217 222.78783 228.92091 238.40202 243.97766 248.99585 257.50168 260.8475 266.42313 275.3446 278.6904 281.47769" y="0" id="tspan56">...expectsawomantodependfullyonamanandherfamily</tspan></text>
          <text xml:space="preserve" transform="matrix(1,0,0,-1,188.076,463.518)" style="font-variant:normal;font-weight:bold;font-size:10.9091px;font-family:LMRoman10;-inkscape-font-specification:LMRoman10-Bold;writing-mode:lr-tb;fill:#000000;fill-opacity:1;fill-rule:nonzero;stroke:none" id="text62"><tspan x="0 6.9698238 11.848373 17.014923 20.49929 26.07493 35.131664 43.358219 49.456406 54.622955 60.373142 67.004784 71.883331 75.367699 82.337524 88.610252" y="0" id="tspan60">StrictParenting:</tspan></text>
          <text xml:space="preserve" transform="matrix(1,0,0,-1,285.015,463.518)" style="font-style:italic;font-variant:normal;font-size:10.9091px;font-family:LMRoman10;-inkscape-font-specification:LMRoman10-Italic;writing-mode:lr-tb;fill:#000000;fill-opacity:1;fill-rule:nonzero;stroke:none" id="text66"><tspan x="0 8.9214621 18.123287 23.698929 29.27457 38.755669 42.10149 50.456768 55.474957 60.535686 64.159691 68.20369 73.221878 82.143341 87.16153 89.948799 99.150627 103.61136 107.23536 111.83573 115.18155 120.19974" y="0" id="tspan64">mydadisextremelystrict</tspan></text>
          <g id="g68" transform="translate(125.798,457.301)">
            <path d="M 0,0 H 587.898" style="fill:none;stroke:#000000;stroke-width:0.545;stroke-linecap:butt;stroke-linejoin:miter;stroke-miterlimit:10;stroke-dasharray:none;stroke-opacity:1" id="path70"/>
          </g>
          <text xml:space="preserve" transform="matrix(1,0,0,-1,131.776,444.491)" style="font-variant:normal;font-weight:bold;font-size:10.9091px;font-family:LMRoman10;-inkscape-font-specification:LMRoman10-Bold;writing-mode:lr-tb;fill:#000000;fill-opacity:1;fill-rule:nonzero;stroke:none" id="text74"><tspan x="0 9.0610981 16.030922 19.515289 26.485113 32.235298 37.183666 56.297501 68.206963 73.957153 80.577888 85.456436 91.554619 99.228081 109.04627 114.79646 120.89465 124.37901 129.25757 140.40558 145.16302 151.78377 157.7074 163.80559 167.28996 170.77432 177.74414 183.84233 188.72089 192.20525 198.47798 205.44781" y="0" id="tspan72">ChineseMentalHealthInvalidation:</tspan></text>
          <text xml:space="preserve" transform="matrix(1,0,0,-1,345.561,444.491)" style="font-style:italic;font-variant:normal;font-size:10.9091px;font-family:LMRoman10;-inkscape-font-specification:LMRoman10-Italic;writing-mode:lr-tb;fill:#000000;fill-opacity:1;fill-rule:nonzero;stroke:none" id="text78"><tspan x="0 8.2363701 13.254557 18.830198 22.874201 27.892387 32.353119 36.81385 40.159668 45.73531 55.773865 61.349506 66.357872 71.37606 75.836792 80.857155 84.20298 91.732437 96.750626 101.81136 105.15718 109.61791" y="0" id="tspan76">Depressiondoesn’texist</tspan></text>
          <text xml:space="preserve" transform="matrix(1,0,0,-1,188.076,430.942)" style="font-variant:normal;font-weight:bold;font-size:10.9091px;font-family:LMRoman10;-inkscape-font-specification:LMRoman10-Bold;writing-mode:lr-tb;fill:#000000;fill-opacity:1;fill-rule:nonzero;stroke:none" id="text82"><tspan x="0 8.4370975 14.187284 19.353834 26.323658 32.421844 40.095306 49.579678 56.549503 63.519325 68.467697 74.21788" y="0" id="tspan80">VerbalAbuse:</tspan></text>
          <text xml:space="preserve" transform="matrix(1,0,0,-1,270.622,430.942)" style="font-style:italic;font-variant:normal;font-size:10.9091px;font-family:LMRoman10;-inkscape-font-specification:LMRoman10-Italic;writing-mode:lr-tb;fill:#000000;fill-opacity:1;fill-rule:nonzero;stroke:none" id="text86"><tspan x="0 3.3458209 6.6916418 10.037463 15.055649 23.977112 29.552752 33.176754 36.522575 42.098217 48.231312 53.806953 57.434231 60.221504 69.423332 74.99897 80.017159 85.86116 90.321892 99.245537 108.167 117.09064 120.43646 123.78229 132.14629 137.72194 143.29758 154.45103 163.3725 169.22742 174.24561 183.71579 189.29143 196.54271 206.0238 209.36963 214.94527 218.29109 221.07837 226.93327 230.97728 239.90092 245.47656 251.60966 261.07986 270.00131 273.34714 277.80786 281.43188 287.00751 292.0257 300.94934 309.06027 314.63589" y="0" id="tspan84">...emotionallyabuseme...howmuchofafailureandmistakeIam</tspan></text>
          <text xml:space="preserve" transform="matrix(1,0,0,-1,188.076,417.393)" style="font-variant:normal;font-weight:bold;font-size:10.9091px;font-family:LMRoman10;-inkscape-font-specification:LMRoman10-Bold;writing-mode:lr-tb;fill:#000000;fill-opacity:1;fill-rule:nonzero;stroke:none" id="text90"><tspan x="0 9.8640079 15.614195 22.584019 29.553843 35.304028 44.648766 50.746952 57.716774 68.875694 73.633156 80.602974 86.353165 92.973892 97.852448 101.33681 105.86627 116.66628 121.42374 126.37211 131.32048 138.2903 144.04048 148.98885" y="0" id="tspan88">GenderandIdentityIssues:</tspan></text>
          <text xml:space="preserve" transform="matrix(1,0,0,-1,345.399,417.393)" style="font-style:italic;font-variant:normal;font-size:10.9091px;font-family:LMRoman10;-inkscape-font-specification:LMRoman10-Italic;writing-mode:lr-tb;fill:#000000;fill-opacity:1;fill-rule:nonzero;stroke:none" id="text94"><tspan x="0 7.5523701 12.013101 15.358922 20.934563 30.973116 39.894577 44.912766 54.940411 60.516052 64.560051 73.483696 77.944427 82.40625 87.424438 97.46299 103.03863 111.40482 117.53792 123.11356 129.24666 133.14993 142.0714 147.64703 152.10776 157.12595 162.96996 165.76814 169.11395 175.24706 184.15979 187.50562 190.85143 199.21544 206.46344 210.92526 216.5009" y="0" id="tspan92">Asianmenareseenasnon-masculine...weak</tspan></text>
          <text xml:space="preserve" transform="matrix(1,0,0,-1,188.076,403.844)" style="font-variant:normal;font-weight:bold;font-size:10.9091px;font-family:LMRoman10;-inkscape-font-specification:LMRoman10-Bold;writing-mode:lr-tb;fill:#000000;fill-opacity:1;fill-rule:nonzero;stroke:none" id="text98"><tspan x="0 6.8465509 12.944738 23.398928 26.883295 30.367662 41.178581 50.799316 57.421139 64.390961 70.489151 80.943336 84.427704 90.003349 94.951714" y="0" id="tspan96">FamilyDynamics:</tspan></text>
          <text xml:space="preserve" transform="matrix(1,0,0,-1,291.356,403.844)" style="font-style:italic;font-variant:normal;font-size:10.9091px;font-family:LMRoman10;-inkscape-font-specification:LMRoman10-Italic;writing-mode:lr-tb;fill:#000000;fill-opacity:1;fill-rule:nonzero;stroke:none" id="text102"><tspan x="0 4.2054582 11.734919 15.08074 19.542562 24.560747 27.348022 35.714211 38.501488 41.847309 46.865494 55.778229 60.23896 65.814598 74.738243 80.313889 86.446983 89.234253 98.436081 101.22336 104.56918 109.58736 114.60555 122.97174 128.54738 133.56557 142.0714 144.85867 148.20448 151.55031 160.46304 163.80887 169.38451 177.89034 186.8118" y="0" id="tspan100">Itfeelslikesheonlylivesherlifeforme</tspan></text>
          <text xml:space="preserve" transform="matrix(1,0,0,-1,188.076,390.294)" style="font-variant:normal;font-weight:bold;font-size:10.9091px;font-family:LMRoman10;-inkscape-font-specification:LMRoman10-Bold;writing-mode:lr-tb;fill:#000000;fill-opacity:1;fill-rule:nonzero;stroke:none" id="text106"><tspan x="0 6.9698238 11.848373 17.014923 20.49929 26.07493 35.131664 43.358219 49.456406 54.622955 60.373142 67.004784 71.883331 75.367699 82.337524 88.610252" y="0" id="tspan104">StrictParenting:</tspan></text>
          <text xml:space="preserve" transform="matrix(1,0,0,-1,285.015,390.294)" style="font-style:italic;font-variant:normal;font-size:10.9091px;font-family:LMRoman10;-inkscape-font-specification:LMRoman10-Italic;writing-mode:lr-tb;fill:#000000;fill-opacity:1;fill-rule:nonzero;stroke:none" id="text110"><tspan x="0 8.1109161 10.89819 14.244012 19.262197 28.185843 35.433849 38.779667 42.403671 51.873863 60.795322 69.997147 73.621155 76.966972 81.985161 87.003342 95.509171 100.52845 106.10409 110.14809 115.16628 121.29938 124.92338" y="0" id="tspan108">Ilivewithmytigerparents</tspan></text>
          <g id="g112" transform="translate(125.798,384.078)">
            <path d="M 0,0 H 587.898" style="fill:none;stroke:#000000;stroke-width:0.545;stroke-linecap:butt;stroke-linejoin:miter;stroke-miterlimit:10;stroke-dasharray:none;stroke-opacity:1" id="path114"/>
          </g>
          <text xml:space="preserve" transform="matrix(1,0,0,-1,131.776,371.268)" style="font-variant:normal;font-weight:bold;font-size:10.9091px;font-family:LMRoman10;-inkscape-font-specification:LMRoman10-Bold;writing-mode:lr-tb;fill:#000000;fill-opacity:1;fill-rule:nonzero;stroke:none" id="text118"><tspan x="0 9.8640079 15.614195 20.780745 31.234936 37.333122 56.302956 65.712051 71.462242 74.946609 81.044792 85.923347 89.407707 95.680443 102.65027 107.59863 114.56846 118.05283 125.02265 134.1492 140.24739 147.21721 158.37613 166.61795 177.07214 183.34488 188.22343 191.70779 197.98053 204.95035 211.04854 218.71109 228.33183 234.95364 241.92348 248.02167 258.47586 261.96021 267.53586 272.48422" y="0" id="tspan116">GermanRelationshipsandEmotionalDynamics:</tspan></text>
          <text xml:space="preserve" transform="matrix(1,0,0,-1,412.594,371.268)" style="font-style:italic;font-variant:normal;font-size:10.9091px;font-family:LMRoman10;-inkscape-font-specification:LMRoman10-Italic;writing-mode:lr-tb;fill:#000000;fill-opacity:1;fill-rule:nonzero;stroke:none" id="text122"><tspan x="0 8.9214621 18.123287 23.142565 28.718206 33.318573 36.942577 43.075672 48.093857 56.588776 62.72187 67.183693 71.645515 77.221153 85.587341 89.211349 92.557167 101.47863 110.40228 114.02628 123.50738 129.08302 133.1161 138.13539 142.59721 147.6154 152.07613 160.44232 165.46049 174.38196 179.95761 183.5816 186.92743 192.50307 198.63617" y="0" id="tspan120">mypartnerneedstimetoprocessemotions</tspan></text>
          <text xml:space="preserve" transform="matrix(1,0,0,-1,188.076,357.719)" style="font-variant:normal;font-weight:bold;font-size:10.9091px;font-family:LMRoman10;-inkscape-font-specification:LMRoman10-Bold;writing-mode:lr-tb;fill:#000000;fill-opacity:1;fill-rule:nonzero;stroke:none" id="text126"><tspan x="0 11.909465 17.659651 24.280384 29.158934 35.257122 42.919674 52.737862 58.488049 64.586235 68.081512 72.96006 84.10807 90.206261 97.176079 108.32409 117.38519 123.65792 130.62775 134.11211 141.08194 147.35468" y="0" id="tspan124">MentalHealthandCoping:</tspan></text>
          <text xml:space="preserve" transform="matrix(1,0,0,-1,343.766,357.719)" style="font-style:italic;font-variant:normal;font-size:10.9091px;font-family:LMRoman10;-inkscape-font-specification:LMRoman10-Italic;writing-mode:lr-tb;fill:#000000;fill-opacity:1;fill-rule:nonzero;stroke:none" id="text130"><tspan x="0 8.1109161 11.456737 15.918559 20.936745 27.629478 32.647663 37.708397 43.284035 48.859676 54.703682 59.164413 62.799324 67.250237 76.731339 80.077156 84.121162 89.6968 102.52372 108.09937 112.14336 117.16155 120.78555 125.80374 131.93684 137.51248 140.85829 146.99139 155.90413 159.52814 169.00923 173.47105 182.3947 187.97034 192.98853 198.56416" y="0" id="tspan128">Ifeelexhaustedfrompretendingtobeokay</tspan></text>
          <text xml:space="preserve" transform="matrix(1,0,0,-1,188.076,344.17)" style="font-variant:normal;font-weight:bold;font-size:10.9091px;font-family:LMRoman10;-inkscape-font-specification:LMRoman10-Bold;writing-mode:lr-tb;fill:#000000;fill-opacity:1;fill-rule:nonzero;stroke:none" id="text134"><tspan x="0 6.8465509 12.944738 23.398928 26.883295 30.367662 41.178581 47.276768 54.24659 65.3946 74.455696 81.425522 84.909889 88.394257 95.364082 102.3339 108.95573 115.57755 126.72556 134.40556 139.57211 145.6703 152.64012 163.09431 169.1925" y="0" id="tspan132">FamilyandChildhoodTrauma:</tspan></text>
          <text xml:space="preserve" transform="matrix(1,0,0,-1,365.606,344.17)" style="font-style:italic;font-variant:normal;font-size:10.9091px;font-family:LMRoman10;-inkscape-font-specification:LMRoman10-Italic;writing-mode:lr-tb;fill:#000000;fill-opacity:1;fill-rule:nonzero;stroke:none" id="text138"><tspan x="0 8.9214621 18.123287 23.142565 28.718206 32.762211 37.780396 43.91349 47.537495 55.892773 61.468414 64.81424 69.83242 75.408066 79.452065 83.913887 88.37571 97.856812 105.10481 110.68046 115.69864 125.7372 133.8372 141.08521 146.66084 155.02704 160.32341 165.89905 171.75397 177.88705 186.8107 190.15652 193.50235 201.86635 205.21217 212.74164 217.75981 221.80382 227.37946 232.39764 241.31038 250.23184" y="0" id="tspan136">myparentsdivorcedwhenIwasyoung...itbrokeme</tspan></text>
          <text xml:space="preserve" transform="matrix(1,0,0,-1,188.076,330.621)" style="font-variant:normal;font-weight:bold;font-size:10.9091px;font-family:LMRoman10;-inkscape-font-specification:LMRoman10-Bold;writing-mode:lr-tb;fill:#000000;fill-opacity:1;fill-rule:nonzero;stroke:none" id="text142"><tspan x="0 6.9698238 13.591648 19.167288 22.651655 28.749842 36.412395 41.169853 46.118221 52.390953 55.87532 61.973507 66.852058 70.336426 76.609154 83.578979" y="0" id="tspan140">SocialIsolation:</tspan></text>
          <text xml:space="preserve" transform="matrix(1,0,0,-1,279.994,330.621)" style="font-style:italic;font-variant:normal;font-size:10.9091px;font-family:LMRoman10;-inkscape-font-specification:LMRoman10-Italic;writing-mode:lr-tb;fill:#000000;fill-opacity:1;fill-rule:nonzero;stroke:none" id="text146"><tspan x="0 5.5756412 10.176008 13.52183 19.654926 24.673111 28.018932 34.152027 43.075672 46.421494 54.776772 58.400776 63.976418 72.900063 78.4757 84.608795 87.396072 96.5979 103.8459 109.42155 118.62337 126.73429 131.19502 136.77066 145.69212 150.71031 154.3343 157.68013 166.60159 171.61978 179.98596 184.43687 190.01253 196.14561 202.27872 206.74054 211.75873 219.28818 223.74892 228.76819 233.78638 237.1322 242.70784 246.33511 249.12239" y="0" id="tspan144">drinkingistheonlywayIsometimesconnectsocially</tspan></text>
          <text xml:space="preserve" transform="matrix(1,0,0,-1,188.076,317.071)" style="font-variant:normal;font-weight:bold;font-size:10.9091px;font-family:LMRoman10;-inkscape-font-specification:LMRoman10-Bold;writing-mode:lr-tb;fill:#000000;fill-opacity:1;fill-rule:nonzero;stroke:none" id="text150"><tspan x="0 7.8938246 11.378191 18.348015 24.446201 31.416027 36.991669 40.476032 46.574219 54.247681 61.217506 66.096054 71.251694 77.001884 81.950249 86.898621" y="0" id="tspan148">FinancialStress:</tspan></text>
          <text xml:space="preserve" transform="matrix(1,0,0,-1,283.313,317.071)" style="font-style:italic;font-variant:normal;font-size:10.9091px;font-family:LMRoman10;-inkscape-font-specification:LMRoman10-Italic;writing-mode:lr-tb;fill:#000000;fill-opacity:1;fill-rule:nonzero;stroke:none" id="text154"><tspan x="0 4.2054582 7.5512791 20.378199 25.95384 35.992393 40.453125 45.461491 50.479679 53.8255 59.401142 66.093872 73.341881 78.360062 81.147339 84.493164 90.068802 94.112808 103.03645 108.61209 114.74519 124.22629 127.57211 132.03394 137.05211 143.73393 149.30959 153.77031 159.34595 164.92159 173.84305 178.30487" y="0" id="tspan152">I’monsocialwelfareandfeelashamed</tspan></text>
          <g id="g156" transform="translate(125.798,310.855)">
            <path d="M 0,0 H 587.898" style="fill:none;stroke:#000000;stroke-width:0.545;stroke-linecap:butt;stroke-linejoin:miter;stroke-miterlimit:10;stroke-dasharray:none;stroke-opacity:1" id="path158"/>
          </g>
          <text xml:space="preserve" transform="matrix(1,0,0,-1,131.776,298.045)" style="font-variant:normal;font-weight:bold;font-size:10.9091px;font-family:LMRoman10;-inkscape-font-specification:LMRoman10-Bold;writing-mode:lr-tb;fill:#000000;fill-opacity:1;fill-rule:nonzero;stroke:none" id="text162"><tspan x="0 6.4843693 12.234555 21.295654 24.78002 29.728388 56.301865 65.362961 71.635696 82.08989 92.194984 99.16481 106.13464 109.619 114.14846 124.94847 131.04666 138.01648 149.1754 156.14522 162.76704 168.34268 171.82706 177.92523 185.58778 192.55762 197.43616 200.92053 207.19327 217.64746 223.74564" y="0" id="tspan160">JewishCommunityandSocialStigma:</tspan></text>
          <text xml:space="preserve" transform="matrix(1,0,0,-1,363.855,298.045)" style="font-style:italic;font-variant:normal;font-size:10.9091px;font-family:LMRoman10;-inkscape-font-specification:LMRoman10-Italic;writing-mode:lr-tb;fill:#000000;fill-opacity:1;fill-rule:nonzero;stroke:none" id="text166"><tspan x="0 4.2054582 14.244012 23.165474 32.367298 36.829121 42.404762 51.326225 60.247688 66.1026 72.235695 75.58152 79.205521 88.396439 97.877533 102.89572 106.93973 112.51537 117.53355 122.55173 132.59029 137.60847 143.74158 148.75977 154.3354 159.35359 164.37178 173.29323 178.31142 184.44452 191.97398 195.31979 203.67508 207.0209 210.36671 218.73073 228.21182 237.13329 242.70892 246.05475 251.63039 260.13623 265.15439 274.07587 278.53769 284.11334 288.71368 292.7468 298.32242 302.78317 307.2439 316.16534 321.18353 327.31665" y="0" id="tspan164">Inmycommunityabrokenengagementis...amajorembarrassment</tspan></text>
          <text xml:space="preserve" transform="matrix(1,0,0,-1,188.076,284.496)" style="font-variant:normal;font-weight:bold;font-size:10.9091px;font-family:LMRoman10;-inkscape-font-specification:LMRoman10-Bold;writing-mode:lr-tb;fill:#000000;fill-opacity:1;fill-rule:nonzero;stroke:none" id="text170"><tspan x="0 8.226552 13.976739 19.14329 24.091656 30.364389 37.334213 43.4324 51.094952 58.064777 65.034599 68.529877 73.696426 77.180794 82.059341 89.029167 95.12735 102.7899 111.36555 116.5321 122.63029 128.20593 133.08447 136.56885 142.14449 147.89467" y="0" id="tspan168">PersonalSpiritualPractice:</tspan></text>
          <text xml:space="preserve" transform="matrix(1,0,0,-1,344.304,284.496)" style="font-style:italic;font-variant:normal;font-size:10.9091px;font-family:LMRoman10;-inkscape-font-specification:LMRoman10-Italic;writing-mode:lr-tb;fill:#000000;fill-opacity:1;fill-rule:nonzero;stroke:none" id="text174"><tspan x="0 5.5756412 10.036372 18.960016 23.978201 28.997478 38.467667 42.091671 51.572769 57.148411 62.166595 64.953873 74.434975 78.058975 83.634613 89.210258 93.67099 102.59463 110.70554 113.49282 119.06847 124.08665 132.99939 138.57503 144.70811 154.18922 157.81322 163.38887 172.3125 177.33179 181.79361 187.36925 192.94489 195.73216 204.65581 210.23145 214.26454 219.84018 225.6951 231.82819 241.3093 250.23076" y="0" id="tspan172">askgodtohelpthoseIloveandthepeoplearoundme</tspan></text>
          <text xml:space="preserve" transform="matrix(1,0,0,-1,188.076,270.947)" style="font-variant:normal;font-weight:bold;font-size:10.9091px;font-family:LMRoman10;-inkscape-font-specification:LMRoman10-Bold;writing-mode:lr-tb;fill:#000000;fill-opacity:1;fill-rule:nonzero;stroke:none" id="text178"><tspan x="0 9.0610981 15.333831 21.954563 28.227297 33.977482 39.144032 44.0924 47.576767 53.849499 64.997505 71.095695 78.065521 89.224442 93.981895 100.95172 106.7019 113.32264 118.20119 121.68555 126.21501 132.83684" y="0" id="tspan176">ConversionandIdentity:</tspan></text>
          <text xml:space="preserve" transform="matrix(1,0,0,-1,329.245,270.947)" style="font-style:italic;font-variant:normal;font-size:10.9091px;font-family:LMRoman10;-inkscape-font-specification:LMRoman10-Italic;writing-mode:lr-tb;fill:#000000;fill-opacity:1;fill-rule:nonzero;stroke:none" id="text182"><tspan x="0 8.1109161 13.686557 19.262197 24.280384 33.204029 42.674217 45.461491 51.037132 57.170231 66.093872 71.669518 75.015335 79.476067 83.100067 88.675713 93.276077 102.47791 108.05354 115.30482 119.76665 124.78483 128.13065 134.26375 143.17648 146.80049 152.37613 155.16341 164.6445 168.26851 173.84415 182.76779 186.11362 195.03506 200.05435 205.62999 210.23036 213.85435 219.43001 225.5631 230.02492 238.94856 244.5242 251.76457 256.78275 261.84351 267.41913 272.43732 279.96677 285.54242 291.11807 293.90533 299.48099 304.49918 310.0748 313.42062 322.34427 327.91992 333.49554 339.0712 344.08939 348.13339 353.15158 359.28467 363.74649" y="0" id="tspan180">Ihavealonghistoryofbeingtoldtheimportanceofexacthalachicadherence</tspan></text>
          <text xml:space="preserve" transform="matrix(1,0,0,-1,188.076,257.397)" style="font-variant:normal;font-weight:bold;font-size:10.9091px;font-family:LMRoman10;-inkscape-font-specification:LMRoman10-Bold;writing-mode:lr-tb;fill:#000000;fill-opacity:1;fill-rule:nonzero;stroke:none" id="text186"><tspan x="0 9.8640079 15.614195 22.584019 29.553843 35.304028 44.648766 54.057861 60.330597 63.81496 69.565147 74.513519" y="0" id="tspan184">GenderRoles:</tspan></text>
          <text xml:space="preserve" transform="matrix(1,0,0,-1,270.927,257.397)" style="font-style:italic;font-variant:normal;font-size:10.9091px;font-family:LMRoman10;-inkscape-font-specification:LMRoman10-Italic;writing-mode:lr-tb;fill:#000000;fill-opacity:1;fill-rule:nonzero;stroke:none" id="text190"><tspan x="0 3.3458209 6.6916418 10.037463 18.958925 23.977112 34.015663 39.591305 45.166946 50.185131 59.097866 68.019333 73.594971 77.638977 86.562614 90.606621 95.624809 100.08554 105.10481 110.68046 116.81355 121.27428 124.6201 129.63829 132.98412 135.77139 139.1172 142.74121 146.08704 151.10521 159.47141 162.81723 166.15215 174.51614 183.43761 189.01324 198.21507 204.34818 209.92381 217.45328 221.9151 230.83875 234.18456 237.53038 245.89439 254.81584 260.67078 265.68893 275.15915 278.50497 284.35986" y="0" id="tspan188">...menhavemoreresponsibilities...maynotbe...muchfun</tspan></text>
          <text xml:space="preserve" transform="matrix(1,0,0,-1,188.076,243.848)" style="font-variant:normal;font-weight:bold;font-size:10.9091px;font-family:LMRoman10;-inkscape-font-specification:LMRoman10-Bold;writing-mode:lr-tb;fill:#000000;fill-opacity:1;fill-rule:nonzero;stroke:none" id="text194"><tspan x="0 9.4090986 15.159286 18.643652 22.128019 28.400751 31.885117 38.157848 49.316769 55.414955 62.384781 73.532791 85.442253 91.192436 97.813171 102.69172 108.78991 116.45246 126.27065 132.02084 138.11902 141.60339 146.48193 153.45177" y="0" id="tspan192">ReligionandMentalHealth:</tspan></text>
          <text xml:space="preserve" transform="matrix(1,0,0,-1,349.864,243.848)" style="font-style:italic;font-variant:normal;font-size:10.9091px;font-family:LMRoman10;-inkscape-font-specification:LMRoman10-Italic;writing-mode:lr-tb;fill:#000000;fill-opacity:1;fill-rule:nonzero;stroke:none" id="text198"><tspan x="0 4.2054582 7.5512791 12.569465 21.493109 25.95384 29.577843 35.153484 39.753853 43.377853 47.839676 57.320774 62.338963 67.914604 71.249512 77.382607 86.306252 89.652077 92.997894 101.3619 105.82263 111.119 117.2521 122.82774 127.84592 132.8652 137.88339 143.7383 152.66194 156.00777 159.35359 167.71759 176.63905 181.10088 186.11906 193.63762 200.88562 204.23145 207.85545 217.33655 220.96054 226.53619 235.45984 239.50383 245.07948 250.09766 255.11584 262.36713 265.71295 271.2886 279.78351 289.26462 294.84024 298.74353 304.31915 310.45227 314.35553 323.83664 328.29736 333.31555 337.77628 342.237 345.58282 351.15848" y="0" id="tspan196">I’vestartedgoing...synagogue...meetwiththerabbifora1-on-1session</tspan></text>
          <g id="g200" transform="translate(125.798,237.468)">
            <path d="M 0,0 H 587.898" style="fill:none;stroke:#000000;stroke-width:0.873;stroke-linecap:butt;stroke-linejoin:miter;stroke-miterlimit:10;stroke-dasharray:none;stroke-opacity:1" id="path202"/>
          </g>
          <g id="g204" transform="translate(125.798,390.864)"/>
        </g>
      </g>
    </g>
  </g>
</svg>