<?xml version="1.0" encoding="utf-8" standalone="no"?>
<!DOCTYPE svg PUBLIC "-//W3C//DTD SVG 1.1//EN"
  "http://www.w3.org/Graphics/SVG/1.1/DTD/svg11.dtd">
<svg xmlns:xlink="http://www.w3.org/1999/xlink" width="1152pt" height="576pt" viewBox="0 0 1152 576" xmlns="http://www.w3.org/2000/svg" version="1.1">
 <metadata>
  <rdf:RDF xmlns:dc="http://purl.org/dc/elements/1.1/" xmlns:cc="http://creativecommons.org/ns#" xmlns:rdf="http://www.w3.org/1999/02/22-rdf-syntax-ns#">
   <cc:Work>
    <dc:type rdf:resource="http://purl.org/dc/dcmitype/StillImage"/>
    <dc:date>2025-07-24T08:53:53.120680</dc:date>
    <dc:format>image/svg+xml</dc:format>
    <dc:creator>
     <cc:Agent>
      <dc:title>Matplotlib v3.10.0, https://matplotlib.org/</dc:title>
     </cc:Agent>
    </dc:creator>
   </cc:Work>
  </rdf:RDF>
 </metadata>
 <defs>
  <style type="text/css">*{stroke-linejoin: round; stroke-linecap: butt}</style>
 </defs>
 <g id="figure_1">
  <g id="patch_1">
   <path d="M 0 576 
L 1152 576 
L 1152 0 
L 0 0 
z
" style="fill: #ffffff"/>
  </g>
  <g id="axes_1">
   <g id="patch_2">
    <path d="M 88.050946 454.678678 
L 524.735113 454.678678 
L 524.735113 18.238125 
L 88.050946 18.238125 
z
" style="fill: #ffffff"/>
   </g>
   <g id="patch_3">
    <path d="M 107.900227 397.751649 
L 124.289541 397.751649 
L 124.289541 390.161379 
L 107.900227 390.161379 
z
" clip-path="url(#p61c72eaf73)" style="fill: #d73027; stroke: #000000; stroke-linejoin: miter"/>
   </g>
   <g id="patch_4">
    <path d="M 198.951971 397.751649 
L 215.341285 397.751649 
L 215.341285 397.751649 
L 198.951971 397.751649 
z
" clip-path="url(#p61c72eaf73)" style="fill: #d73027; stroke: #000000; stroke-linejoin: miter"/>
   </g>
   <g id="patch_5">
    <path d="M 290.003716 397.751649 
L 306.39303 397.751649 
L 306.39303 397.751649 
L 290.003716 397.751649 
z
" clip-path="url(#p61c72eaf73)" style="fill: #d73027; stroke: #000000; stroke-linejoin: miter"/>
   </g>
   <g id="patch_6">
    <path d="M 381.05546 397.751649 
L 397.444774 397.751649 
L 397.444774 397.751649 
L 381.05546 397.751649 
z
" clip-path="url(#p61c72eaf73)" style="fill: #d73027; stroke: #000000; stroke-linejoin: miter"/>
   </g>
   <g id="patch_7">
    <path d="M 472.107205 397.751649 
L 488.496519 397.751649 
L 488.496519 397.751649 
L 472.107205 397.751649 
z
" clip-path="url(#p61c72eaf73)" style="fill: #d73027; stroke: #000000; stroke-linejoin: miter"/>
   </g>
   <g id="patch_8">
    <path d="M 107.900227 390.161379 
L 124.289541 390.161379 
L 124.289541 268.717051 
L 107.900227 268.717051 
z
" clip-path="url(#p61c72eaf73)" style="fill: #fc8d59; stroke: #000000; stroke-linejoin: miter"/>
   </g>
   <g id="patch_9">
    <path d="M 198.951971 397.751649 
L 215.341285 397.751649 
L 215.341285 397.751649 
L 198.951971 397.751649 
z
" clip-path="url(#p61c72eaf73)" style="fill: #fc8d59; stroke: #000000; stroke-linejoin: miter"/>
   </g>
   <g id="patch_10">
    <path d="M 290.003716 397.751649 
L 306.39303 397.751649 
L 306.39303 397.751649 
L 290.003716 397.751649 
z
" clip-path="url(#p61c72eaf73)" style="fill: #fc8d59; stroke: #000000; stroke-linejoin: miter"/>
   </g>
   <g id="patch_11">
    <path d="M 381.05546 397.751649 
L 397.444774 397.751649 
L 397.444774 397.751649 
L 381.05546 397.751649 
z
" clip-path="url(#p61c72eaf73)" style="fill: #fc8d59; stroke: #000000; stroke-linejoin: miter"/>
   </g>
   <g id="patch_12">
    <path d="M 472.107205 397.751649 
L 488.496519 397.751649 
L 488.496519 397.751649 
L 472.107205 397.751649 
z
" clip-path="url(#p61c72eaf73)" style="fill: #fc8d59; stroke: #000000; stroke-linejoin: miter"/>
   </g>
   <g id="patch_13">
    <path d="M 107.900227 268.717051 
L 124.289541 268.717051 
L 124.289541 18.238125 
L 107.900227 18.238125 
z
" clip-path="url(#p61c72eaf73)" style="fill: #fdae61; stroke: #000000; stroke-linejoin: miter"/>
   </g>
   <g id="patch_14">
    <path d="M 198.951971 397.751649 
L 215.341285 397.751649 
L 215.341285 18.238125 
L 198.951971 18.238125 
z
" clip-path="url(#p61c72eaf73)" style="fill: #fdae61; stroke: #000000; stroke-linejoin: miter"/>
   </g>
   <g id="patch_15">
    <path d="M 290.003716 397.751649 
L 306.39303 397.751649 
L 306.39303 397.751649 
L 290.003716 397.751649 
z
" clip-path="url(#p61c72eaf73)" style="fill: #fdae61; stroke: #000000; stroke-linejoin: miter"/>
   </g>
   <g id="patch_16">
    <path d="M 381.05546 397.751649 
L 397.444774 397.751649 
L 397.444774 397.751649 
L 381.05546 397.751649 
z
" clip-path="url(#p61c72eaf73)" style="fill: #fdae61; stroke: #000000; stroke-linejoin: miter"/>
   </g>
   <g id="patch_17">
    <path d="M 472.107205 397.751649 
L 488.496519 397.751649 
L 488.496519 397.751649 
L 472.107205 397.751649 
z
" clip-path="url(#p61c72eaf73)" style="fill: #fdae61; stroke: #000000; stroke-linejoin: miter"/>
   </g>
   <g id="patch_18">
    <path d="M 107.900227 18.238125 
L 124.289541 18.238125 
L 124.289541 18.238125 
L 107.900227 18.238125 
z
" clip-path="url(#p61c72eaf73)" style="fill: #a50026; stroke: #000000; stroke-linejoin: miter"/>
   </g>
   <g id="patch_19">
    <path d="M 198.951971 18.238125 
L 215.341285 18.238125 
L 215.341285 18.238125 
L 198.951971 18.238125 
z
" clip-path="url(#p61c72eaf73)" style="fill: #a50026; stroke: #000000; stroke-linejoin: miter"/>
   </g>
   <g id="patch_20">
    <path d="M 290.003716 397.751649 
L 306.39303 397.751649 
L 306.39303 283.897592 
L 290.003716 283.897592 
z
" clip-path="url(#p61c72eaf73)" style="fill: #a50026; stroke: #000000; stroke-linejoin: miter"/>
   </g>
   <g id="patch_21">
    <path d="M 381.05546 397.751649 
L 397.444774 397.751649 
L 397.444774 268.717051 
L 381.05546 268.717051 
z
" clip-path="url(#p61c72eaf73)" style="fill: #a50026; stroke: #000000; stroke-linejoin: miter"/>
   </g>
   <g id="patch_22">
    <path d="M 472.107205 397.751649 
L 488.496519 397.751649 
L 488.496519 261.12678 
L 472.107205 261.12678 
z
" clip-path="url(#p61c72eaf73)" style="fill: #a50026; stroke: #000000; stroke-linejoin: miter"/>
   </g>
   <g id="patch_23">
    <path d="M 107.900227 18.238125 
L 124.289541 18.238125 
L 124.289541 18.238125 
L 107.900227 18.238125 
z
" clip-path="url(#p61c72eaf73)" style="fill: #de2d26; stroke: #000000; stroke-linejoin: miter"/>
   </g>
   <g id="patch_24">
    <path d="M 198.951971 18.238125 
L 215.341285 18.238125 
L 215.341285 18.238125 
L 198.951971 18.238125 
z
" clip-path="url(#p61c72eaf73)" style="fill: #de2d26; stroke: #000000; stroke-linejoin: miter"/>
   </g>
   <g id="patch_25">
    <path d="M 290.003716 283.897592 
L 306.39303 283.897592 
L 306.39303 101.7311 
L 290.003716 101.7311 
z
" clip-path="url(#p61c72eaf73)" style="fill: #de2d26; stroke: #000000; stroke-linejoin: miter"/>
   </g>
   <g id="patch_26">
    <path d="M 381.05546 268.717051 
L 397.444774 268.717051 
L 397.444774 94.14083 
L 381.05546 94.14083 
z
" clip-path="url(#p61c72eaf73)" style="fill: #de2d26; stroke: #000000; stroke-linejoin: miter"/>
   </g>
   <g id="patch_27">
    <path d="M 472.107205 261.12678 
L 488.496519 261.12678 
L 488.496519 94.14083 
L 472.107205 94.14083 
z
" clip-path="url(#p61c72eaf73)" style="fill: #de2d26; stroke: #000000; stroke-linejoin: miter"/>
   </g>
   <g id="patch_28">
    <path d="M 107.900227 18.238125 
L 124.289541 18.238125 
L 124.289541 18.238125 
L 107.900227 18.238125 
z
" clip-path="url(#p61c72eaf73)" style="fill: #fb6a4a; stroke: #000000; stroke-linejoin: miter"/>
   </g>
   <g id="patch_29">
    <path d="M 198.951971 18.238125 
L 215.341285 18.238125 
L 215.341285 18.238125 
L 198.951971 18.238125 
z
" clip-path="url(#p61c72eaf73)" style="fill: #fb6a4a; stroke: #000000; stroke-linejoin: miter"/>
   </g>
   <g id="patch_30">
    <path d="M 290.003716 101.7311 
L 306.39303 101.7311 
L 306.39303 18.238125 
L 290.003716 18.238125 
z
" clip-path="url(#p61c72eaf73)" style="fill: #fb6a4a; stroke: #000000; stroke-linejoin: miter"/>
   </g>
   <g id="patch_31">
    <path d="M 381.05546 94.14083 
L 397.444774 94.14083 
L 397.444774 18.238125 
L 381.05546 18.238125 
z
" clip-path="url(#p61c72eaf73)" style="fill: #fb6a4a; stroke: #000000; stroke-linejoin: miter"/>
   </g>
   <g id="patch_32">
    <path d="M 472.107205 94.14083 
L 488.496519 94.14083 
L 488.496519 18.238125 
L 472.107205 18.238125 
z
" clip-path="url(#p61c72eaf73)" style="fill: #fb6a4a; stroke: #000000; stroke-linejoin: miter"/>
   </g>
   <g id="patch_33">
    <path d="M 107.900227 18.238125 
L 124.289541 18.238125 
L 124.289541 18.238125 
L 107.900227 18.238125 
z
" clip-path="url(#p61c72eaf73)" style="fill: #fcae91; stroke: #000000; stroke-linejoin: miter"/>
   </g>
   <g id="patch_34">
    <path d="M 198.951971 18.238125 
L 215.341285 18.238125 
L 215.341285 18.238125 
L 198.951971 18.238125 
z
" clip-path="url(#p61c72eaf73)" style="fill: #fcae91; stroke: #000000; stroke-linejoin: miter"/>
   </g>
   <g id="patch_35">
    <path d="M 290.003716 18.238125 
L 306.39303 18.238125 
L 306.39303 18.238125 
L 290.003716 18.238125 
z
" clip-path="url(#p61c72eaf73)" style="fill: #fcae91; stroke: #000000; stroke-linejoin: miter"/>
   </g>
   <g id="patch_36">
    <path d="M 381.05546 18.238125 
L 397.444774 18.238125 
L 397.444774 18.238125 
L 381.05546 18.238125 
z
" clip-path="url(#p61c72eaf73)" style="fill: #fcae91; stroke: #000000; stroke-linejoin: miter"/>
   </g>
   <g id="patch_37">
    <path d="M 472.107205 18.238125 
L 488.496519 18.238125 
L 488.496519 18.238125 
L 472.107205 18.238125 
z
" clip-path="url(#p61c72eaf73)" style="fill: #fcae91; stroke: #000000; stroke-linejoin: miter"/>
   </g>
   <g id="patch_38">
    <path d="M 107.900227 18.238125 
L 124.289541 18.238125 
L 124.289541 18.238125 
L 107.900227 18.238125 
z
" clip-path="url(#p61c72eaf73)" style="fill: #fee5d9; stroke: #000000; stroke-linejoin: miter"/>
   </g>
   <g id="patch_39">
    <path d="M 198.951971 18.238125 
L 215.341285 18.238125 
L 215.341285 18.238125 
L 198.951971 18.238125 
z
" clip-path="url(#p61c72eaf73)" style="fill: #fee5d9; stroke: #000000; stroke-linejoin: miter"/>
   </g>
   <g id="patch_40">
    <path d="M 290.003716 18.238125 
L 306.39303 18.238125 
L 306.39303 18.238125 
L 290.003716 18.238125 
z
" clip-path="url(#p61c72eaf73)" style="fill: #fee5d9; stroke: #000000; stroke-linejoin: miter"/>
   </g>
   <g id="patch_41">
    <path d="M 381.05546 18.238125 
L 397.444774 18.238125 
L 397.444774 18.238125 
L 381.05546 18.238125 
z
" clip-path="url(#p61c72eaf73)" style="fill: #fee5d9; stroke: #000000; stroke-linejoin: miter"/>
   </g>
   <g id="patch_42">
    <path d="M 472.107205 18.238125 
L 488.496519 18.238125 
L 488.496519 18.238125 
L 472.107205 18.238125 
z
" clip-path="url(#p61c72eaf73)" style="fill: #fee5d9; stroke: #000000; stroke-linejoin: miter"/>
   </g>
   <g id="patch_43">
    <path d="M 124.289541 397.751649 
L 140.678855 397.751649 
L 140.678855 374.980838 
L 124.289541 374.980838 
z
" clip-path="url(#p61c72eaf73)" style="fill: #d73027; stroke: #000000; stroke-linejoin: miter"/>
   </g>
   <g id="patch_44">
    <path d="M 215.341285 397.751649 
L 231.730599 397.751649 
L 231.730599 374.980838 
L 215.341285 374.980838 
z
" clip-path="url(#p61c72eaf73)" style="fill: #d73027; stroke: #000000; stroke-linejoin: miter"/>
   </g>
   <g id="patch_45">
    <path d="M 306.39303 397.751649 
L 322.782344 397.751649 
L 322.782344 397.751649 
L 306.39303 397.751649 
z
" clip-path="url(#p61c72eaf73)" style="fill: #d73027; stroke: #000000; stroke-linejoin: miter"/>
   </g>
   <g id="patch_46">
    <path d="M 397.444774 397.751649 
L 413.834088 397.751649 
L 413.834088 397.751649 
L 397.444774 397.751649 
z
" clip-path="url(#p61c72eaf73)" style="fill: #d73027; stroke: #000000; stroke-linejoin: miter"/>
   </g>
   <g id="patch_47">
    <path d="M 488.496519 397.751649 
L 504.885833 397.751649 
L 504.885833 397.751649 
L 488.496519 397.751649 
z
" clip-path="url(#p61c72eaf73)" style="fill: #d73027; stroke: #000000; stroke-linejoin: miter"/>
   </g>
   <g id="patch_48">
    <path d="M 124.289541 374.980838 
L 140.678855 374.980838 
L 140.678855 321.848944 
L 124.289541 321.848944 
z
" clip-path="url(#p61c72eaf73)" style="fill: #fc8d59; stroke: #000000; stroke-linejoin: miter"/>
   </g>
   <g id="patch_49">
    <path d="M 215.341285 374.980838 
L 231.730599 374.980838 
L 231.730599 321.848944 
L 215.341285 321.848944 
z
" clip-path="url(#p61c72eaf73)" style="fill: #fc8d59; stroke: #000000; stroke-linejoin: miter"/>
   </g>
   <g id="patch_50">
    <path d="M 306.39303 397.751649 
L 322.782344 397.751649 
L 322.782344 397.751649 
L 306.39303 397.751649 
z
" clip-path="url(#p61c72eaf73)" style="fill: #fc8d59; stroke: #000000; stroke-linejoin: miter"/>
   </g>
   <g id="patch_51">
    <path d="M 397.444774 397.751649 
L 413.834088 397.751649 
L 413.834088 397.751649 
L 397.444774 397.751649 
z
" clip-path="url(#p61c72eaf73)" style="fill: #fc8d59; stroke: #000000; stroke-linejoin: miter"/>
   </g>
   <g id="patch_52">
    <path d="M 488.496519 397.751649 
L 504.885833 397.751649 
L 504.885833 397.751649 
L 488.496519 397.751649 
z
" clip-path="url(#p61c72eaf73)" style="fill: #fc8d59; stroke: #000000; stroke-linejoin: miter"/>
   </g>
   <g id="patch_53">
    <path d="M 124.289541 321.848944 
L 140.678855 321.848944 
L 140.678855 18.238125 
L 124.289541 18.238125 
z
" clip-path="url(#p61c72eaf73)" style="fill: #fdae61; stroke: #000000; stroke-linejoin: miter"/>
   </g>
   <g id="patch_54">
    <path d="M 215.341285 321.848944 
L 231.730599 321.848944 
L 231.730599 18.238125 
L 215.341285 18.238125 
z
" clip-path="url(#p61c72eaf73)" style="fill: #fdae61; stroke: #000000; stroke-linejoin: miter"/>
   </g>
   <g id="patch_55">
    <path d="M 306.39303 397.751649 
L 322.782344 397.751649 
L 322.782344 397.751649 
L 306.39303 397.751649 
z
" clip-path="url(#p61c72eaf73)" style="fill: #fdae61; stroke: #000000; stroke-linejoin: miter"/>
   </g>
   <g id="patch_56">
    <path d="M 397.444774 397.751649 
L 413.834088 397.751649 
L 413.834088 397.751649 
L 397.444774 397.751649 
z
" clip-path="url(#p61c72eaf73)" style="fill: #fdae61; stroke: #000000; stroke-linejoin: miter"/>
   </g>
   <g id="patch_57">
    <path d="M 488.496519 397.751649 
L 504.885833 397.751649 
L 504.885833 397.751649 
L 488.496519 397.751649 
z
" clip-path="url(#p61c72eaf73)" style="fill: #fdae61; stroke: #000000; stroke-linejoin: miter"/>
   </g>
   <g id="patch_58">
    <path d="M 124.289541 18.238125 
L 140.678855 18.238125 
L 140.678855 18.238125 
L 124.289541 18.238125 
z
" clip-path="url(#p61c72eaf73)" style="fill: #a50026; stroke: #000000; stroke-linejoin: miter"/>
   </g>
   <g id="patch_59">
    <path d="M 215.341285 18.238125 
L 231.730599 18.238125 
L 231.730599 18.238125 
L 215.341285 18.238125 
z
" clip-path="url(#p61c72eaf73)" style="fill: #a50026; stroke: #000000; stroke-linejoin: miter"/>
   </g>
   <g id="patch_60">
    <path d="M 306.39303 397.751649 
L 322.782344 397.751649 
L 322.782344 382.571108 
L 306.39303 382.571108 
z
" clip-path="url(#p61c72eaf73)" style="fill: #a50026; stroke: #000000; stroke-linejoin: miter"/>
   </g>
   <g id="patch_61">
    <path d="M 397.444774 397.751649 
L 413.834088 397.751649 
L 413.834088 390.161379 
L 397.444774 390.161379 
z
" clip-path="url(#p61c72eaf73)" style="fill: #a50026; stroke: #000000; stroke-linejoin: miter"/>
   </g>
   <g id="patch_62">
    <path d="M 488.496519 397.751649 
L 504.885833 397.751649 
L 504.885833 397.751649 
L 488.496519 397.751649 
z
" clip-path="url(#p61c72eaf73)" style="fill: #a50026; stroke: #000000; stroke-linejoin: miter"/>
   </g>
   <g id="patch_63">
    <path d="M 124.289541 18.238125 
L 140.678855 18.238125 
L 140.678855 18.238125 
L 124.289541 18.238125 
z
" clip-path="url(#p61c72eaf73)" style="fill: #de2d26; stroke: #000000; stroke-linejoin: miter"/>
   </g>
   <g id="patch_64">
    <path d="M 215.341285 18.238125 
L 231.730599 18.238125 
L 231.730599 18.238125 
L 215.341285 18.238125 
z
" clip-path="url(#p61c72eaf73)" style="fill: #de2d26; stroke: #000000; stroke-linejoin: miter"/>
   </g>
   <g id="patch_65">
    <path d="M 306.39303 382.571108 
L 322.782344 382.571108 
L 322.782344 314.258674 
L 306.39303 314.258674 
z
" clip-path="url(#p61c72eaf73)" style="fill: #de2d26; stroke: #000000; stroke-linejoin: miter"/>
   </g>
   <g id="patch_66">
    <path d="M 397.444774 390.161379 
L 413.834088 390.161379 
L 413.834088 329.439215 
L 397.444774 329.439215 
z
" clip-path="url(#p61c72eaf73)" style="fill: #de2d26; stroke: #000000; stroke-linejoin: miter"/>
   </g>
   <g id="patch_67">
    <path d="M 488.496519 397.751649 
L 504.885833 397.751649 
L 504.885833 321.848944 
L 488.496519 321.848944 
z
" clip-path="url(#p61c72eaf73)" style="fill: #de2d26; stroke: #000000; stroke-linejoin: miter"/>
   </g>
   <g id="patch_68">
    <path d="M 124.289541 18.238125 
L 140.678855 18.238125 
L 140.678855 18.238125 
L 124.289541 18.238125 
z
" clip-path="url(#p61c72eaf73)" style="fill: #fb6a4a; stroke: #000000; stroke-linejoin: miter"/>
   </g>
   <g id="patch_69">
    <path d="M 215.341285 18.238125 
L 231.730599 18.238125 
L 231.730599 18.238125 
L 215.341285 18.238125 
z
" clip-path="url(#p61c72eaf73)" style="fill: #fb6a4a; stroke: #000000; stroke-linejoin: miter"/>
   </g>
   <g id="patch_70">
    <path d="M 306.39303 314.258674 
L 322.782344 314.258674 
L 322.782344 200.404617 
L 306.39303 200.404617 
z
" clip-path="url(#p61c72eaf73)" style="fill: #fb6a4a; stroke: #000000; stroke-linejoin: miter"/>
   </g>
   <g id="patch_71">
    <path d="M 397.444774 329.439215 
L 413.834088 329.439215 
L 413.834088 223.175428 
L 397.444774 223.175428 
z
" clip-path="url(#p61c72eaf73)" style="fill: #fb6a4a; stroke: #000000; stroke-linejoin: miter"/>
   </g>
   <g id="patch_72">
    <path d="M 488.496519 321.848944 
L 504.885833 321.848944 
L 504.885833 147.272723 
L 488.496519 147.272723 
z
" clip-path="url(#p61c72eaf73)" style="fill: #fb6a4a; stroke: #000000; stroke-linejoin: miter"/>
   </g>
   <g id="patch_73">
    <path d="M 124.289541 18.238125 
L 140.678855 18.238125 
L 140.678855 18.238125 
L 124.289541 18.238125 
z
" clip-path="url(#p61c72eaf73)" style="fill: #fcae91; stroke: #000000; stroke-linejoin: miter"/>
   </g>
   <g id="patch_74">
    <path d="M 215.341285 18.238125 
L 231.730599 18.238125 
L 231.730599 18.238125 
L 215.341285 18.238125 
z
" clip-path="url(#p61c72eaf73)" style="fill: #fcae91; stroke: #000000; stroke-linejoin: miter"/>
   </g>
   <g id="patch_75">
    <path d="M 306.39303 200.404617 
L 322.782344 200.404617 
L 322.782344 63.779748 
L 306.39303 63.779748 
z
" clip-path="url(#p61c72eaf73)" style="fill: #fcae91; stroke: #000000; stroke-linejoin: miter"/>
   </g>
   <g id="patch_76">
    <path d="M 397.444774 223.175428 
L 413.834088 223.175428 
L 413.834088 63.779748 
L 397.444774 63.779748 
z
" clip-path="url(#p61c72eaf73)" style="fill: #fcae91; stroke: #000000; stroke-linejoin: miter"/>
   </g>
   <g id="patch_77">
    <path d="M 488.496519 147.272723 
L 504.885833 147.272723 
L 504.885833 48.599207 
L 488.496519 48.599207 
z
" clip-path="url(#p61c72eaf73)" style="fill: #fcae91; stroke: #000000; stroke-linejoin: miter"/>
   </g>
   <g id="patch_78">
    <path d="M 124.289541 18.238125 
L 140.678855 18.238125 
L 140.678855 18.238125 
L 124.289541 18.238125 
z
" clip-path="url(#p61c72eaf73)" style="fill: #fee5d9; stroke: #000000; stroke-linejoin: miter"/>
   </g>
   <g id="patch_79">
    <path d="M 215.341285 18.238125 
L 231.730599 18.238125 
L 231.730599 18.238125 
L 215.341285 18.238125 
z
" clip-path="url(#p61c72eaf73)" style="fill: #fee5d9; stroke: #000000; stroke-linejoin: miter"/>
   </g>
   <g id="patch_80">
    <path d="M 306.39303 63.779748 
L 322.782344 63.779748 
L 322.782344 18.238125 
L 306.39303 18.238125 
z
" clip-path="url(#p61c72eaf73)" style="fill: #fee5d9; stroke: #000000; stroke-linejoin: miter"/>
   </g>
   <g id="patch_81">
    <path d="M 397.444774 63.779748 
L 413.834088 63.779748 
L 413.834088 18.238125 
L 397.444774 18.238125 
z
" clip-path="url(#p61c72eaf73)" style="fill: #fee5d9; stroke: #000000; stroke-linejoin: miter"/>
   </g>
   <g id="patch_82">
    <path d="M 488.496519 48.599207 
L 504.885833 48.599207 
L 504.885833 18.238125 
L 488.496519 18.238125 
z
" clip-path="url(#p61c72eaf73)" style="fill: #fee5d9; stroke: #000000; stroke-linejoin: miter"/>
   </g>
   <g id="matplotlib.axis_1">
    <g id="xtick_1">
     <g id="line2d_1">
      <defs>
       <path id="mea0b383c91" d="M 0 0 
L 0 3.5 
" style="stroke: #000000; stroke-width: 0.8"/>
      </defs>
      <g>
       <use xlink:href="#mea0b383c91" x="124.289541" y="454.678678" style="stroke: #000000; stroke-width: 0.8"/>
      </g>
     </g>
     <g id="text_1">
      <!-- Overly positive -->
      <g transform="translate(3.897927 542.82177) rotate(-30) scale(0.22 -0.22)">
       <defs>
        <path id="Times-Roman-4f" d="M 2309 -88 
Q 1394 -88 806 531 
Q 219 1150 219 2116 
Q 219 3081 806 3701 
Q 1394 4322 2309 4322 
Q 3228 4322 3815 3701 
Q 4403 3081 4403 2116 
Q 4403 1150 3815 531 
Q 3228 -88 2309 -88 
L 2309 -88 
z
M 2309 141 
Q 2947 141 3309 667 
Q 3672 1194 3672 2116 
Q 3672 3041 3309 3567 
Q 2947 4094 2309 4094 
Q 1675 4094 1312 3567 
Q 950 3041 950 2116 
Q 950 1194 1312 667 
Q 1675 141 2309 141 
L 2309 141 
z
" transform="scale(0.015625)"/>
        <path id="Times-Roman-76" d="M 613 2284 
Q 481 2591 387 2686 
Q 294 2781 122 2784 
L 122 2878 
L 747 2878 
L 1372 2878 
L 1372 2784 
Q 1125 2772 1084 2687 
Q 1044 2603 1153 2334 
L 1791 738 
L 1791 738 
L 1791 738 
L 2316 2084 
Q 2484 2509 2453 2643 
Q 2422 2778 2153 2784 
L 2153 2878 
L 2600 2878 
L 3050 2878 
L 3050 2784 
Q 2922 2781 2844 2687 
Q 2766 2594 2638 2284 
L 1703 -47 
Q 1688 -88 1644 -88 
L 1644 -88 
Q 1603 -88 1584 -47 
L 613 2284 
z
" transform="scale(0.015625)"/>
        <path id="Times-Roman-65" d="M 1341 -63 
Q 800 -63 479 323 
Q 159 709 159 1359 
Q 159 2053 529 2498 
Q 900 2944 1475 2944 
Q 1988 2944 2294 2597 
Q 2572 2288 2591 1772 
L 2591 1772 
L 619 1772 
L 619 1772 
Q 619 1131 892 751 
Q 1166 372 1625 372 
Q 1928 372 2150 526 
Q 2372 681 2609 1056 
L 2713 994 
Q 2475 444 2145 190 
Q 1816 -63 1341 -63 
z
M 1938 1978 
L 1938 1978 
Q 1909 2291 1794 2472 
Q 1638 2719 1331 2719 
L 1322 2719 
Q 1000 2719 809 2463 
Q 669 2275 628 1978 
L 628 1978 
L 1938 1978 
z
" transform="scale(0.015625)"/>
        <path id="Times-Roman-72" d="M 488 594 
L 488 2119 
Q 488 2413 405 2480 
Q 322 2547 44 2484 
L 44 2588 
Q 322 2681 519 2756 
Q 719 2834 991 2950 
L 1019 2931 
L 1019 2331 
L 1019 2331 
L 1019 2331 
Q 1178 2584 1341 2734 
Q 1566 2944 1800 2944 
Q 1956 2944 2048 2850 
Q 2141 2756 2141 2597 
Q 2141 2469 2073 2392 
Q 2006 2316 1897 2316 
Q 1834 2316 1776 2341 
Q 1719 2366 1659 2420 
Q 1600 2475 1547 2508 
Q 1494 2541 1463 2541 
Q 1356 2541 1244 2425 
Q 1175 2353 1097 2234 
Q 1063 2184 1044 2120 
Q 1025 2056 1025 2000 
L 1025 594 
Q 1025 288 1129 192 
Q 1234 97 1578 94 
L 1578 0 
L 806 0 
L 31 0 
L 31 94 
Q 316 97 403 194 
Q 488 288 488 594 
z
" transform="scale(0.015625)"/>
        <path id="Times-Roman-6c" d="M 622 594 
L 622 3609 
Q 622 3897 534 3964 
Q 447 4031 122 3994 
L 122 4088 
Q 416 4159 628 4219 
Q 841 4278 1131 4372 
L 1159 4353 
L 1159 594 
Q 1159 291 1250 195 
Q 1341 100 1634 94 
L 1634 0 
L 881 0 
L 125 0 
L 125 94 
Q 434 100 528 197 
Q 622 291 622 594 
z
" transform="scale(0.015625)"/>
        <path id="Times-Roman-79" d="M 2700 2384 
L 1831 103 
Q 1522 -756 1272 -1073 
Q 1022 -1391 656 -1391 
L 656 -1391 
Q 456 -1391 328 -1289 
Q 200 -1188 200 -1031 
Q 200 -891 279 -816 
Q 359 -741 509 -741 
L 528 -741 
Q 616 -741 756 -798 
Q 897 -856 984 -856 
Q 1038 -856 1094 -817 
Q 1150 -778 1197 -709 
Q 1366 -447 1513 -41 
L 1569 144 
L 1569 144 
L 572 2284 
Q 425 2594 334 2687 
Q 244 2781 91 2784 
L 91 2878 
L 744 2878 
L 1400 2878 
L 1400 2784 
Q 1113 2772 1061 2686 
Q 1009 2600 1128 2334 
L 1841 738 
L 1841 738 
L 1841 738 
L 2391 2297 
Q 2500 2600 2464 2687 
Q 2428 2775 2191 2784 
L 2191 2878 
L 2619 2878 
L 3050 2878 
L 3050 2784 
Q 2931 2781 2866 2706 
Q 2800 2631 2700 2384 
z
" transform="scale(0.015625)"/>
        <path id="Times-Roman-20" transform="scale(0.015625)"/>
        <path id="Times-Roman-70" d="M 488 2150 
Q 488 2403 411 2472 
Q 334 2541 75 2516 
L 75 2619 
Q 344 2700 531 2772 
Q 725 2844 988 2950 
L 1016 2931 
L 1016 2438 
L 1016 2438 
L 1131 2575 
Q 1475 2944 1972 2944 
Q 2428 2944 2720 2544 
Q 3013 2144 3013 1522 
Q 3013 875 2619 406 
Q 2225 -63 1684 -63 
Q 1309 -59 1025 197 
L 1025 197 
L 1025 -775 
Q 1025 -1078 1128 -1173 
Q 1231 -1269 1572 -1275 
L 1572 -1384 
L 803 -1384 
L 31 -1384 
L 31 -1275 
Q 316 -1272 402 -1176 
Q 488 -1081 488 -775 
L 488 2150 
z
M 1666 141 
Q 2028 141 2242 461 
Q 2456 781 2456 1322 
Q 2456 1884 2236 2220 
Q 2016 2556 1647 2556 
Q 1341 2556 1097 2319 
Q 1059 2284 1042 2239 
Q 1025 2194 1025 2134 
L 1025 606 
Q 1025 541 1040 497 
Q 1056 453 1097 406 
Q 1322 144 1666 141 
z
" transform="scale(0.015625)"/>
        <path id="Times-Roman-6f" d="M 1597 -63 
Q 978 -63 581 353 
Q 184 769 184 1416 
Q 184 2084 581 2514 
Q 978 2944 1597 2944 
Q 2216 2944 2612 2526 
Q 3009 2109 3009 1459 
Q 3009 794 2612 365 
Q 2216 -63 1597 -63 
L 1597 -63 
z
M 1669 116 
Q 2019 116 2226 394 
Q 2434 672 2434 1138 
Q 2434 1881 2187 2323 
Q 1941 2766 1525 2766 
Q 1175 2766 967 2486 
Q 759 2206 759 1738 
Q 759 997 1007 556 
Q 1256 116 1669 116 
L 1669 116 
z
" transform="scale(0.015625)"/>
        <path id="Times-Roman-73" d="M 1916 2016 
Q 1834 2406 1659 2601 
Q 1484 2797 1213 2797 
Q 997 2797 859 2681 
Q 722 2566 722 2381 
Q 722 2184 841 2056 
Q 959 1931 1334 1725 
Q 1856 1438 2044 1234 
Q 2228 1034 2228 756 
Q 2228 406 1962 171 
Q 1697 -63 1297 -63 
Q 1044 -63 659 50 
Q 594 69 533 55 
Q 472 41 434 0 
L 413 -25 
L 325 -25 
L 325 -25 
L 325 969 
L 325 969 
L 441 969 
Q 509 531 718 303 
Q 928 75 1259 75 
Q 1503 75 1642 198 
Q 1781 322 1781 544 
Q 1781 731 1653 859 
Q 1525 988 1119 1209 
Q 656 1466 491 1663 
Q 325 1856 325 2153 
Q 325 2500 575 2722 
Q 825 2944 1213 2944 
Q 1431 2947 1731 2831 
Q 1784 2809 1828 2818 
Q 1872 2828 1903 2869 
L 1913 2881 
L 1988 2881 
L 1988 2881 
L 2016 2016 
L 2016 2016 
L 1916 2016 
z
" transform="scale(0.015625)"/>
        <path id="Times-Roman-69" d="M 600 594 
L 600 2119 
Q 600 2416 512 2483 
Q 425 2550 125 2484 
L 125 2588 
Q 413 2678 619 2756 
Q 825 2834 1109 2950 
L 1138 2931 
L 1138 594 
Q 1138 291 1228 195 
Q 1319 100 1613 94 
L 1613 0 
L 859 0 
L 103 0 
L 103 94 
Q 413 100 506 197 
Q 600 291 600 594 
z
M 828 4372 
Q 966 4372 1059 4276 
Q 1153 4181 1153 4044 
Q 1153 3906 1059 3812 
Q 966 3719 828 3719 
Q 691 3719 597 3812 
Q 503 3906 503 4044 
Q 503 4181 597 4276 
Q 691 4372 828 4372 
z
" transform="scale(0.015625)"/>
        <path id="Times-Roman-74" d="M 450 631 
L 450 2675 
L 450 2675 
L 122 2675 
Q 84 2675 84 2713 
L 84 2709 
Q 84 2747 119 2772 
Q 347 2944 484 3097 
Q 684 3322 909 3659 
L 941 3706 
L 941 3706 
Q 966 3703 977 3684 
Q 988 3666 988 3619 
L 988 2878 
L 988 2878 
L 1634 2878 
L 1634 2675 
L 988 2675 
L 988 2675 
L 988 803 
Q 988 516 1063 391 
Q 1138 266 1313 266 
Q 1419 266 1526 328 
Q 1634 391 1706 494 
L 1788 422 
Q 1631 175 1450 59 
Q 1269 -56 1038 -56 
Q 763 -56 606 128 
Q 450 309 450 631 
z
" transform="scale(0.015625)"/>
       </defs>
       <use xlink:href="#Times-Roman-4f"/>
       <use xlink:href="#Times-Roman-76" transform="translate(72.216797 0)"/>
       <use xlink:href="#Times-Roman-65" transform="translate(122.216797 0)"/>
       <use xlink:href="#Times-Roman-72" transform="translate(166.601562 0)"/>
       <use xlink:href="#Times-Roman-6c" transform="translate(199.902344 0)"/>
       <use xlink:href="#Times-Roman-79" transform="translate(227.685547 0)"/>
       <use xlink:href="#Times-Roman-20" transform="translate(277.685547 0)"/>
       <use xlink:href="#Times-Roman-70" transform="translate(302.685547 0)"/>
       <use xlink:href="#Times-Roman-6f" transform="translate(352.685547 0)"/>
       <use xlink:href="#Times-Roman-73" transform="translate(402.685547 0)"/>
       <use xlink:href="#Times-Roman-69" transform="translate(441.601562 0)"/>
       <use xlink:href="#Times-Roman-74" transform="translate(469.384766 0)"/>
       <use xlink:href="#Times-Roman-69" transform="translate(497.167969 0)"/>
       <use xlink:href="#Times-Roman-76" transform="translate(524.951172 0)"/>
       <use xlink:href="#Times-Roman-65" transform="translate(574.951172 0)"/>
      </g>
     </g>
    </g>
    <g id="xtick_2">
     <g id="line2d_2">
      <g>
       <use xlink:href="#mea0b383c91" x="215.341285" y="454.678678" style="stroke: #000000; stroke-width: 0.8"/>
      </g>
     </g>
     <g id="text_2">
      <!-- Overly negative -->
      <g transform="translate(90.738067 545.250363) rotate(-30) scale(0.22 -0.22)">
       <defs>
        <path id="Times-Roman-6e" d="M 516 594 
L 516 2184 
Q 516 2450 430 2526 
Q 344 2603 103 2550 
L 103 2653 
Q 366 2728 553 2791 
Q 744 2853 1003 2950 
L 1031 2931 
L 1031 2428 
L 1031 2428 
L 1031 2428 
Q 1269 2656 1472 2788 
Q 1725 2944 1928 2944 
Q 2319 2944 2517 2692 
Q 2716 2441 2716 1950 
L 2716 594 
Q 2716 288 2789 192 
Q 2863 97 3103 94 
L 3103 0 
L 2438 0 
L 1772 0 
L 1772 94 
Q 2025 97 2101 192 
Q 2178 288 2178 594 
L 2178 1959 
Q 2178 2284 2059 2437 
Q 1941 2591 1684 2591 
Q 1553 2591 1394 2497 
Q 1250 2413 1053 2225 
L 1053 2225 
L 1053 594 
Q 1053 288 1129 192 
Q 1206 97 1459 94 
L 1459 0 
L 791 0 
L 119 0 
L 119 94 
Q 366 97 441 194 
Q 516 288 516 594 
z
" transform="scale(0.015625)"/>
        <path id="Times-Roman-67" d="M 853 575 
Q 853 488 1022 447 
Q 1191 406 1603 394 
L 2166 378 
Q 2528 366 2740 181 
Q 2953 -3 2953 -309 
Q 2953 -731 2445 -1062 
Q 1938 -1394 1288 -1394 
Q 822 -1394 500 -1214 
Q 178 -1034 178 -772 
Q 178 -600 331 -411 
Q 484 -222 816 19 
L 816 19 
L 744 47 
Q 469 153 469 356 
Q 469 456 592 600 
Q 716 744 1053 1044 
L 1053 1044 
Q 881 1109 750 1219 
Q 447 1475 447 1931 
Q 447 2375 748 2659 
Q 1050 2944 1522 2944 
Q 1825 2944 2063 2831 
Q 2150 2791 2251 2762 
Q 2353 2734 2413 2734 
L 3009 2734 
L 3009 2481 
L 2459 2481 
L 2459 2481 
Q 2600 2266 2600 1969 
Q 2600 1525 2315 1242 
Q 2031 959 1588 959 
Q 1397 956 1231 994 
L 1231 994 
Q 1072 906 963 784 
Q 853 666 853 575 
z
M 1475 2759 
Q 1241 2759 1102 2593 
Q 963 2428 963 2150 
Q 963 1678 1145 1398 
Q 1328 1119 1638 1119 
Q 1856 1119 1970 1275 
Q 2084 1431 2084 1725 
Q 2084 2197 1919 2478 
Q 1753 2759 1475 2759 
z
M 622 -563 
Q 622 -778 883 -903 
Q 1144 -1028 1591 -1028 
Q 2109 -1028 2440 -854 
Q 2772 -681 2772 -406 
Q 2772 -241 2637 -175 
Q 2503 -109 2131 -97 
L 1569 -81 
Q 1188 -66 938 -16 
L 938 -16 
Q 806 -147 714 -306 
Q 622 -466 622 -563 
z
" transform="scale(0.015625)"/>
        <path id="Times-Roman-61" d="M 922 -63 
Q 622 -63 430 126 
Q 238 316 238 613 
Q 238 928 458 1158 
Q 678 1388 1172 1594 
L 1838 1869 
L 1838 1869 
L 1838 2209 
Q 1838 2509 1719 2650 
Q 1600 2791 1344 2791 
Q 1106 2791 978 2662 
Q 850 2534 903 2350 
Q 950 2188 869 2069 
Q 788 1950 628 1950 
Q 516 1950 437 2029 
Q 359 2109 359 2225 
Q 359 2519 668 2731 
Q 978 2944 1406 2944 
Q 1875 2944 2115 2723 
Q 2356 2503 2356 2072 
L 2356 597 
Q 2356 434 2398 367 
Q 2441 300 2544 300 
Q 2613 300 2689 334 
Q 2766 369 2828 425 
L 2828 256 
Q 2719 119 2559 31 
Q 2400 -56 2259 -56 
Q 2059 -56 1953 69 
Q 1853 184 1847 413 
L 1847 413 
Q 1725 291 1588 194 
Q 1228 -63 922 -63 
z
M 1838 759 
L 1838 1713 
L 1838 1713 
L 1481 1578 
Q 1156 1456 979 1256 
Q 803 1056 803 813 
Q 803 584 803 813 
Q 803 584 920 443 
Q 1038 303 1228 303 
Q 1463 303 1697 466 
Q 1781 522 1809 581 
Q 1838 644 1838 759 
z
" transform="scale(0.015625)"/>
       </defs>
       <use xlink:href="#Times-Roman-4f"/>
       <use xlink:href="#Times-Roman-76" transform="translate(72.216797 0)"/>
       <use xlink:href="#Times-Roman-65" transform="translate(122.216797 0)"/>
       <use xlink:href="#Times-Roman-72" transform="translate(166.601562 0)"/>
       <use xlink:href="#Times-Roman-6c" transform="translate(199.902344 0)"/>
       <use xlink:href="#Times-Roman-79" transform="translate(227.685547 0)"/>
       <use xlink:href="#Times-Roman-20" transform="translate(277.685547 0)"/>
       <use xlink:href="#Times-Roman-6e" transform="translate(302.685547 0)"/>
       <use xlink:href="#Times-Roman-65" transform="translate(352.685547 0)"/>
       <use xlink:href="#Times-Roman-67" transform="translate(397.070312 0)"/>
       <use xlink:href="#Times-Roman-61" transform="translate(447.070312 0)"/>
       <use xlink:href="#Times-Roman-74" transform="translate(491.455078 0)"/>
       <use xlink:href="#Times-Roman-69" transform="translate(519.238281 0)"/>
       <use xlink:href="#Times-Roman-76" transform="translate(547.021484 0)"/>
       <use xlink:href="#Times-Roman-65" transform="translate(597.021484 0)"/>
      </g>
     </g>
    </g>
    <g id="xtick_3">
     <g id="line2d_3">
      <g>
       <use xlink:href="#mea0b383c91" x="306.39303" y="454.678678" style="stroke: #000000; stroke-width: 0.8"/>
      </g>
     </g>
     <g id="text_3">
      <!-- Cognitive empathy -->
      <g transform="translate(158.47722 558.709895) rotate(-30) scale(0.22 -0.22)">
       <defs>
        <path id="Times-Roman-43" d="M 4050 716 
Q 3694 309 3267 110 
Q 2841 -88 2328 -88 
Q 1344 -88 761 509 
Q 178 1106 178 2116 
Q 178 3081 789 3701 
Q 1400 4322 2350 4322 
Q 2800 4322 3347 4131 
Q 3494 4081 3614 4129 
Q 3734 4178 3778 4303 
L 3784 4322 
L 3903 4322 
L 3903 4322 
L 3972 2881 
L 3972 2881 
L 3825 2881 
Q 3691 3441 3317 3755 
Q 2944 4069 2413 4069 
Q 1719 4069 1320 3551 
Q 922 3034 922 2128 
Q 922 1225 1339 708 
Q 1756 191 2481 191 
Q 2894 191 3244 345 
Q 3594 500 3934 831 
L 4050 716 
z
" transform="scale(0.015625)"/>
        <path id="Times-Roman-6d" d="M 559 594 
L 559 2194 
Q 559 2484 479 2553 
Q 400 2622 125 2559 
L 125 2663 
Q 394 2734 588 2794 
Q 781 2856 1047 2950 
L 1075 2931 
L 1075 2456 
L 1075 2456 
L 1075 2456 
Q 1381 2706 1581 2813 
Q 1825 2944 2028 2944 
Q 2416 2944 2616 2669 
Q 2691 2563 2741 2413 
L 2741 2413 
Q 3000 2678 3216 2800 
Q 3469 2944 3741 2944 
Q 4128 2944 4326 2669 
Q 4525 2394 4525 1856 
L 4525 594 
Q 4525 288 4608 192 
Q 4691 97 4959 94 
L 4959 0 
L 4256 0 
L 3553 0 
L 3553 94 
Q 3822 97 3905 192 
Q 3988 288 3988 594 
L 3988 1963 
Q 3988 2297 3877 2453 
Q 3766 2609 3528 2609 
Q 3303 2609 3125 2513 
Q 2963 2422 2813 2238 
L 2813 2238 
L 2813 594 
Q 2813 291 2903 195 
Q 2994 100 3288 94 
L 3288 0 
L 2559 0 
L 1828 0 
L 1828 94 
Q 2106 100 2190 195 
Q 2275 291 2275 594 
L 2275 1972 
Q 2275 2300 2165 2454 
Q 2056 2609 1822 2609 
Q 1603 2609 1422 2516 
Q 1259 2438 1097 2253 
L 1097 2253 
L 1097 594 
Q 1097 288 1180 192 
Q 1263 97 1531 94 
L 1531 0 
L 819 0 
L 103 0 
L 103 94 
Q 388 97 475 194 
Q 559 288 559 594 
z
" transform="scale(0.015625)"/>
        <path id="Times-Roman-68" d="M 466 594 
L 466 3609 
Q 466 3888 394 3955 
Q 322 4022 56 3994 
L 56 4088 
Q 325 4159 516 4219 
Q 709 4278 975 4372 
L 1003 4353 
L 1003 2425 
L 1003 2425 
L 1003 2425 
Q 1200 2644 1394 2772 
Q 1656 2944 1909 2944 
Q 2316 2944 2522 2683 
Q 2728 2422 2728 1913 
L 2728 594 
Q 2728 288 2801 192 
Q 2875 97 3116 94 
L 3116 0 
L 2450 0 
L 1784 0 
L 1784 94 
Q 2038 97 2114 192 
Q 2191 288 2191 594 
L 2191 1928 
Q 2191 2269 2066 2430 
Q 1941 2591 1672 2591 
Q 1503 2591 1334 2488 
Q 1181 2391 1003 2191 
L 1003 2191 
L 1003 594 
Q 1003 288 1079 192 
Q 1156 97 1409 94 
L 1409 0 
L 741 0 
L 69 0 
L 69 94 
Q 316 97 391 194 
Q 466 288 466 594 
z
" transform="scale(0.015625)"/>
       </defs>
       <use xlink:href="#Times-Roman-43"/>
       <use xlink:href="#Times-Roman-6f" transform="translate(66.699219 0)"/>
       <use xlink:href="#Times-Roman-67" transform="translate(116.699219 0)"/>
       <use xlink:href="#Times-Roman-6e" transform="translate(166.699219 0)"/>
       <use xlink:href="#Times-Roman-69" transform="translate(216.699219 0)"/>
       <use xlink:href="#Times-Roman-74" transform="translate(244.482422 0)"/>
       <use xlink:href="#Times-Roman-69" transform="translate(272.265625 0)"/>
       <use xlink:href="#Times-Roman-76" transform="translate(300.048828 0)"/>
       <use xlink:href="#Times-Roman-65" transform="translate(350.048828 0)"/>
       <use xlink:href="#Times-Roman-20" transform="translate(394.433594 0)"/>
       <use xlink:href="#Times-Roman-65" transform="translate(419.433594 0)"/>
       <use xlink:href="#Times-Roman-6d" transform="translate(463.818359 0)"/>
       <use xlink:href="#Times-Roman-70" transform="translate(541.601562 0)"/>
       <use xlink:href="#Times-Roman-61" transform="translate(591.601562 0)"/>
       <use xlink:href="#Times-Roman-74" transform="translate(635.986328 0)"/>
       <use xlink:href="#Times-Roman-68" transform="translate(663.769531 0)"/>
       <use xlink:href="#Times-Roman-79" transform="translate(713.769531 0)"/>
      </g>
     </g>
    </g>
    <g id="xtick_4">
     <g id="line2d_4">
      <g>
       <use xlink:href="#mea0b383c91" x="397.444774" y="454.678678" style="stroke: #000000; stroke-width: 0.8"/>
      </g>
     </g>
     <g id="text_4">
      <!-- Emotional empathy -->
      <g transform="translate(245.312788 561.147082) rotate(-30) scale(0.22 -0.22)">
       <defs>
        <path id="Times-Roman-45" d="M 78 0 
L 78 122 
Q 428 128 534 233 
Q 641 338 641 678 
L 641 3559 
Q 641 3900 534 4004 
Q 428 4109 78 4116 
L 78 4238 
L 1294 4238 
L 1294 4238 
L 3475 4238 
L 3475 4238 
L 3484 3772 
L 3497 3306 
L 3344 3306 
Q 3291 3731 3100 3862 
Q 2909 3994 2338 3994 
L 1522 3994 
Q 1384 3994 1339 3948 
Q 1294 3903 1294 3766 
L 1294 2353 
L 1294 2353 
L 2216 2353 
Q 2641 2353 2784 2468 
Q 2928 2584 2975 2963 
L 3122 2963 
L 3122 2222 
L 3122 1481 
L 2975 1481 
Q 2928 1859 2784 1975 
Q 2641 2091 2216 2091 
L 1294 2091 
L 1294 2091 
L 1294 538 
Q 1294 363 1353 303 
Q 1413 244 1588 244 
L 2191 244 
Q 2866 244 3142 403 
Q 3419 563 3644 1081 
L 3819 1081 
L 3678 541 
L 3534 0 
L 3534 0 
L 1294 0 
L 1294 0 
L 78 0 
z
" transform="scale(0.015625)"/>
       </defs>
       <use xlink:href="#Times-Roman-45"/>
       <use xlink:href="#Times-Roman-6d" transform="translate(61.083984 0)"/>
       <use xlink:href="#Times-Roman-6f" transform="translate(138.867188 0)"/>
       <use xlink:href="#Times-Roman-74" transform="translate(188.867188 0)"/>
       <use xlink:href="#Times-Roman-69" transform="translate(216.650391 0)"/>
       <use xlink:href="#Times-Roman-6f" transform="translate(244.433594 0)"/>
       <use xlink:href="#Times-Roman-6e" transform="translate(294.433594 0)"/>
       <use xlink:href="#Times-Roman-61" transform="translate(344.433594 0)"/>
       <use xlink:href="#Times-Roman-6c" transform="translate(388.818359 0)"/>
       <use xlink:href="#Times-Roman-20" transform="translate(416.601562 0)"/>
       <use xlink:href="#Times-Roman-65" transform="translate(441.601562 0)"/>
       <use xlink:href="#Times-Roman-6d" transform="translate(485.986328 0)"/>
       <use xlink:href="#Times-Roman-70" transform="translate(563.769531 0)"/>
       <use xlink:href="#Times-Roman-61" transform="translate(613.769531 0)"/>
       <use xlink:href="#Times-Roman-74" transform="translate(658.154297 0)"/>
       <use xlink:href="#Times-Roman-68" transform="translate(685.9375 0)"/>
       <use xlink:href="#Times-Roman-79" transform="translate(735.9375 0)"/>
      </g>
     </g>
    </g>
    <g id="xtick_5">
     <g id="line2d_5">
      <g>
       <use xlink:href="#mea0b383c91" x="488.496519" y="454.678678" style="stroke: #000000; stroke-width: 0.8"/>
      </g>
     </g>
     <g id="text_5">
      <!-- Emotion regulation -->
      <g transform="translate(338.473019 559.92677) rotate(-30) scale(0.22 -0.22)">
       <defs>
        <path id="Times-Roman-75" d="M 991 2878 
L 991 863 
Q 991 584 1112 443 
Q 1234 303 1475 303 
Q 1631 303 1803 391 
Q 1909 447 2022 534 
Q 2069 572 2097 631 
Q 2125 691 2125 756 
L 2125 2284 
Q 2125 2588 2036 2683 
Q 1947 2778 1653 2784 
L 1653 2878 
L 2156 2878 
L 2663 2878 
L 2663 2878 
L 2663 691 
Q 2663 453 2738 384 
Q 2813 316 3066 325 
L 3066 234 
L 2625 88 
L 2184 -63 
L 2156 -44 
L 2156 478 
L 2156 478 
L 2156 478 
Q 1853 166 1670 50 
Q 1488 -66 1238 -66 
Q 866 -66 659 168 
Q 453 403 453 825 
L 453 2284 
Q 453 2591 378 2686 
Q 303 2781 56 2784 
L 56 2878 
L 522 2878 
L 991 2878 
L 991 2878 
z
" transform="scale(0.015625)"/>
       </defs>
       <use xlink:href="#Times-Roman-45"/>
       <use xlink:href="#Times-Roman-6d" transform="translate(61.083984 0)"/>
       <use xlink:href="#Times-Roman-6f" transform="translate(138.867188 0)"/>
       <use xlink:href="#Times-Roman-74" transform="translate(188.867188 0)"/>
       <use xlink:href="#Times-Roman-69" transform="translate(216.650391 0)"/>
       <use xlink:href="#Times-Roman-6f" transform="translate(244.433594 0)"/>
       <use xlink:href="#Times-Roman-6e" transform="translate(294.433594 0)"/>
       <use xlink:href="#Times-Roman-20" transform="translate(344.433594 0)"/>
       <use xlink:href="#Times-Roman-72" transform="translate(369.433594 0)"/>
       <use xlink:href="#Times-Roman-65" transform="translate(402.734375 0)"/>
       <use xlink:href="#Times-Roman-67" transform="translate(447.119141 0)"/>
       <use xlink:href="#Times-Roman-75" transform="translate(497.119141 0)"/>
       <use xlink:href="#Times-Roman-6c" transform="translate(547.119141 0)"/>
       <use xlink:href="#Times-Roman-61" transform="translate(574.902344 0)"/>
       <use xlink:href="#Times-Roman-74" transform="translate(619.287109 0)"/>
       <use xlink:href="#Times-Roman-69" transform="translate(647.070312 0)"/>
       <use xlink:href="#Times-Roman-6f" transform="translate(674.853516 0)"/>
       <use xlink:href="#Times-Roman-6e" transform="translate(724.853516 0)"/>
      </g>
     </g>
    </g>
   </g>
   <g id="matplotlib.axis_2">
    <g id="ytick_1">
     <g id="line2d_6">
      <defs>
       <path id="m2abeec90de" d="M 0 0 
L -3.5 0 
" style="stroke: #000000; stroke-width: 0.8"/>
      </defs>
      <g>
       <use xlink:href="#m2abeec90de" x="88.050946" y="397.751649" style="stroke: #000000; stroke-width: 0.8"/>
      </g>
     </g>
     <g id="text_6">
      <!-- 0.0 -->
      <g transform="translate(53.550946 405.266024) scale(0.22 -0.22)">
       <defs>
        <path id="Times-Roman-30" d="M 1600 -84 
Q 953 -84 553 523 
Q 153 1131 153 2116 
Q 153 3103 553 3712 
Q 953 4322 1600 4322 
Q 2250 4322 2648 3712 
Q 3047 3103 3047 2116 
Q 3047 1131 2648 523 
Q 2250 -84 1600 -84 
L 1600 -84 
z
M 1600 81 
Q 2025 81 2231 589 
Q 2438 1097 2434 2141 
Q 2438 3163 2231 3659 
Q 2025 4156 1600 4156 
Q 1178 4156 973 3647 
Q 769 3138 766 2091 
Q 769 1072 973 576 
Q 1178 81 1600 81 
L 1600 81 
z
" transform="scale(0.015625)"/>
        <path id="Times-Roman-2e" d="M 803 641 
Q 953 641 1056 537 
Q 1159 434 1159 284 
Q 1159 138 1056 34 
Q 953 -69 803 -69 
Q 653 -69 550 34 
Q 447 138 447 284 
Q 447 434 550 537 
Q 653 641 803 641 
z
" transform="scale(0.015625)"/>
       </defs>
       <use xlink:href="#Times-Roman-30"/>
       <use xlink:href="#Times-Roman-2e" transform="translate(50 0)"/>
       <use xlink:href="#Times-Roman-30" transform="translate(75 0)"/>
      </g>
     </g>
    </g>
    <g id="ytick_2">
     <g id="line2d_7">
      <g>
       <use xlink:href="#m2abeec90de" x="88.050946" y="321.848944" style="stroke: #000000; stroke-width: 0.8"/>
      </g>
     </g>
     <g id="text_7">
      <!-- 0.2 -->
      <g transform="translate(53.550946 329.363319) scale(0.22 -0.22)">
       <defs>
        <path id="Times-Roman-32" d="M 2725 3178 
Q 2725 2728 2391 2231 
Q 2059 1738 1144 822 
L 806 484 
L 806 484 
L 2278 484 
Q 2525 484 2642 561 
Q 2759 638 2925 909 
L 3016 875 
L 2841 438 
L 2666 0 
L 2666 0 
L 191 0 
L 191 44 
L 191 91 
L 1016 944 
Q 1663 1609 1916 2050 
Q 2169 2491 2169 2950 
Q 2169 3347 1912 3600 
Q 1656 3853 1253 3853 
Q 938 3853 698 3634 
Q 459 3416 338 3016 
L 203 3050 
Q 294 3631 656 3976 
Q 1019 4322 1538 4322 
Q 2059 4322 2394 4000 
Q 2725 3681 2725 3178 
z
" transform="scale(0.015625)"/>
       </defs>
       <use xlink:href="#Times-Roman-30"/>
       <use xlink:href="#Times-Roman-2e" transform="translate(50 0)"/>
       <use xlink:href="#Times-Roman-32" transform="translate(75 0)"/>
      </g>
     </g>
    </g>
    <g id="ytick_3">
     <g id="line2d_8">
      <g>
       <use xlink:href="#m2abeec90de" x="88.050946" y="245.946239" style="stroke: #000000; stroke-width: 0.8"/>
      </g>
     </g>
     <g id="text_8">
      <!-- 0.4 -->
      <g transform="translate(53.550946 253.460614) scale(0.22 -0.22)">
       <defs>
        <path id="Times-Roman-34" d="M 1875 1072 
L 78 1072 
L 78 1278 
L 78 1488 
L 2084 4325 
L 2228 4325 
L 2375 4325 
L 2375 1481 
L 2375 1481 
L 3022 1481 
L 3022 1072 
L 2375 1072 
L 2375 1072 
L 2375 0 
L 1875 0 
L 1875 1072 
L 1875 1072 
z
M 1875 1481 
L 1875 1481 
L 1875 3681 
L 1875 3681 
L 1875 3681 
L 334 1488 
L 331 1481 
L 1875 1481 
z
" transform="scale(0.015625)"/>
       </defs>
       <use xlink:href="#Times-Roman-30"/>
       <use xlink:href="#Times-Roman-2e" transform="translate(50 0)"/>
       <use xlink:href="#Times-Roman-34" transform="translate(75 0)"/>
      </g>
     </g>
    </g>
    <g id="ytick_4">
     <g id="line2d_9">
      <g>
       <use xlink:href="#m2abeec90de" x="88.050946" y="170.043535" style="stroke: #000000; stroke-width: 0.8"/>
      </g>
     </g>
     <g id="text_9">
      <!-- 0.6 -->
      <g transform="translate(53.550946 177.55791) scale(0.22 -0.22)">
       <defs>
        <path id="Times-Roman-36" d="M 2859 4378 
L 2878 4275 
Q 1991 4163 1403 3422 
Q 1034 2956 900 2381 
L 900 2381 
L 925 2403 
Q 1344 2741 1828 2741 
Q 2363 2741 2678 2381 
Q 2994 2022 2994 1413 
Q 2994 728 2617 322 
Q 2241 -84 1606 -84 
Q 981 -84 600 447 
Q 219 978 219 1847 
Q 219 2875 988 3609 
Q 1753 4344 2859 4378 
z
M 1703 88 
Q 2050 88 2239 364 
Q 2428 641 2428 1147 
Q 2428 1778 2206 2111 
Q 1984 2444 1563 2444 
Q 1381 2444 1225 2391 
Q 991 2309 912 2186 
Q 834 2063 822 1753 
L 819 1675 
Q 819 944 1058 516 
Q 1297 88 1703 88 
z
" transform="scale(0.015625)"/>
       </defs>
       <use xlink:href="#Times-Roman-30"/>
       <use xlink:href="#Times-Roman-2e" transform="translate(50 0)"/>
       <use xlink:href="#Times-Roman-36" transform="translate(75 0)"/>
      </g>
     </g>
    </g>
    <g id="ytick_5">
     <g id="line2d_10">
      <g>
       <use xlink:href="#m2abeec90de" x="88.050946" y="94.14083" style="stroke: #000000; stroke-width: 0.8"/>
      </g>
     </g>
     <g id="text_10">
      <!-- 0.8 -->
      <g transform="translate(53.550946 101.655205) scale(0.22 -0.22)">
       <defs>
        <path id="Times-Roman-38" d="M 406 3275 
Q 406 3734 745 4028 
Q 1084 4322 1613 4322 
Q 2100 4322 2412 4067 
Q 2725 3813 2725 3416 
Q 2725 3078 2428 2772 
Q 2216 2556 1869 2369 
L 1869 2369 
Q 2428 1938 2628 1678 
Q 2847 1388 2847 956 
Q 2847 500 2490 208 
Q 2134 -84 1578 -84 
Q 1044 -84 701 211 
Q 359 506 359 969 
Q 359 1303 616 1619 
Q 813 1859 1194 2134 
L 1194 2134 
Q 800 2438 619 2678 
Q 406 2963 406 3275 
z
M 2284 3450 
Q 2284 3775 2092 3961 
Q 1900 4147 1563 4147 
Q 1259 4147 1065 3961 
Q 872 3775 872 3484 
Q 872 3231 1022 3051 
Q 1172 2872 1694 2491 
L 1694 2491 
Q 1950 2663 2081 2838 
Q 2284 3100 2284 3450 
z
M 850 991 
Q 850 572 1065 331 
Q 1281 91 1659 91 
Q 1994 91 2184 284 
Q 2375 478 2375 816 
Q 2375 1109 2192 1326 
Q 2009 1544 1366 2003 
L 1366 2003 
Q 1134 1816 1022 1634 
Q 850 1366 850 991 
z
" transform="scale(0.015625)"/>
       </defs>
       <use xlink:href="#Times-Roman-30"/>
       <use xlink:href="#Times-Roman-2e" transform="translate(50 0)"/>
       <use xlink:href="#Times-Roman-38" transform="translate(75 0)"/>
      </g>
     </g>
    </g>
    <g id="ytick_6">
     <g id="line2d_11">
      <g>
       <use xlink:href="#m2abeec90de" x="88.050946" y="18.238125" style="stroke: #000000; stroke-width: 0.8"/>
      </g>
     </g>
     <g id="text_11">
      <!-- 1.0 -->
      <g transform="translate(53.550946 25.7525) scale(0.22 -0.22)">
       <defs>
        <path id="Times-Roman-31" d="M 1359 678 
L 1359 3497 
Q 1359 3756 1223 3789 
Q 1088 3822 709 3650 
L 709 3744 
L 1297 4031 
L 1888 4322 
L 1916 4303 
L 1916 678 
Q 1916 338 2033 233 
Q 2150 128 2534 122 
L 2534 0 
L 1638 0 
L 741 0 
L 741 122 
Q 1125 128 1244 234 
Q 1359 338 1359 678 
z
" transform="scale(0.015625)"/>
       </defs>
       <use xlink:href="#Times-Roman-31"/>
       <use xlink:href="#Times-Roman-2e" transform="translate(50 0)"/>
       <use xlink:href="#Times-Roman-30" transform="translate(75 0)"/>
      </g>
     </g>
    </g>
   </g>
   <g id="patch_83">
    <path d="M 88.050946 454.678678 
L 88.050946 18.238125 
" style="fill: none; stroke: #000000; stroke-width: 1.5; stroke-linejoin: miter; stroke-linecap: square"/>
   </g>
   <g id="patch_84">
    <path d="M 524.735113 454.678678 
L 524.735113 18.238125 
" style="fill: none; stroke: #000000; stroke-width: 1.5; stroke-linejoin: miter; stroke-linecap: square"/>
   </g>
   <g id="patch_85">
    <path d="M 88.050946 454.678678 
L 524.735113 454.678678 
" style="fill: none; stroke: #000000; stroke-width: 1.5; stroke-linejoin: miter; stroke-linecap: square"/>
   </g>
   <g id="patch_86">
    <path d="M 88.050946 18.238125 
L 524.735113 18.238125 
" style="fill: none; stroke: #000000; stroke-width: 1.5; stroke-linejoin: miter; stroke-linecap: square"/>
   </g>
   <g id="text_12">
    <!-- L -->
    <g transform="translate(109.987071 441.775231) scale(0.2 -0.2)">
     <defs>
      <path id="Times-Roman-4c" d="M 78 0 
L 78 122 
Q 428 128 534 233 
Q 641 338 641 678 
L 641 3559 
Q 641 3900 534 4004 
Q 428 4109 78 4116 
L 78 4238 
L 994 4238 
L 1913 4238 
L 1913 4116 
Q 1528 4109 1411 4004 
Q 1294 3900 1294 3559 
L 1294 538 
Q 1294 363 1353 303 
Q 1413 244 1588 244 
L 2031 244 
Q 2809 244 3118 409 
Q 3428 575 3659 1113 
L 3825 1113 
L 3684 556 
L 3541 0 
L 3541 0 
L 1294 0 
L 1294 0 
L 78 0 
z
" transform="scale(0.015625)"/>
     </defs>
     <use xlink:href="#Times-Roman-4c"/>
    </g>
   </g>
   <g id="text_13">
    <!-- H -->
    <g transform="translate(125.262323 441.775231) scale(0.2 -0.2)">
     <defs>
      <path id="Times-Roman-48" d="M 684 678 
L 684 3559 
Q 684 3900 578 4004 
Q 472 4109 122 4116 
L 122 4238 
L 1038 4238 
L 1956 4238 
L 1956 4116 
Q 1572 4109 1455 4004 
Q 1338 3900 1338 3559 
L 1338 2291 
L 1338 2291 
L 3278 2291 
L 3278 2291 
L 3278 3559 
Q 3278 3900 3161 4004 
Q 3044 4109 2659 4116 
L 2659 4238 
L 3575 4238 
L 4494 4238 
L 4494 4116 
Q 4144 4109 4037 4004 
Q 3931 3900 3931 3559 
L 3931 678 
Q 3931 338 4037 233 
Q 4144 128 4494 122 
L 4494 0 
L 3578 0 
L 2659 0 
L 2659 122 
Q 3044 128 3161 233 
Q 3278 338 3278 678 
L 3278 2028 
L 3278 2028 
L 1338 2028 
L 1338 2028 
L 1338 678 
Q 1338 338 1455 233 
Q 1572 128 1956 122 
L 1956 0 
L 1041 0 
L 122 0 
L 122 122 
Q 472 128 578 234 
Q 684 338 684 678 
z
" transform="scale(0.015625)"/>
     </defs>
     <use xlink:href="#Times-Roman-48"/>
    </g>
   </g>
   <g id="text_14">
    <!-- L -->
    <g transform="translate(201.038816 441.775231) scale(0.2 -0.2)">
     <use xlink:href="#Times-Roman-4c"/>
    </g>
   </g>
   <g id="text_15">
    <!-- H -->
    <g transform="translate(216.314067 441.775231) scale(0.2 -0.2)">
     <use xlink:href="#Times-Roman-48"/>
    </g>
   </g>
   <g id="text_16">
    <!-- L -->
    <g transform="translate(292.09056 441.775231) scale(0.2 -0.2)">
     <use xlink:href="#Times-Roman-4c"/>
    </g>
   </g>
   <g id="text_17">
    <!-- H -->
    <g transform="translate(307.365812 441.775231) scale(0.2 -0.2)">
     <use xlink:href="#Times-Roman-48"/>
    </g>
   </g>
   <g id="text_18">
    <!-- L -->
    <g transform="translate(383.142305 441.775231) scale(0.2 -0.2)">
     <use xlink:href="#Times-Roman-4c"/>
    </g>
   </g>
   <g id="text_19">
    <!-- H -->
    <g transform="translate(398.417556 441.775231) scale(0.2 -0.2)">
     <use xlink:href="#Times-Roman-48"/>
    </g>
   </g>
   <g id="text_20">
    <!-- L -->
    <g transform="translate(474.194049 441.775231) scale(0.2 -0.2)">
     <use xlink:href="#Times-Roman-4c"/>
    </g>
   </g>
   <g id="text_21">
    <!-- H -->
    <g transform="translate(489.469301 441.775231) scale(0.2 -0.2)">
     <use xlink:href="#Times-Roman-48"/>
    </g>
   </g>
   <g id="legend_1">
    <g id="patch_87">
     <path d="M 541.701955 261.879375 
L 725.777267 261.879375 
Q 729.377267 261.879375 729.377267 258.279375 
L 729.377267 30.838125 
Q 729.377267 27.238125 725.777267 27.238125 
L 541.701955 27.238125 
Q 538.101955 27.238125 538.101955 30.838125 
L 538.101955 258.279375 
Q 538.101955 261.879375 541.701955 261.879375 
z
" style="fill: #ffffff; opacity: 0.8; stroke: #cccccc; stroke-linejoin: miter"/>
    </g>
    <g id="text_22">
     <!-- Response -->
     <g transform="translate(599.24008 46.734375) scale(0.18 -0.18)">
      <defs>
       <path id="Times-Roman-52" d="M 653 678 
L 653 3559 
Q 653 3900 550 4004 
Q 447 4109 109 4116 
L 109 4238 
L 978 4238 
L 978 4238 
L 1909 4238 
Q 2653 4238 3075 3942 
Q 3497 3647 3497 3128 
Q 3497 2591 3038 2284 
Q 2766 2106 2375 2028 
L 2375 2028 
L 3441 678 
Q 3713 334 3859 229 
Q 4006 125 4209 122 
L 4209 0 
L 3878 0 
L 3178 0 
L 1684 1978 
L 1684 1978 
Q 1488 1978 1306 1966 
L 1306 1966 
L 1306 678 
Q 1306 338 1423 233 
Q 1541 128 1925 122 
L 1925 0 
L 1019 0 
L 109 0 
L 109 122 
Q 447 128 550 234 
Q 653 338 653 678 
z
M 1306 2188 
L 1306 2188 
Q 1375 2194 1441 2188 
Q 2131 2188 2467 2420 
Q 2803 2653 2803 3134 
Q 2803 3559 2522 3784 
Q 2241 4009 1709 4009 
Q 1616 4009 1525 3997 
Q 1394 3981 1350 3926 
Q 1306 3872 1306 3728 
L 1306 2188 
z
" transform="scale(0.015625)"/>
      </defs>
      <use xlink:href="#Times-Roman-52"/>
      <use xlink:href="#Times-Roman-65" transform="translate(66.699219 0)"/>
      <use xlink:href="#Times-Roman-73" transform="translate(111.083984 0)"/>
      <use xlink:href="#Times-Roman-70" transform="translate(150 0)"/>
      <use xlink:href="#Times-Roman-6f" transform="translate(200 0)"/>
      <use xlink:href="#Times-Roman-6e" transform="translate(250 0)"/>
      <use xlink:href="#Times-Roman-73" transform="translate(300 0)"/>
      <use xlink:href="#Times-Roman-65" transform="translate(338.916016 0)"/>
     </g>
    </g>
    <g id="patch_88">
     <path d="M 545.301955 72.226875 
L 581.301955 72.226875 
L 581.301955 59.626875 
L 545.301955 59.626875 
z
" style="fill: #d73027; stroke: #000000; stroke-linejoin: miter"/>
    </g>
    <g id="text_23">
     <!-- Yes -->
     <g transform="translate(595.701955 72.226875) scale(0.18 -0.18)">
      <defs>
       <path id="Times-Roman-59" d="M 2016 1869 
L 2016 1869 
L 869 3559 
Q 628 3900 490 4006 
Q 353 4113 141 4116 
L 141 4238 
L 1022 4238 
L 1906 4238 
L 1906 4116 
Q 1531 4109 1484 4004 
Q 1438 3900 1659 3559 
L 2541 2222 
L 2541 2222 
L 3263 3338 
Q 3575 3816 3550 3962 
Q 3525 4109 3134 4116 
L 3134 4238 
L 3819 4238 
L 4503 4238 
L 4503 4116 
Q 4259 4113 4114 4006 
Q 3969 3900 3738 3559 
L 2669 1963 
L 2669 1963 
L 2669 678 
Q 2669 338 2786 233 
Q 2903 128 3288 122 
L 3288 0 
L 2344 0 
L 1397 0 
L 1397 122 
Q 1781 128 1898 233 
Q 2016 338 2016 678 
L 2016 1869 
z
" transform="scale(0.015625)"/>
      </defs>
      <use xlink:href="#Times-Roman-59"/>
      <use xlink:href="#Times-Roman-65" transform="translate(72.216797 0)"/>
      <use xlink:href="#Times-Roman-73" transform="translate(116.601562 0)"/>
     </g>
    </g>
    <g id="patch_89">
     <path d="M 545.301955 97.719375 
L 581.301955 97.719375 
L 581.301955 85.119375 
L 545.301955 85.119375 
z
" style="fill: #fc8d59; stroke: #000000; stroke-linejoin: miter"/>
    </g>
    <g id="text_24">
     <!-- Somewhat -->
     <g transform="translate(595.701955 97.719375) scale(0.18 -0.18)">
      <defs>
       <path id="Times-Roman-53" d="M 2850 2966 
Q 2744 3447 2406 3756 
Q 2069 4066 1650 4066 
Q 1366 4066 1184 3897 
Q 1003 3728 1003 3466 
Q 1003 3209 1172 3019 
Q 1341 2828 1800 2566 
Q 2588 2116 2866 1806 
Q 3144 1500 3144 1081 
Q 3144 569 2764 240 
Q 2384 -88 1794 -88 
Q 1413 -88 947 100 
Q 806 156 709 114 
Q 613 72 603 -50 
L 600 -88 
L 463 -88 
L 463 -88 
L 269 1272 
L 269 1272 
L 416 1272 
Q 613 719 952 430 
Q 1291 141 1738 141 
Q 2069 141 2281 341 
Q 2494 541 2494 856 
Q 2494 1163 2291 1391 
Q 2091 1619 1541 1931 
Q 903 2294 678 2566 
Q 453 2838 453 3241 
Q 453 3716 776 4019 
Q 1100 4322 1606 4322 
Q 1913 4322 2328 4147 
Q 2484 4081 2586 4117 
Q 2688 4153 2722 4284 
L 2731 4322 
L 2866 4322 
L 2866 4322 
L 3016 2966 
L 3016 2966 
L 2850 2966 
z
" transform="scale(0.015625)"/>
       <path id="Times-Roman-77" d="M 1450 -47 
L 522 2284 
Q 394 2594 320 2687 
Q 247 2781 134 2784 
L 134 2878 
L 706 2878 
L 1278 2878 
L 1278 2784 
Q 1034 2772 992 2687 
Q 950 2603 1050 2334 
L 1672 694 
L 1672 694 
L 1672 694 
L 2259 2006 
L 2259 2006 
L 2150 2284 
Q 2028 2594 1940 2687 
Q 1853 2781 1691 2784 
L 1691 2878 
L 2328 2878 
L 2966 2878 
L 2966 2784 
Q 2669 2772 2623 2651 
Q 2578 2531 2728 2156 
L 3266 731 
L 3266 731 
L 3266 731 
L 3784 2084 
Q 3953 2509 3925 2643 
Q 3897 2778 3638 2784 
L 3638 2878 
L 4041 2878 
L 4447 2878 
L 4447 2784 
Q 4353 2781 4287 2687 
Q 4222 2594 4100 2284 
L 3188 -47 
Q 3172 -88 3128 -88 
L 3128 -88 
Q 3084 -88 3069 -47 
L 2375 1713 
L 2375 1713 
L 2375 1713 
L 1572 -47 
Q 1553 -88 1509 -88 
L 1509 -88 
Q 1469 -88 1450 -47 
z
" transform="scale(0.015625)"/>
      </defs>
      <use xlink:href="#Times-Roman-53"/>
      <use xlink:href="#Times-Roman-6f" transform="translate(55.615234 0)"/>
      <use xlink:href="#Times-Roman-6d" transform="translate(105.615234 0)"/>
      <use xlink:href="#Times-Roman-65" transform="translate(183.398438 0)"/>
      <use xlink:href="#Times-Roman-77" transform="translate(227.783203 0)"/>
      <use xlink:href="#Times-Roman-68" transform="translate(300 0)"/>
      <use xlink:href="#Times-Roman-61" transform="translate(350 0)"/>
      <use xlink:href="#Times-Roman-74" transform="translate(394.384766 0)"/>
     </g>
    </g>
    <g id="patch_90">
     <path d="M 545.301955 123.211875 
L 581.301955 123.211875 
L 581.301955 110.611875 
L 545.301955 110.611875 
z
" style="fill: #fdae61; stroke: #000000; stroke-linejoin: miter"/>
    </g>
    <g id="text_25">
     <!-- No -->
     <g transform="translate(595.701955 123.211875) scale(0.18 -0.18)">
      <defs>
       <path id="Times-Roman-4e" d="M 984 928 
Q 984 434 1101 281 
Q 1219 128 1603 122 
L 1603 0 
L 844 0 
L 84 0 
L 84 122 
Q 469 128 586 281 
Q 703 434 703 928 
L 703 3797 
Q 569 3944 475 4006 
Q 316 4113 78 4116 
L 78 4238 
L 638 4238 
L 1197 4238 
L 1197 4238 
L 3631 1184 
L 3631 1184 
L 3631 1184 
L 3631 3309 
Q 3631 3800 3514 3954 
Q 3397 4109 3013 4116 
L 3013 4238 
L 3772 4238 
L 4531 4238 
L 4531 4116 
Q 4147 4109 4030 3956 
Q 3913 3803 3913 3309 
L 3913 -69 
L 3863 -69 
L 3813 -69 
L 984 3475 
L 984 3475 
L 984 3475 
L 984 928 
z
" transform="scale(0.015625)"/>
      </defs>
      <use xlink:href="#Times-Roman-4e"/>
      <use xlink:href="#Times-Roman-6f" transform="translate(72.216797 0)"/>
     </g>
    </g>
    <g id="patch_91">
     <path d="M 545.301955 148.704375 
L 581.301955 148.704375 
L 581.301955 136.104375 
L 545.301955 136.104375 
z
" style="fill: #a50026; stroke: #000000; stroke-linejoin: miter"/>
    </g>
    <g id="text_26">
     <!-- Strongly agree -->
     <g transform="translate(595.701955 148.704375) scale(0.18 -0.18)">
      <use xlink:href="#Times-Roman-53"/>
      <use xlink:href="#Times-Roman-74" transform="translate(55.615234 0)"/>
      <use xlink:href="#Times-Roman-72" transform="translate(83.398438 0)"/>
      <use xlink:href="#Times-Roman-6f" transform="translate(116.699219 0)"/>
      <use xlink:href="#Times-Roman-6e" transform="translate(166.699219 0)"/>
      <use xlink:href="#Times-Roman-67" transform="translate(216.699219 0)"/>
      <use xlink:href="#Times-Roman-6c" transform="translate(266.699219 0)"/>
      <use xlink:href="#Times-Roman-79" transform="translate(294.482422 0)"/>
      <use xlink:href="#Times-Roman-20" transform="translate(344.482422 0)"/>
      <use xlink:href="#Times-Roman-61" transform="translate(369.482422 0)"/>
      <use xlink:href="#Times-Roman-67" transform="translate(413.867188 0)"/>
      <use xlink:href="#Times-Roman-72" transform="translate(463.867188 0)"/>
      <use xlink:href="#Times-Roman-65" transform="translate(497.167969 0)"/>
      <use xlink:href="#Times-Roman-65" transform="translate(541.552734 0)"/>
     </g>
    </g>
    <g id="patch_92">
     <path d="M 545.301955 174.225 
L 581.301955 174.225 
L 581.301955 161.625 
L 545.301955 161.625 
z
" style="fill: #de2d26; stroke: #000000; stroke-linejoin: miter"/>
    </g>
    <g id="text_27">
     <!-- Agree -->
     <g transform="translate(595.701955 174.225) scale(0.18 -0.18)">
      <defs>
       <path id="Times-Roman-41" d="M 675 678 
L 2228 4313 
L 2291 4313 
L 2353 4313 
L 3931 678 
Q 4088 338 4198 231 
Q 4309 125 4516 122 
L 4516 0 
L 3697 0 
L 2878 0 
L 2878 122 
Q 3259 128 3329 233 
Q 3400 338 3253 678 
L 2956 1381 
L 2956 1381 
L 1263 1381 
L 1263 1381 
L 1072 900 
Q 875 422 933 275 
Q 991 128 1381 122 
L 1381 0 
L 741 0 
L 97 0 
L 97 122 
Q 300 125 409 231 
Q 519 338 675 678 
z
M 2109 3391 
L 1378 1644 
L 1378 1644 
L 2844 1644 
L 2844 1644 
L 2109 3391 
L 2109 3391 
L 2109 3391 
z
" transform="scale(0.015625)"/>
      </defs>
      <use xlink:href="#Times-Roman-41"/>
      <use xlink:href="#Times-Roman-67" transform="translate(72.216797 0)"/>
      <use xlink:href="#Times-Roman-72" transform="translate(122.216797 0)"/>
      <use xlink:href="#Times-Roman-65" transform="translate(155.517578 0)"/>
      <use xlink:href="#Times-Roman-65" transform="translate(199.902344 0)"/>
     </g>
    </g>
    <g id="patch_93">
     <path d="M 545.301955 199.745625 
L 581.301955 199.745625 
L 581.301955 187.145625 
L 545.301955 187.145625 
z
" style="fill: #fb6a4a; stroke: #000000; stroke-linejoin: miter"/>
    </g>
    <g id="text_28">
     <!-- Neutral -->
     <g transform="translate(595.701955 199.745625) scale(0.18 -0.18)">
      <use xlink:href="#Times-Roman-4e"/>
      <use xlink:href="#Times-Roman-65" transform="translate(72.216797 0)"/>
      <use xlink:href="#Times-Roman-75" transform="translate(116.601562 0)"/>
      <use xlink:href="#Times-Roman-74" transform="translate(166.601562 0)"/>
      <use xlink:href="#Times-Roman-72" transform="translate(194.384766 0)"/>
      <use xlink:href="#Times-Roman-61" transform="translate(227.685547 0)"/>
      <use xlink:href="#Times-Roman-6c" transform="translate(272.070312 0)"/>
     </g>
    </g>
    <g id="patch_94">
     <path d="M 545.301955 225.238125 
L 581.301955 225.238125 
L 581.301955 212.638125 
L 545.301955 212.638125 
z
" style="fill: #fcae91; stroke: #000000; stroke-linejoin: miter"/>
    </g>
    <g id="text_29">
     <!-- Disagree -->
     <g transform="translate(595.701955 225.238125) scale(0.18 -0.18)">
      <defs>
       <path id="Times-Roman-44" d="M 666 678 
L 666 3559 
Q 666 3900 559 4004 
Q 453 4109 103 4116 
L 103 4238 
L 991 4238 
L 991 4238 
L 1741 4238 
Q 3031 4238 3707 3694 
Q 4384 3150 4384 2116 
Q 4384 1125 3712 562 
Q 3041 0 1856 0 
L 991 0 
L 991 0 
L 103 0 
L 103 122 
Q 453 128 559 234 
Q 666 338 666 678 
z
M 1319 594 
Q 1319 400 1376 331 
Q 1434 263 1606 250 
L 1816 234 
Q 2709 234 3196 726 
Q 3684 1219 3684 2116 
Q 3684 3016 3165 3509 
Q 2647 4003 1697 4003 
L 1541 3997 
Q 1406 3994 1362 3939 
Q 1319 3884 1319 3722 
L 1319 594 
z
" transform="scale(0.015625)"/>
      </defs>
      <use xlink:href="#Times-Roman-44"/>
      <use xlink:href="#Times-Roman-69" transform="translate(72.216797 0)"/>
      <use xlink:href="#Times-Roman-73" transform="translate(100 0)"/>
      <use xlink:href="#Times-Roman-61" transform="translate(138.916016 0)"/>
      <use xlink:href="#Times-Roman-67" transform="translate(183.300781 0)"/>
      <use xlink:href="#Times-Roman-72" transform="translate(233.300781 0)"/>
      <use xlink:href="#Times-Roman-65" transform="translate(266.601562 0)"/>
      <use xlink:href="#Times-Roman-65" transform="translate(310.986328 0)"/>
     </g>
    </g>
    <g id="patch_95">
     <path d="M 545.301955 250.75875 
L 581.301955 250.75875 
L 581.301955 238.15875 
L 545.301955 238.15875 
z
" style="fill: #fee5d9; stroke: #000000; stroke-linejoin: miter"/>
    </g>
    <g id="text_30">
     <!-- Strongly disagree -->
     <g transform="translate(595.701955 250.75875) scale(0.18 -0.18)">
      <defs>
       <path id="Times-Roman-64" d="M 1350 -63 
Q 809 -63 490 317 
Q 172 697 172 1341 
Q 172 1994 564 2469 
Q 956 2944 1494 2944 
Q 1822 2947 2172 2666 
L 2172 2666 
L 2172 3609 
Q 2172 3891 2095 3958 
Q 2019 4025 1738 3994 
L 1738 4088 
Q 2013 4159 2209 4219 
Q 2409 4278 2681 4372 
L 2709 4353 
L 2709 734 
Q 2709 503 2789 436 
Q 2869 369 3144 369 
L 3144 266 
L 2678 103 
L 2209 -63 
L 2181 -44 
L 2181 372 
L 2181 372 
Q 1866 -63 1350 -63 
z
M 1506 2763 
Q 1150 2763 939 2433 
Q 728 2103 728 1547 
Q 728 963 964 616 
Q 1200 269 1597 269 
Q 1847 269 2025 413 
Q 2109 481 2140 559 
Q 2172 638 2172 784 
L 2172 2006 
Q 2172 2147 2131 2292 
Q 2091 2438 2034 2513 
Q 1838 2763 1506 2763 
z
" transform="scale(0.015625)"/>
      </defs>
      <use xlink:href="#Times-Roman-53"/>
      <use xlink:href="#Times-Roman-74" transform="translate(55.615234 0)"/>
      <use xlink:href="#Times-Roman-72" transform="translate(83.398438 0)"/>
      <use xlink:href="#Times-Roman-6f" transform="translate(116.699219 0)"/>
      <use xlink:href="#Times-Roman-6e" transform="translate(166.699219 0)"/>
      <use xlink:href="#Times-Roman-67" transform="translate(216.699219 0)"/>
      <use xlink:href="#Times-Roman-6c" transform="translate(266.699219 0)"/>
      <use xlink:href="#Times-Roman-79" transform="translate(294.482422 0)"/>
      <use xlink:href="#Times-Roman-20" transform="translate(344.482422 0)"/>
      <use xlink:href="#Times-Roman-64" transform="translate(369.482422 0)"/>
      <use xlink:href="#Times-Roman-69" transform="translate(419.482422 0)"/>
      <use xlink:href="#Times-Roman-73" transform="translate(447.265625 0)"/>
      <use xlink:href="#Times-Roman-61" transform="translate(486.181641 0)"/>
      <use xlink:href="#Times-Roman-67" transform="translate(530.566406 0)"/>
      <use xlink:href="#Times-Roman-72" transform="translate(580.566406 0)"/>
      <use xlink:href="#Times-Roman-65" transform="translate(613.867188 0)"/>
      <use xlink:href="#Times-Roman-65" transform="translate(658.251953 0)"/>
     </g>
    </g>
   </g>
  </g>
  <g id="axes_2">
   <g id="patch_96">
    <path d="M 806.40952 454.678678 
L 951.970909 454.678678 
L 951.970909 18.238125 
L 806.40952 18.238125 
z
" style="fill: #ffffff"/>
   </g>
   <g id="patch_97">
    <path d="M 813.025947 454.678678 
L 850.8341 454.678678 
L 850.8341 176.188039 
L 813.025947 176.188039 
z
" clip-path="url(#p051d3b4571)" style="fill: #4575b4; stroke: #000000; stroke-linejoin: miter"/>
   </g>
   <g id="patch_98">
    <path d="M 813.025947 176.188039 
L 850.8341 176.188039 
L 850.8341 47.334162 
L 813.025947 47.334162 
z
" clip-path="url(#p051d3b4571)" style="fill: #74add1; stroke: #000000; stroke-linejoin: miter"/>
   </g>
   <g id="patch_99">
    <path d="M 813.025947 47.334162 
L 850.8341 47.334162 
L 850.8341 39.021008 
L 813.025947 39.021008 
z
" clip-path="url(#p051d3b4571)" style="fill: #a6bddb; stroke: #000000; stroke-linejoin: miter"/>
   </g>
   <g id="patch_100">
    <path d="M 907.546329 454.678678 
L 945.354482 454.678678 
L 945.354482 263.47615 
L 907.546329 263.47615 
z
" clip-path="url(#p051d3b4571)" style="fill: #313695; stroke: #000000; stroke-linejoin: miter"/>
   </g>
   <g id="patch_101">
    <path d="M 907.546329 263.47615 
L 945.354482 263.47615 
L 945.354482 88.899929 
L 907.546329 88.899929 
z
" clip-path="url(#p051d3b4571)" style="fill: #4575b4; stroke: #000000; stroke-linejoin: miter"/>
   </g>
   <g id="patch_102">
    <path d="M 907.546329 88.899929 
L 945.354482 88.899929 
L 945.354482 39.021008 
L 907.546329 39.021008 
z
" clip-path="url(#p051d3b4571)" style="fill: #74add1; stroke: #000000; stroke-linejoin: miter"/>
   </g>
   <g id="matplotlib.axis_3">
    <g id="xtick_6">
     <g id="line2d_12">
      <g>
       <use xlink:href="#mea0b383c91" x="831.930023" y="454.678678" style="stroke: #000000; stroke-width: 0.8"/>
      </g>
     </g>
     <g id="text_31">
      <!-- Cultural understanding -->
      <g transform="translate(735.577787 528.540274) rotate(-15) scale(0.22 -0.22)">
       <use xlink:href="#Times-Roman-43"/>
       <use xlink:href="#Times-Roman-75" transform="translate(66.699219 0)"/>
       <use xlink:href="#Times-Roman-6c" transform="translate(116.699219 0)"/>
       <use xlink:href="#Times-Roman-74" transform="translate(144.482422 0)"/>
       <use xlink:href="#Times-Roman-75" transform="translate(172.265625 0)"/>
       <use xlink:href="#Times-Roman-72" transform="translate(222.265625 0)"/>
       <use xlink:href="#Times-Roman-61" transform="translate(255.566406 0)"/>
       <use xlink:href="#Times-Roman-6c" transform="translate(299.951172 0)"/>
       <use xlink:href="#Times-Roman-20" transform="translate(327.734375 0)"/>
       <use xlink:href="#Times-Roman-75" transform="translate(352.734375 0)"/>
       <use xlink:href="#Times-Roman-6e" transform="translate(402.734375 0)"/>
       <use xlink:href="#Times-Roman-64" transform="translate(452.734375 0)"/>
       <use xlink:href="#Times-Roman-65" transform="translate(502.734375 0)"/>
       <use xlink:href="#Times-Roman-72" transform="translate(547.119141 0)"/>
       <use xlink:href="#Times-Roman-73" transform="translate(580.419922 0)"/>
       <use xlink:href="#Times-Roman-74" transform="translate(619.335938 0)"/>
       <use xlink:href="#Times-Roman-61" transform="translate(647.119141 0)"/>
       <use xlink:href="#Times-Roman-6e" transform="translate(691.503906 0)"/>
       <use xlink:href="#Times-Roman-64" transform="translate(741.503906 0)"/>
       <use xlink:href="#Times-Roman-69" transform="translate(791.503906 0)"/>
       <use xlink:href="#Times-Roman-6e" transform="translate(819.287109 0)"/>
       <use xlink:href="#Times-Roman-67" transform="translate(869.287109 0)"/>
      </g>
     </g>
    </g>
    <g id="xtick_7">
     <g id="line2d_13">
      <g>
       <use xlink:href="#mea0b383c91" x="926.450406" y="454.678678" style="stroke: #000000; stroke-width: 0.8"/>
      </g>
     </g>
     <g id="text_32">
      <!-- Usefulness for training -->
      <g transform="translate(830.398663 528.37924) rotate(-15) scale(0.22 -0.22)">
       <defs>
        <path id="Times-Roman-55" d="M 3913 1534 
Q 3916 719 3512 315 
Q 3109 -88 2294 -88 
Q 1469 -88 1072 309 
Q 675 706 672 1534 
L 672 3559 
Q 672 3900 561 4004 
Q 450 4109 91 4116 
L 91 4238 
L 1016 4238 
L 1944 4238 
L 1944 4116 
Q 1559 4109 1442 4004 
Q 1325 3900 1325 3559 
L 1325 1463 
Q 1325 800 1590 495 
Q 1856 191 2431 191 
Q 3031 191 3331 508 
Q 3631 825 3631 1463 
L 3631 3309 
Q 3631 3803 3514 3956 
Q 3397 4109 3013 4116 
L 3013 4238 
L 3763 4238 
L 4513 4238 
L 4513 4116 
Q 4141 4109 4027 3956 
Q 3913 3803 3913 3309 
L 3913 1534 
z
" transform="scale(0.015625)"/>
        <path id="Times-Roman-66" d="M 1200 2675 
L 1200 2675 
L 1200 594 
Q 1200 291 1312 195 
Q 1425 100 1794 94 
L 1794 0 
L 963 0 
L 128 0 
L 128 94 
Q 459 100 561 195 
Q 663 291 663 594 
L 663 2675 
L 663 2675 
L 134 2675 
L 134 2878 
L 663 2878 
L 663 2878 
Q 663 3619 950 3995 
Q 1238 4372 1803 4372 
Q 2075 4372 2261 4259 
Q 2447 4147 2447 3984 
Q 2447 3863 2372 3788 
Q 2297 3713 2175 3713 
Q 2100 3713 2039 3763 
Q 1978 3813 1897 3938 
Q 1803 4081 1733 4136 
Q 1663 4191 1569 4191 
Q 1378 4191 1289 4050 
Q 1200 3909 1200 3609 
L 1200 2878 
L 1200 2878 
L 1978 2878 
L 1978 2675 
L 1200 2675 
z
" transform="scale(0.015625)"/>
       </defs>
       <use xlink:href="#Times-Roman-55"/>
       <use xlink:href="#Times-Roman-73" transform="translate(72.216797 0)"/>
       <use xlink:href="#Times-Roman-65" transform="translate(111.132812 0)"/>
       <use xlink:href="#Times-Roman-66" transform="translate(155.517578 0)"/>
       <use xlink:href="#Times-Roman-75" transform="translate(188.818359 0)"/>
       <use xlink:href="#Times-Roman-6c" transform="translate(238.818359 0)"/>
       <use xlink:href="#Times-Roman-6e" transform="translate(266.601562 0)"/>
       <use xlink:href="#Times-Roman-65" transform="translate(316.601562 0)"/>
       <use xlink:href="#Times-Roman-73" transform="translate(360.986328 0)"/>
       <use xlink:href="#Times-Roman-73" transform="translate(399.902344 0)"/>
       <use xlink:href="#Times-Roman-20" transform="translate(438.818359 0)"/>
       <use xlink:href="#Times-Roman-66" transform="translate(463.818359 0)"/>
       <use xlink:href="#Times-Roman-6f" transform="translate(497.119141 0)"/>
       <use xlink:href="#Times-Roman-72" transform="translate(547.119141 0)"/>
       <use xlink:href="#Times-Roman-20" transform="translate(580.419922 0)"/>
       <use xlink:href="#Times-Roman-74" transform="translate(605.419922 0)"/>
       <use xlink:href="#Times-Roman-72" transform="translate(633.203125 0)"/>
       <use xlink:href="#Times-Roman-61" transform="translate(666.503906 0)"/>
       <use xlink:href="#Times-Roman-69" transform="translate(710.888672 0)"/>
       <use xlink:href="#Times-Roman-6e" transform="translate(738.671875 0)"/>
       <use xlink:href="#Times-Roman-69" transform="translate(788.671875 0)"/>
       <use xlink:href="#Times-Roman-6e" transform="translate(816.455078 0)"/>
       <use xlink:href="#Times-Roman-67" transform="translate(866.455078 0)"/>
      </g>
     </g>
    </g>
   </g>
   <g id="matplotlib.axis_4">
    <g id="ytick_7">
     <g id="line2d_14">
      <g>
       <use xlink:href="#m2abeec90de" x="806.40952" y="454.678678" style="stroke: #000000; stroke-width: 0.8"/>
      </g>
     </g>
     <g id="text_33">
      <!-- 0.0 -->
      <g transform="translate(771.90952 462.193053) scale(0.22 -0.22)">
       <use xlink:href="#Times-Roman-30"/>
       <use xlink:href="#Times-Roman-2e" transform="translate(50 0)"/>
       <use xlink:href="#Times-Roman-30" transform="translate(75 0)"/>
      </g>
     </g>
    </g>
    <g id="ytick_8">
     <g id="line2d_15">
      <g>
       <use xlink:href="#m2abeec90de" x="806.40952" y="371.547144" style="stroke: #000000; stroke-width: 0.8"/>
      </g>
     </g>
     <g id="text_34">
      <!-- 0.2 -->
      <g transform="translate(771.90952 379.061519) scale(0.22 -0.22)">
       <use xlink:href="#Times-Roman-30"/>
       <use xlink:href="#Times-Roman-2e" transform="translate(50 0)"/>
       <use xlink:href="#Times-Roman-32" transform="translate(75 0)"/>
      </g>
     </g>
    </g>
    <g id="ytick_9">
     <g id="line2d_16">
      <g>
       <use xlink:href="#m2abeec90de" x="806.40952" y="288.41561" style="stroke: #000000; stroke-width: 0.8"/>
      </g>
     </g>
     <g id="text_35">
      <!-- 0.4 -->
      <g transform="translate(771.90952 295.929985) scale(0.22 -0.22)">
       <use xlink:href="#Times-Roman-30"/>
       <use xlink:href="#Times-Roman-2e" transform="translate(50 0)"/>
       <use xlink:href="#Times-Roman-34" transform="translate(75 0)"/>
      </g>
     </g>
    </g>
    <g id="ytick_10">
     <g id="line2d_17">
      <g>
       <use xlink:href="#m2abeec90de" x="806.40952" y="205.284076" style="stroke: #000000; stroke-width: 0.8"/>
      </g>
     </g>
     <g id="text_36">
      <!-- 0.6 -->
      <g transform="translate(771.90952 212.798451) scale(0.22 -0.22)">
       <use xlink:href="#Times-Roman-30"/>
       <use xlink:href="#Times-Roman-2e" transform="translate(50 0)"/>
       <use xlink:href="#Times-Roman-36" transform="translate(75 0)"/>
      </g>
     </g>
    </g>
    <g id="ytick_11">
     <g id="line2d_18">
      <g>
       <use xlink:href="#m2abeec90de" x="806.40952" y="122.152542" style="stroke: #000000; stroke-width: 0.8"/>
      </g>
     </g>
     <g id="text_37">
      <!-- 0.8 -->
      <g transform="translate(771.90952 129.666917) scale(0.22 -0.22)">
       <use xlink:href="#Times-Roman-30"/>
       <use xlink:href="#Times-Roman-2e" transform="translate(50 0)"/>
       <use xlink:href="#Times-Roman-38" transform="translate(75 0)"/>
      </g>
     </g>
    </g>
    <g id="ytick_12">
     <g id="line2d_19">
      <g>
       <use xlink:href="#m2abeec90de" x="806.40952" y="39.021008" style="stroke: #000000; stroke-width: 0.8"/>
      </g>
     </g>
     <g id="text_38">
      <!-- 1.0 -->
      <g transform="translate(771.90952 46.535383) scale(0.22 -0.22)">
       <use xlink:href="#Times-Roman-31"/>
       <use xlink:href="#Times-Roman-2e" transform="translate(50 0)"/>
       <use xlink:href="#Times-Roman-30" transform="translate(75 0)"/>
      </g>
     </g>
    </g>
   </g>
   <g id="patch_103">
    <path d="M 806.40952 454.678678 
L 806.40952 18.238125 
" style="fill: none; stroke: #000000; stroke-width: 1.5; stroke-linejoin: miter; stroke-linecap: square"/>
   </g>
   <g id="patch_104">
    <path d="M 951.970909 454.678678 
L 951.970909 18.238125 
" style="fill: none; stroke: #000000; stroke-width: 1.5; stroke-linejoin: miter; stroke-linecap: square"/>
   </g>
   <g id="patch_105">
    <path d="M 806.40952 454.678678 
L 951.970909 454.678678 
" style="fill: none; stroke: #000000; stroke-width: 1.5; stroke-linejoin: miter; stroke-linecap: square"/>
   </g>
   <g id="patch_106">
    <path d="M 806.40952 18.238125 
L 951.970909 18.238125 
" style="fill: none; stroke: #000000; stroke-width: 1.5; stroke-linejoin: miter; stroke-linecap: square"/>
   </g>
   <g id="legend_2">
    <g id="patch_107">
     <path d="M 966.026523 210.829688 
L 1137.10246 210.829688 
Q 1140.70246 210.829688 1140.70246 207.229688 
L 1140.70246 30.838125 
Q 1140.70246 27.238125 1137.10246 27.238125 
L 966.026523 27.238125 
Q 962.426523 27.238125 962.426523 30.838125 
L 962.426523 207.229688 
Q 962.426523 210.829688 966.026523 210.829688 
z
" style="fill: #ffffff; opacity: 0.8; stroke: #cccccc; stroke-linejoin: miter"/>
    </g>
    <g id="text_39">
     <!-- Response -->
     <g transform="translate(1017.06496 46.734375) scale(0.18 -0.18)">
      <use xlink:href="#Times-Roman-52"/>
      <use xlink:href="#Times-Roman-65" transform="translate(66.699219 0)"/>
      <use xlink:href="#Times-Roman-73" transform="translate(111.083984 0)"/>
      <use xlink:href="#Times-Roman-70" transform="translate(150 0)"/>
      <use xlink:href="#Times-Roman-6f" transform="translate(200 0)"/>
      <use xlink:href="#Times-Roman-6e" transform="translate(250 0)"/>
      <use xlink:href="#Times-Roman-73" transform="translate(300 0)"/>
      <use xlink:href="#Times-Roman-65" transform="translate(338.916016 0)"/>
     </g>
    </g>
    <g id="patch_108">
     <path d="M 969.626523 72.226875 
L 1005.626523 72.226875 
L 1005.626523 59.626875 
L 969.626523 59.626875 
z
" style="fill: #4575b4; stroke: #000000; stroke-linejoin: miter"/>
    </g>
    <g id="text_40">
     <!-- Yes -->
     <g transform="translate(1020.026523 72.226875) scale(0.18 -0.18)">
      <use xlink:href="#Times-Roman-59"/>
      <use xlink:href="#Times-Roman-65" transform="translate(72.216797 0)"/>
      <use xlink:href="#Times-Roman-73" transform="translate(116.601562 0)"/>
     </g>
    </g>
    <g id="patch_109">
     <path d="M 969.626523 97.719375 
L 1005.626523 97.719375 
L 1005.626523 85.119375 
L 969.626523 85.119375 
z
" style="fill: #74add1; stroke: #000000; stroke-linejoin: miter"/>
    </g>
    <g id="text_41">
     <!-- Partially -->
     <g transform="translate(1020.026523 97.719375) scale(0.18 -0.18)">
      <defs>
       <path id="Times-Roman-50" d="M 647 678 
L 647 3559 
Q 647 3900 544 4006 
Q 441 4113 103 4116 
L 103 4238 
L 972 4238 
L 972 4238 
L 1778 4238 
Q 2569 4238 3019 3938 
Q 3469 3638 3469 3113 
Q 3469 2497 3036 2173 
Q 2603 1850 1778 1850 
Q 1519 1850 1300 1866 
L 1300 1866 
L 1300 678 
Q 1300 338 1417 233 
Q 1534 128 1919 122 
L 1919 0 
L 1013 0 
L 103 0 
L 103 122 
Q 441 125 544 231 
Q 647 338 647 678 
z
M 1300 2119 
L 1300 2119 
Q 1438 2100 1578 2100 
Q 2184 2100 2479 2344 
Q 2775 2588 2775 3091 
Q 2775 3538 2467 3773 
Q 2159 4009 1578 4009 
L 1528 4006 
Q 1391 3997 1345 3947 
Q 1300 3897 1300 3756 
L 1300 2119 
z
" transform="scale(0.015625)"/>
      </defs>
      <use xlink:href="#Times-Roman-50"/>
      <use xlink:href="#Times-Roman-61" transform="translate(55.615234 0)"/>
      <use xlink:href="#Times-Roman-72" transform="translate(100 0)"/>
      <use xlink:href="#Times-Roman-74" transform="translate(133.300781 0)"/>
      <use xlink:href="#Times-Roman-69" transform="translate(161.083984 0)"/>
      <use xlink:href="#Times-Roman-61" transform="translate(188.867188 0)"/>
      <use xlink:href="#Times-Roman-6c" transform="translate(233.251953 0)"/>
      <use xlink:href="#Times-Roman-6c" transform="translate(261.035156 0)"/>
      <use xlink:href="#Times-Roman-79" transform="translate(288.818359 0)"/>
     </g>
    </g>
    <g id="patch_110">
     <path d="M 969.626523 123.231563 
L 1005.626523 123.231563 
L 1005.626523 110.631563 
L 969.626523 110.631563 
z
" style="fill: #a6bddb; stroke: #000000; stroke-linejoin: miter"/>
    </g>
    <g id="text_42">
     <!-- No -->
     <g transform="translate(1020.026523 123.231563) scale(0.18 -0.18)">
      <use xlink:href="#Times-Roman-4e"/>
      <use xlink:href="#Times-Roman-6f" transform="translate(72.216797 0)"/>
     </g>
    </g>
    <g id="patch_111">
     <path d="M 969.626523 148.724063 
L 1005.626523 148.724063 
L 1005.626523 136.124063 
L 969.626523 136.124063 
z
" style="fill: #313695; stroke: #000000; stroke-linejoin: miter"/>
    </g>
    <g id="text_43">
     <!-- Strong example -->
     <g transform="translate(1020.026523 148.724063) scale(0.18 -0.18)">
      <defs>
       <path id="Times-Roman-78" d="M 622 494 
L 1297 1484 
L 1297 1484 
L 825 2234 
Q 619 2559 492 2664 
Q 366 2769 159 2784 
L 159 2878 
L 822 2878 
L 1488 2878 
L 1488 2784 
Q 1238 2778 1219 2661 
Q 1200 2544 1400 2247 
L 1603 1934 
L 1603 1934 
L 1603 1934 
L 1800 2225 
Q 2016 2531 2008 2654 
Q 2000 2778 1769 2784 
L 1769 2878 
L 2278 2878 
L 2791 2878 
L 2791 2784 
Q 2591 2781 2464 2686 
Q 2338 2591 2122 2284 
L 1741 1725 
L 1741 1725 
L 2478 594 
Q 2678 288 2793 192 
Q 2909 97 3091 94 
L 3091 0 
L 2434 0 
L 1778 0 
L 1778 94 
Q 2022 106 2044 190 
Q 2066 275 1894 544 
L 1431 1275 
L 1431 1275 
L 1431 1275 
L 913 513 
Q 756 281 786 190 
Q 816 100 1050 94 
L 1050 0 
L 581 0 
L 109 0 
L 109 94 
Q 256 97 353 172 
Q 450 247 622 494 
z
" transform="scale(0.015625)"/>
      </defs>
      <use xlink:href="#Times-Roman-53"/>
      <use xlink:href="#Times-Roman-74" transform="translate(55.615234 0)"/>
      <use xlink:href="#Times-Roman-72" transform="translate(83.398438 0)"/>
      <use xlink:href="#Times-Roman-6f" transform="translate(116.699219 0)"/>
      <use xlink:href="#Times-Roman-6e" transform="translate(166.699219 0)"/>
      <use xlink:href="#Times-Roman-67" transform="translate(216.699219 0)"/>
      <use xlink:href="#Times-Roman-20" transform="translate(266.699219 0)"/>
      <use xlink:href="#Times-Roman-65" transform="translate(291.699219 0)"/>
      <use xlink:href="#Times-Roman-78" transform="translate(336.083984 0)"/>
      <use xlink:href="#Times-Roman-61" transform="translate(386.083984 0)"/>
      <use xlink:href="#Times-Roman-6d" transform="translate(430.46875 0)"/>
      <use xlink:href="#Times-Roman-70" transform="translate(508.251953 0)"/>
      <use xlink:href="#Times-Roman-6c" transform="translate(558.251953 0)"/>
      <use xlink:href="#Times-Roman-65" transform="translate(586.035156 0)"/>
     </g>
    </g>
    <g id="patch_112">
     <path d="M 969.626523 174.244688 
L 1005.626523 174.244688 
L 1005.626523 161.644688 
L 969.626523 161.644688 
z
" style="fill: #4575b4; stroke: #000000; stroke-linejoin: miter"/>
    </g>
    <g id="text_44">
     <!-- With revision -->
     <g transform="translate(1020.026523 174.244688) scale(0.18 -0.18)">
      <defs>
       <path id="Times-Roman-57" d="M 1934 -69 
L 625 3559 
Q 497 3900 384 4006 
Q 272 4113 31 4116 
L 31 4238 
L 869 4238 
L 1709 4238 
L 1709 4116 
Q 1328 4109 1250 4003 
Q 1172 3897 1300 3559 
L 2184 1122 
L 2184 1122 
L 2184 1122 
L 2869 3041 
L 2869 3041 
L 2669 3559 
Q 2534 3900 2411 4006 
Q 2288 4113 2022 4116 
L 2022 4238 
L 2884 4238 
L 3750 4238 
L 3750 4116 
Q 3369 4109 3292 4004 
Q 3216 3900 3350 3559 
L 4266 1141 
L 4266 1141 
L 4266 1141 
L 5019 3338 
Q 5181 3816 5112 3962 
Q 5044 4109 4653 4116 
L 4653 4238 
L 5303 4238 
L 5956 4238 
L 5956 4116 
Q 5750 4113 5647 4006 
Q 5544 3900 5416 3559 
L 4128 -69 
L 4078 -69 
L 4028 -69 
L 3019 2625 
L 3019 2625 
L 3019 2625 
L 2034 -69 
L 1984 -69 
L 1934 -69 
z
" transform="scale(0.015625)"/>
      </defs>
      <use xlink:href="#Times-Roman-57"/>
      <use xlink:href="#Times-Roman-69" transform="translate(94.384766 0)"/>
      <use xlink:href="#Times-Roman-74" transform="translate(122.167969 0)"/>
      <use xlink:href="#Times-Roman-68" transform="translate(149.951172 0)"/>
      <use xlink:href="#Times-Roman-20" transform="translate(199.951172 0)"/>
      <use xlink:href="#Times-Roman-72" transform="translate(224.951172 0)"/>
      <use xlink:href="#Times-Roman-65" transform="translate(258.251953 0)"/>
      <use xlink:href="#Times-Roman-76" transform="translate(302.636719 0)"/>
      <use xlink:href="#Times-Roman-69" transform="translate(352.636719 0)"/>
      <use xlink:href="#Times-Roman-73" transform="translate(380.419922 0)"/>
      <use xlink:href="#Times-Roman-69" transform="translate(419.335938 0)"/>
      <use xlink:href="#Times-Roman-6f" transform="translate(447.119141 0)"/>
      <use xlink:href="#Times-Roman-6e" transform="translate(497.119141 0)"/>
     </g>
    </g>
    <g id="patch_113">
     <path d="M 969.626523 199.737188 
L 1005.626523 199.737188 
L 1005.626523 187.137188 
L 969.626523 187.137188 
z
" style="fill: #74add1; stroke: #000000; stroke-linejoin: miter"/>
    </g>
    <g id="text_45">
     <!-- Not suitable -->
     <g transform="translate(1020.026523 199.737188) scale(0.18 -0.18)">
      <defs>
       <path id="Times-Roman-62" d="M 453 3609 
Q 453 3891 376 3958 
Q 300 4025 19 3994 
L 19 4088 
Q 294 4159 491 4219 
Q 691 4278 963 4372 
L 991 4353 
L 991 2456 
L 991 2456 
L 1066 2547 
Q 1391 2944 1878 2944 
Q 2366 2944 2680 2542 
Q 2994 2141 2994 1516 
Q 2994 872 2558 404 
Q 2122 -63 1519 -63 
Q 1156 -63 804 65 
Q 453 194 453 328 
L 453 3609 
z
M 1603 141 
Q 2019 141 2228 436 
Q 2438 731 2438 1313 
Q 2438 1875 2216 2209 
Q 1994 2544 1619 2544 
Q 1297 2544 1063 2291 
Q 1025 2250 1008 2204 
Q 991 2159 991 2103 
L 991 456 
Q 991 391 1006 353 
Q 1022 316 1063 288 
Q 1269 141 1603 141 
z
" transform="scale(0.015625)"/>
      </defs>
      <use xlink:href="#Times-Roman-4e"/>
      <use xlink:href="#Times-Roman-6f" transform="translate(72.216797 0)"/>
      <use xlink:href="#Times-Roman-74" transform="translate(122.216797 0)"/>
      <use xlink:href="#Times-Roman-20" transform="translate(150 0)"/>
      <use xlink:href="#Times-Roman-73" transform="translate(175 0)"/>
      <use xlink:href="#Times-Roman-75" transform="translate(213.916016 0)"/>
      <use xlink:href="#Times-Roman-69" transform="translate(263.916016 0)"/>
      <use xlink:href="#Times-Roman-74" transform="translate(291.699219 0)"/>
      <use xlink:href="#Times-Roman-61" transform="translate(319.482422 0)"/>
      <use xlink:href="#Times-Roman-62" transform="translate(363.867188 0)"/>
      <use xlink:href="#Times-Roman-6c" transform="translate(413.867188 0)"/>
      <use xlink:href="#Times-Roman-65" transform="translate(441.650391 0)"/>
     </g>
    </g>
   </g>
  </g>
 </g>
 <defs>
  <clipPath id="p61c72eaf73">
   <rect x="88.050946" y="18.238125" width="436.684167" height="436.440553"/>
  </clipPath>
  <clipPath id="p051d3b4571">
   <rect x="806.40952" y="18.238125" width="145.561389" height="436.440553"/>
  </clipPath>
 </defs>
</svg>
